<?xml version="1.0" standalone="no"?>
<!DOCTYPE svg PUBLIC "-//W3C//DTD SVG 1.1//EN" "http://www.w3.org/Graphics/SVG/1.1/DTD/svg11.dtd" >
<svg>
<metadata>
Created by FontForge 20120731 at Tue Jul 16 20:39:39 2019
 By www
Copyright 2014 Adobe Systems Incorporated. All rights reserved.
</metadata>
<defs>
<font id="Bringin" horiz-adv-x="433" >
  <font-face 
    font-family="Bringin"
    font-weight="400"
    font-stretch="normal"
    units-per-em="1000"
    panose-1="0 0 0 0 0 0 0 0 0 0"
    ascent="750"
    descent="-250"
    x-height="508"
    cap-height="745"
    bbox="-1123 -453.568 1990 1096.22"
    underline-thickness="50"
    underline-position="-100"
    unicode-range="U+0020-007D"
  />
<missing-glyph horiz-adv-x="300" 
 />
    <glyph glyph-name="B_r" unicode="Br" horiz-adv-x="1077" 
d="M1148 81l9 -22q-139 -79 -223.5 -53t-114.5 130.5t-1 256.5q-22 -10 -47 -8q-34 -69 -94 -121q6 -43 -22 -101q-26 -53 -77.5 -94.5t-111 -57.5t-115.5 -7.5t-96 60.5t-47 141q-82 40 -133 98t-66 117.5t-3 120t48.5 108.5t96 81.5t132.5 39.5q145 13 218.5 -35
t63.5 -143.5t-102 -219.5q13 4 42 1.5t58.5 -8t58.5 -23t43 -42.5q48 46 67 99q-39 26 -48.5 80t21.5 130l88 -50q-39 -109 -13 -137q15 -17 37 8q21 23 26 63q115 -33 109 -58q-19 -81 -27.5 -145.5t-6.5 -115.5t17 -82.5t42.5 -45t70.5 -5t100 39.5zM218 302
q13 75 45.5 175.5t60.5 160.5q42 -11 66.5 -25t30.5 -23t4 -15q-1 -3 -10 -30.5t-17.5 -53t-20 -66t-20.5 -77t-16.5 -79t-10.5 -77.5q131 -25 253 46q-33 57 -180 38q-17 8 -18.5 30t9.5 35q240 331 -35 331q-77 0 -141 -25t-102.5 -64t-55 -88t-7 -96.5t49.5 -91
t107 -69.5q7 57 8 64zM437 36q59 20 106 71.5t48 97.5q-52 -27 -127.5 -37t-137.5 4q-2 -84 23 -120.5t88 -15.5z" />
    <glyph glyph-name="y_r" unicode="yr" horiz-adv-x="796" 
d="M206 -208q-57 -57 -119 -35q-45 15 -59 59q-19 57 38 103q39 31 108 48q24 96 39 213q-46 -153 -107 -166q-46 -10 -77 66q-46 114 -20 312q10 73 30 149q43 -13 68.5 -24.5t34 -19t6.5 -14.5q-43 -157 -37 -292q4 -83 27 -79q28 7 60.5 140t37.5 243q0 11 73 -16
q46 -18 45 -24q0 -14 -5 -76q30 -10 58 0.5t44 32.5q-39 26 -48.5 80t21.5 130l88 -51q-40 -110 -13 -137q16 -16 38 9q20 23 25 63q2 -1 11 -3.5t18 -6t21.5 -8t22.5 -9.5t19 -10t13.5 -10.5t3.5 -10.5q-19 -81 -27.5 -146t-6.5 -115.5t17 -82.5t42.5 -45t70.5 -4.5
t100 39.5l9 -23q-139 -79 -223.5 -52.5t-114.5 131t-1 256.5q-28 -12 -54 -7q-23 -29 -58.5 -45t-77.5 -1q-7 -79 -10 -107.5t-15 -118t-25 -138.5t-37 -108t-54 -89zM165 -66q-30 -9 -52.5 -22.5t-34 -27t-17 -27t-4 -23.5t7.5 -16t14 -6t19 6.5t22 20t23 38t22 57.5z" />
    <glyph glyph-name="f_r" unicode="fr" horiz-adv-x="837" 
d="M577 393q-27 -12 -54 -7q-13 -168 -86.5 -291.5t-173.5 -150.5q-41 -162 -127 -198q-56 -23 -101 15q-42 36 -33 88q13 68 112 103q18 7 38 12q22 83 40 252q-18 -2 -24.5 -2.5t-18.5 0t-14 -0.5t-9.5 3t-8 4t-5.5 8t-5 10.5t-5 15t-7 18.5q40 -22 100 -24q1 11 2.5 46
t3.5 67.5t7 75t14 76t23 62.5t36 43t51 9q58 -10 71 -74.5t-10 -144t-66 -146.5q46 9 86 22q2 -21 -6 -24q-75 -23 -98 -29q-16 -150 -36 -243q51 16 94.5 65t71 110.5t43.5 121.5t20 108q-45 22 -58 79t20 137l88 -51q-40 -110 -13 -137q16 -16 38 9q20 23 25 63l10 -3
q11 -4 19.5 -6.5t21.5 -7.5t22.5 -9.5t19 -10t13.5 -11t3 -10.5q-19 -81 -27.5 -146t-6 -115.5t17.5 -82.5t42.5 -45t70.5 -4.5t100 39.5l9 -23q-140 -79 -224.5 -52.5t-114.5 131t-1 256.5zM313 274q36 61 52.5 134.5t14 118.5t-13.5 42q-32 -8 -53 -295zM141 -80
q-62 -19 -87.5 -50.5t-18.5 -55.5q7 -23 31 -13q43 17 75 119z" />
    <glyph glyph-name="v_r" unicode="vr" horiz-adv-x="738" 
d="M398 397zM95 123q22 75 80.5 210.5t91.5 176.5q8 2 18 0q16 0 27.5 -7t10.5 -20q-8 -72 15 -95q19 -19 41 23q-31 30 -36.5 80.5t23.5 117.5l88 -50q-39 -109 -13 -137q15 -17 37 8q21 23 26 63q9 -3 24.5 -8t37 -13t35.5 -18t12 -18q-19 -81 -27.5 -146t-6.5 -116
t17 -82.5t42.5 -45t70.5 -5t100 39.5l9 -22q-139 -79 -223.5 -53t-114.5 130.5t-1 256.5q-44 -18 -81 4q-31 -47 -56 -41.5t-41 35t-15 56.5q1 3 0 7q-50 -71 -101.5 -199t-76.5 -247q-6 -14 -42.5 -4t-43.5 31q-24 74 -21 216.5t31 251.5q121 -37 112 -58
q-14 -40 -30 -140.5t-19 -181.5z" />
    <glyph glyph-name="j_r" unicode="jr" horiz-adv-x="767" 
d="M330 500q-42 5 -66.5 29t-29.5 54.5t-4 60.5t6 50l6 20q43 -7 69.5 -20t34 -23.5t6.5 -18.5q-2 -26 -11.5 -84t-10.5 -68zM507 393q-29 -152 1 -256.5t114.5 -130.5t224.5 53l-10 22q-57 -31 -100 -39.5t-70.5 4.5t-42.5 45t-17 82.5t6.5 115.5t27.5 146q1 5 -3 10.5
t-13.5 11t-19 10t-22.5 9.5t-21.5 7.5t-19.5 6.5l-10 3q-7 -53 -36 -73q-23 -15 -33 11q-14 37 19 128l-88 50q-31 -76 -21.5 -130t48.5 -80q-16 -21 -43 -31.5t-56 -1.5q2 21 4 46t2 30q0 16 -119 40q-1 -101 -16.5 -262.5t-41.5 -263.5q-123 -31 -146 -102q-17 -50 21 -89
q40 -40 96 -23q83 23 129 159q7 21 13 45q33 147 56 393q41 -13 76 3t57 44q26 -5 54 7zM142 -77q-17 -55 -39.5 -87.5t-37.5 -33.5t-25 6q-5 7 -5.5 17t5.5 23.5t17.5 26.5t33.5 26t51 22z" />
    <glyph glyph-name="b_r" unicode="br" horiz-adv-x="814" 
d="M252 444q-31 33 -73 -40q-45 -79 -57 -185q-13 -115 36 -129q7 -2 14 -2q22 1 47.5 47t41.5 105t15.5 119t-24.5 85zM554 397q-27 -11 -54 -6q-44 -57 -107 -52q2 -71 -22 -145.5t-65.5 -127t-85.5 -61.5q-62 -13 -107 6t-67 59t-35 93t-10 107.5t7 102.5q14 91 44 205
t58 184q42 -13 66.5 -29.5t30.5 -27.5t4 -19q-6 -21 -28 -101.5t-33 -125.5q29 38 60 54q39 19 75 7t65 -49q32 -42 40 -104q48 -3 78 37q-39 26 -48.5 80t21.5 130l88 -51q-40 -110 -13 -137q16 -16 38 9q20 23 25 63l11 -4q10 -3 18.5 -5.5t21.5 -7.5t22.5 -9.5t19 -10
t13.5 -11t3 -10.5q-29 -122 -34 -207.5t17 -136.5t75 -53t139 42l9 -22q-140 -79 -224.5 -52.5t-114.5 130.5t-1 256z" />
    <glyph glyph-name="k_r" unicode="kr" horiz-adv-x="831" 
d="M321 483q-66 -74 -103 -160q-6 -67 19 -137t70 -105q41 -31 77.5 0.5t59.5 97t36.5 124t15.5 91.5q-45 22 -57.5 79t20.5 137l87 -51q-39 -110 -12 -137q16 -16 38 9q20 23 25 63q2 -1 11 -3.5t18 -6t21.5 -8t22.5 -9.5t19 -10t13.5 -10.5t3.5 -10.5q-19 -81 -27.5 -146
t-6.5 -116t17 -82.5t42.5 -45t70.5 -5t100 39.5l9 -22q-139 -79 -224 -52.5t-115 131t0 255.5q-26 -11 -55 -6q-2 -22 -5 -46.5t-10.5 -72t-21 -88t-32 -80.5t-48 -64t-64.5 -25q-128 -6 -184 143q-29 -82 -50 -147q-6 -7 -23 -7t-37.5 10t-24.5 24q-36 127 3 348t99 375
q42 -13 67 -29.5t31 -28t3 -18.5q-31 -75 -74.5 -271.5t-51.5 -287.5q41 121 95 241t85 121q15 1 29.5 0t17.5 -1z" />
    <glyph glyph-name="u_r" unicode="ur" horiz-adv-x="884" 
d="M624 398q-28 -12 -54 -6q-1 -7 -3 -43.5t-4 -52.5t-5.5 -53t-9 -57t-13 -50.5t-18.5 -47.5t-25 -35t-33 -25.5t-41 -7.5q-81 1 -129 72t-43 195q-44 -227 -117 -277q-49 -33 -87 30q-50 83 -39 258q6 105 36 219q44 -13 69.5 -24.5t33.5 -19t6 -14.5q-23 -86 -31 -172.5
t-0.5 -136.5t25.5 -45q21 5 46 86t50 192.5t31 130.5q43 -13 68.5 -24.5t34 -19t6.5 -14.5q-75 -318 13 -381q91 -66 134 133q14 68 24 191q-45 21 -58 78t20 138l88 -51q-39 -109 -13 -137q15 -17 37 8q21 23 26 63l25 -7.5t37 -13t35.5 -18.5t11.5 -18q-19 -81 -27.5 -146
t-6.5 -116t17 -82.5t42.5 -45t70.5 -5t100 39.5l10 -22q-140 -79 -224.5 -52.5t-114.5 130.5t-1 256z" />
    <glyph glyph-name="e_r" unicode="er" horiz-adv-x="763" 
d="M503 397q-27 -12 -54 -7q-5 -59 -18 -115.5t-38 -114.5t-69 -99t-101 -55q-121 -29 -183 74.5t-32.5 238t133.5 182.5q79 37 134 8q53 -28 36 -98q-25 -107 -203 -240q8 -106 71 -124q59 -16 126 48q88 85 115 239q6 31 8 64q-45 21 -58 78t20 137l88 -50
q-39 -109 -13 -137q15 -17 37 8q21 23 26 63l10 -3q11 -4 19.5 -6.5t21.5 -7.5t22.5 -9.5t19 -10t13.5 -11t3 -10.5q-19 -81 -27.5 -146t-6 -115.5t17.5 -82.5t42.5 -45t70.5 -4.5t100 39.5l9 -22q-140 -79 -224.5 -53t-114.5 130.5t-1 256.5zM110 213q63 58 100 104t46 69
t0 32q-7 4 -21.5 1.5t-34.5 -21t-38 -42.5t-33 -62.5t-19 -80.5z" />
    <glyph glyph-name="h_r" unicode="hr" horiz-adv-x="867" 
d="M607 393q-28 -12 -54 -6q-3 -42 -6 -72.5t-10 -79t-18.5 -82.5t-27.5 -68.5t-40.5 -52.5t-55.5 -19q-41 -1 -73 15t-50.5 39.5t-31 58.5t-17 62t-6 60.5t-1 44t1.5 22.5q-11 -18 -21.5 -39.5t-23.5 -58t-20 -56t-25.5 -77t-25.5 -77.5q-9 -12 -44 -3t-41 30
q-36 127 3 348t99 375q42 -13 67 -29.5t31 -28t3 -18.5q-31 -76 -74.5 -272t-51.5 -287q41 121 95 241t85 121q19 1 51 -12t30 -21q-80 -341 26 -389q29 -13 53 0t39 44t26.5 71.5t17.5 82.5t10 76.5t5 53.5v4q-45 21 -58 78t20 137l88 -50q-39 -109 -13 -137q15 -17 37 8
q21 23 26 63q9 -3 24.5 -8t37 -13t35.5 -18t12 -18q-29 -122 -34 -207.5t17 -137t75 -53t139 42.5l9 -22q-140 -79 -224.5 -53t-114.5 130.5t-1 256.5z" />
    <glyph glyph-name="r_r" unicode="rr" horiz-adv-x="780" 
d="M138 393q-45 -20 -84.5 5.5t-49.5 80.5t21 131l88 -51q-39 -109 -13 -137q15 -17 37 8q21 23 26 63l25 -7.5t37 -13t35.5 -18.5t11.5 -18q-55 -234 -17 -340q22 -61 64 -46q50 18 87 127q30 91 39 217q-44 21 -57 78.5t20 137.5l88 -51q-39 -109 -13 -137q15 -17 37 8
q21 23 26 63q114 -33 109 -57q-19 -81 -27.5 -146t-6.5 -116t17 -82.5t42.5 -45t70.5 -5t100 39.5l9 -22q-139 -79 -223.5 -52.5t-114.5 130.5t-1 256q-29 -12 -54 -6q-3 -44 -13 -99t-29 -124t-52 -115.5t-75 -48.5q-72 -3 -116.5 49t-53.5 141t10 203z" />
    <glyph glyph-name="o_r" unicode="or" horiz-adv-x="778" 
d="M339 430q-112 44 -178 -54q-49 -74 -48 -179q1 -92 41 -118q14 -9 31 -7q43 6 75.5 49t45 93.5t4.5 86.5l-18 3q-54 7 -58 45q-3 31 25 51q24 17 50 6q42 -18 49 -75q40 10 75 55q-39 26 -48.5 80t21.5 130l88 -50q-39 -109 -13 -137q15 -17 37 8q21 23 26 63
q114 -33 109 -57q-19 -81 -27.5 -146t-6.5 -116t17 -82.5t42.5 -45t70.5 -5t100 39.5l9 -22q-139 -79 -223.5 -53t-114.5 130.5t-1 256.5q-28 -12 -55 -6q-45 -63 -105 -72q-1 -49 -21 -113q-27 -86 -83 -140t-134 -50q-46 2 -77 44t-38.5 105t1.5 130t45.5 126.5t91.5 87.5
q42 24 88 21.5t76 -34.5q19 -21 31 -49z" />
    <glyph glyph-name="g_r" unicode="gr" horiz-adv-x="835" 
d="M217 428q-43 -17 -70 -90.5t-26 -144t28 -83.5q50 -24 88 62q36 81 33 174q-2 85 -40 85q-6 0 -13 -3zM575 393q-28 -12 -54 -6q-21 -28 -55.5 -44t-74.5 -4q-21 -245 -54 -391q-41 -163 -129 -200q-57 -24 -103 13q-41 34 -31 84q13 67 114 102q17 5 35 10q13 55 23 117
q-62 -82 -147 -73q-29 3 -51 27t-33 61.5t-14 83t5.5 94t24.5 92.5t44.5 80t64.5 54q38 21 77 17t65 -34q0 22 1 32q57 -13 88 -22.5t30 -18.5q0 -1 -2.5 -36.5t-4.5 -65.5q28 -7 54 3.5t42 30.5q-40 26 -50 80.5t22 129.5l88 -50q-39 -109 -13 -137q15 -17 37 8
q21 23 26 63q9 -3 24.5 -8t37 -13.5t35.5 -18.5t12 -18q-19 -81 -27.5 -145.5t-6 -115.5t17.5 -82.5t42.5 -45t70.5 -5t100 39.5l9 -22q-140 -79 -224.5 -53t-114.5 130.5t-1 256.5zM214 -76q-29 -9 -51 -22t-33.5 -26t-17.5 -26t-5.5 -23t5.5 -17t13 -8t19 5t22.5 19.5
t24 38.5t23.5 59z" />
    <glyph glyph-name="d_r" unicode="dr" horiz-adv-x="942" 
d="M217 428q-43 -17 -70 -90t-26 -143.5t28 -83.5q51 -25 88 63q35 81 31 175q-4 83 -39 82q-6 -1 -12 -3zM683 393q-29 -12 -54 -6q-12 -154 -36 -227q-45 -140 -149 -143q-119 -3 -162 120q-31 -67 -77.5 -104t-105.5 -31q-41 4 -67 47.5t-29.5 106.5t7.5 129.5
t45.5 124.5t84.5 83q39 22 79.5 17.5t65.5 -37.5l2 -2t1 -2q36 168 83 289q41 -13 66 -30t31 -28t4 -19q-6 -23 -26.5 -96.5t-34 -128t-22.5 -105.5q-3 -20 -5.5 -42.5t-5.5 -60t0.5 -69t10.5 -61t25.5 -44.5t45.5 -11q39 6 68.5 42t45 91t23 101.5t11.5 96.5q-45 21 -58 78
t20 137l88 -50q-39 -109 -13 -137q15 -17 37 8q21 23 26 63q9 -3 24.5 -8t37 -13t35.5 -18t12 -18q-19 -81 -27.5 -146t-6.5 -116t17 -82.5t42.5 -45t70.5 -5t100 39.5l9 -22q-139 -79 -223.5 -53t-114.5 130.5t-1 256.5z" />
    <glyph glyph-name="q_r" unicode="qr" horiz-adv-x="853" 
d="M217 444q-43 -17 -70 -90.5t-26 -144t28 -83.5q49 -24 87 62q36 82 33 175q-2 84 -39 84q-6 0 -13 -3zM593 393q-28 -12 -54 -6q-22 -29 -56.5 -45t-76.5 -3q-42 -156 -56 -232q-15 -97 -13 -174t29 -123.5t77 -44.5l5 -20q-62 -17 -109 1.5t-72.5 65.5t-36.5 111.5
t-6 142.5q-56 -56 -125 -49q-29 3 -51 27t-33 61.5t-14 83t5.5 94t24.5 92.5t44.5 80t64.5 54q39 21 79.5 16.5t65.5 -37.5q14 -18 23 -43q1 4 24 69q42 -13 66.5 -30t30.5 -28t4 -19q-3 -13 -10 -37.5t-10 -35.5q27 -6 52.5 4.5t41.5 30.5q-39 26 -48.5 80t21.5 130l88 -50
q-39 -109 -13 -137q15 -17 37 8q21 23 26 63l25 -7.5t37 -13t35.5 -18.5t11.5 -18q-29 -122 -34 -207.5t17 -137t75 -53t139 42.5l9 -22q-140 -79 -224.5 -53t-114.5 130.5t-1 256.5z" />
    <glyph glyph-name="c_r" unicode="cr" horiz-adv-x="776" 
d="M196 55q50 0 91 23t67.5 58.5t45.5 82.5t28.5 91.5t12.5 89.5q-45 21 -58 78t20 137l88 -50q-39 -109 -13 -137q15 -17 37 8q21 23 26 63q9 -3 24.5 -8t37 -13t35.5 -18t12 -18q-29 -122 -34 -207.5t17 -137t75 -53t139 42.5l9 -22q-140 -79 -224.5 -53t-114.5 130.5
t-1 256.5q-28 -12 -54 -6q-5 -59 -16.5 -112.5t-35.5 -108.5t-58 -93.5t-87.5 -60.5t-118.5 -17q-56 5 -93 46t-46.5 101.5t-1 125.5t43.5 125.5t88 93.5q42 26 91.5 26.5t88.5 -21.5l-59 -96q-73 16 -121.5 -71t-33.5 -181.5t93 -94.5z" />
    <glyph glyph-name="t_r" unicode="tr" horiz-adv-x="735" 
d="M421 386q-9 -122 -50 -231.5t-114 -140.5q-79 -33 -138.5 3t-84.5 121.5t-12 194.5q6 53 28 144l-49 13l-1 28q23 -5 58 -10q25 94 52 165q41 -13 66 -29.5t31 -27.5t4 -19t-28 -100q63 -2 110 8l2 -44q-52 -11 -123 -4q-24 -97 -31 -146q-36 -226 54 -267
q38 -17 76 15.5t64 92t43.5 124.5t21.5 118q-45 21 -58 78t20 137l88 -50q-39 -109 -13 -138q15 -17 37 8q21 23 26 64l10 -3q11 -4 19.5 -6.5t21.5 -7.5t22.5 -9.5t19 -10t13.5 -11t3 -10.5q-29 -122 -34 -207.5t17 -136.5t75 -52.5t139 42.5l9 -22q-140 -79 -224.5 -53
t-114.5 130.5t-1 256.5q-27 -12 -54 -7z" />
    <glyph glyph-name="m_r" unicode="mr" horiz-adv-x="1082" 
d="M479 484q12 0 32 -5.5t35 -14t14 -13.5q-61 -254 -16 -347q36 -73 94 -24q48 42 76.5 142t32.5 172q-44 21 -57 78t20 137l88 -50q-39 -109 -13 -137q15 -17 37 8q21 23 26 63q114 -33 109 -57q-19 -81 -27.5 -146t-6.5 -116t17 -82.5t42.5 -45t70.5 -5t100 39.5l9 -22
q-139 -79 -223.5 -53t-114.5 130.5t-1 256.5q-29 -12 -54 -6q-5 -65 -25 -153.5t-53 -148.5q-39 -70 -102 -77t-113 56q-11 13 -19.5 30t-14 34.5t-10 35.5t-6.5 36t-3.5 33.5t-1.5 30.5v24.5t1 17.5v9q-22 -35 -35.5 -67t-30 -84.5t-23.5 -71.5q-16 -44 -24 -50
q-14 -9 -35 15q-12 13 -21.5 29.5t-15.5 34.5t-11 36.5t-7 37t-3.5 35t-2 32t-0.5 25.5t1 19v9q-11 -18 -21.5 -39.5t-23.5 -58t-20 -56t-25.5 -77t-25.5 -77.5q-6 -13 -42 -3.5t-42 30.5q-21 74 -11 216.5t44 251.5q43 -13 68.5 -24.5t34 -19t6.5 -13.5q-17 -41 -38 -141.5
t-27 -181.5q42 123 95 242t84 120q13 0 33 -5.5t35 -14t14 -13.5q-41 -173 -34 -274q112 306 161 307z" />
    <glyph glyph-name="n_r" unicode="nr" horiz-adv-x="851" 
d="M538 387q-1 -12 -3 -45t-4 -51t-5 -51t-8 -53t-11.5 -48t-16 -45.5t-22 -36t-29 -29t-36.5 -14.5q-48 -10 -84 5t-54.5 45t-32 67.5t-15 74.5t-4 65.5t0.5 39.5v4q-11 -18 -21.5 -39.5t-23.5 -58t-20 -56t-25.5 -77t-25.5 -77.5q-12 -13 -45 -4t-39 31q-21 74 -11 216.5
t43 251.5q44 -13 69.5 -24.5t34 -19t6.5 -13.5q-17 -41 -38 -141.5t-27 -181.5q42 123 95 242t84 120q13 0 33 -5.5t35 -14t14 -13.5q-80 -333 21 -387q74 -39 113 112q20 80 30 218q-44 21 -57 78t20 137l88 -50q-39 -109 -13 -137q15 -17 37 8q21 23 26 63
q114 -33 109 -57q-19 -81 -27.5 -146t-6.5 -116t17 -82.5t42.5 -45t70.5 -5t100 39.5l9 -22q-139 -79 -223.5 -53t-114.5 130.5t-1 256.5q-28 -12 -54 -6z" />
    <glyph glyph-name="a_r" unicode="ar" horiz-adv-x="896" 
d="M217 427q-43 -17 -70 -90t-26 -143.5t28 -83.5q51 -25 87 62q34 82 30 176q-3 82 -38 81q-5 0 -11 -2zM636 393q-27 -12 -54 -6q-7 -94 -31.5 -191.5t-68.5 -142.5q-40 -39 -80.5 -33.5t-72.5 37.5t-48 77q-31 -66 -77.5 -102.5t-104.5 -30.5q-41 4 -67 47.5t-29.5 106.5
t7.5 129.5t45.5 124.5t84.5 83q39 22 79.5 17.5t65.5 -37.5q1 -1 2 -2.5t1 -2.5q2 7 6 20.5t6 20.5q43 -13 68.5 -24.5t34 -19t6.5 -14.5q-57 -241 -19 -335q21 -53 61 -29q50 29 83 146q21 72 27 162q-45 21 -58 78t21 137l87 -50q-39 -109 -13 -137q15 -17 37 8
q21 23 26 63l25 -7.5t37 -13t36 -18.5t12 -18q-19 -81 -27.5 -146t-6.5 -116t17 -82.5t42.5 -45t70.5 -5t100 39.5l9 -22q-139 -79 -224 -53t-115 130.5t-1 256.5z" />
    <glyph glyph-name="i_r" unicode="ir" horiz-adv-x="671" 
d="M412 394q-28 -10 -55 -6q-10 -152 -23 -209q-38 -175 -155 -179q-84 -3 -131 64t-47 178t40 252q44 -13 69.5 -24.5t33.5 -19t6 -14.5q-89 -372 44 -396q32 -1 57.5 25.5t39.5 63t24 92.5t14 91.5t7 82.5q-45 22 -57.5 79t20.5 137l87 -51q-39 -110 -12 -137q16 -16 38 9
q20 23 25 63q2 -1 11 -3.5t18 -6t21.5 -8t22.5 -9.5t19 -10t13.5 -10.5t3.5 -10.5q-19 -81 -27.5 -146t-6.5 -115.5t17 -82.5t42.5 -45.5t70.5 -5t100 39.5l9 -22q-139 -79 -224 -52.5t-115 131t0 255.5zM165 482q-41 11 -61.5 38t-21.5 58t4.5 60t13.5 48l8 20
q41 -13 65.5 -30t30.5 -28t4 -19q-6 -25 -22.5 -79.5t-20.5 -67.5z" />
    <glyph glyph-name="p_r" unicode="pr" horiz-adv-x="837" 
d="M276 439q-32 34 -73 -41q-45 -80 -57 -185q-13 -115 36 -128q6 -2 13 -2q22 0 47.5 46t41.5 105.5t16 119.5t-24 85zM577 393q-27 -12 -54 -7q-44 -57 -107 -52q3 -81 -28 -165.5t-83 -134t-101 -32.5q-62 21 -90 88q-18 -115 -25 -227t0 -121q1 -3 -4 -4q-20 -4 -53 14
q-23 14 -27 29q-16 83 13.5 369t68.5 398q37 -3 77.5 -16.5t36.5 -22.5q-3 -6 -12 -36q21 23 44 35q40 18 76 6t64 -48q33 -42 41 -104q47 -1 78 37q-40 26 -50 80.5t22 129.5l88 -50q-39 -109 -13 -137q15 -17 37 8q21 23 26 63l10 -3q11 -4 19.5 -6.5t21.5 -7.5t22.5 -9.5
t19 -10t13.5 -11t3 -10.5q-19 -81 -27.5 -146t-6 -115.5t17.5 -82.5t42.5 -45t70.5 -4.5t100 39.5l9 -22q-140 -79 -224.5 -53t-114.5 130.5t-1 256.5z" />
    <glyph glyph-name="l_r" unicode="lr" horiz-adv-x="682" 
d="M368 387q-3 -41 -11 -87.5t-24.5 -103t-38 -100t-56 -71.5t-75.5 -25q-95 7 -135.5 103.5t-19.5 247.5q13 91 45.5 212t61.5 193q41 -13 66 -30t30.5 -28t3.5 -19q-8 -31 -27.5 -102t-35 -132t-24.5 -111q-35 -203 17 -264q34 -39 85 3q65 54 98 187q15 63 19 134
q-45 22 -58 79t20 137l88 -51q-40 -110 -13 -137q16 -16 38 9q20 23 25 63l11 -4q10 -3 18.5 -5.5t21.5 -7.5t22.5 -9.5t19 -10t13.5 -11t3 -10.5q-19 -81 -27.5 -146t-6.5 -115.5t17 -82.5t42.5 -45t70.5 -4.5t100 39.5l10 -23q-140 -79 -224.5 -52.5t-114.5 131t-1 256.5
q-28 -12 -54 -7z" />
    <glyph glyph-name="w_r" unicode="wr" horiz-adv-x="950" 
d="M610 397zM331 123q17 74 67 210t81 177q7 2 18 0q15 0 27 -7t11 -20q-8 -72 15 -95q19 -19 41 23q-31 30 -36.5 80.5t23.5 117.5l88 -50q-39 -109 -13 -137q15 -17 37 8q21 23 26 63q9 -3 24.5 -8t37 -13t35.5 -18t12 -18q-19 -81 -27.5 -146t-6.5 -116t17 -82.5
t42.5 -45t70.5 -5t100 39.5l9 -22q-139 -79 -223.5 -53t-114.5 130.5t-1 256.5q-44 -18 -81 4q-31 -48 -56 -42t-41 37t-14 58q-46 -71 -88.5 -197.5t-59.5 -244.5q-7 -14 -43 -4.5t-45 31.5q-21 52 -29.5 145.5t-3.5 189.5q-79 -174 -107 -362q-6 -14 -42.5 -4t-45.5 31
q-28 73 -33.5 216.5t15.5 251.5q45 -13 72 -24.5t36 -19.5t7 -14q-12 -41 -22 -141t-7 -181q16 70 63 199t79 181q45 -13 72 -24.5t36 -19.5t7 -14q-12 -41 -22 -141t-7 -181z" />
    <glyph glyph-name="C_r" unicode="Cr" horiz-adv-x="945" 
d="M588 409q-32 30 -38 80.5t23 119.5l88 -50q-39 -109 -13 -137q15 -17 37 8q21 23 26 63q115 -33 109 -58q-19 -81 -27.5 -145.5t-6.5 -115.5t17 -82.5t42.5 -45t70.5 -5t100 39.5l9 -22q-139 -79 -223.5 -53t-114.5 130.5t-1 256.5q-35 -15 -70 -2
q-29 -157 -125.5 -269.5t-238.5 -126.5q-95 -9 -159 45t-81 144.5t-4 191t69 194.5t140 146q71 44 145 41q95 -4 140 -74q39 -60 15 -123q-28 -71 -119 -85q-58 -9 -133 9q143 18 196 96q35 52 11 94q-19 34 -66 34q-98 -2 -174 -125q-72 -117 -82 -264q-11 -154 59 -221
q53 -51 144 -33q54 11 96.5 45t69.5 83.5t44 102.5t25 113z" />
    <glyph glyph-name="D_r" unicode="Dr" horiz-adv-x="1125" 
d="M412 576q0 -2 -11.5 -39t-21.5 -72t-23 -83.5t-23 -97.5t-15 -89l12 -3t33 -7t48.5 -7t59.5 -4t66 3q17 49 24 105t3 112.5t-22.5 108t-49.5 90.5t-81.5 60t-114.5 17q-70 -5 -124.5 -31t-85 -64t-40.5 -85.5t2.5 -93t50.5 -88t98 -70.5q7 60 8 65q13 76 45.5 176.5
t61.5 159.5q41 -11 66 -24.5t31 -23t3 -15.5zM865 393q-22 -9 -42 -8q-33 -149 -191 -203q-73 -147 -215 -177q-101 -22 -157.5 36.5t-63.5 163.5q-81 40 -129.5 98.5t-60.5 118t2 121t50.5 110t92 81t119.5 37.5q106 9 189 -24t130.5 -94t71 -137.5t17.5 -158t-36 -153.5
q118 53 149 189q-45 21 -58.5 78.5t20.5 137.5l87 -50q-39 -109 -13 -137q15 -17 37 8q22 23 27 63q114 -33 109 -57q-19 -81 -27.5 -146t-6.5 -116t17 -82.5t42.5 -45t70.5 -5t100 39.5l9 -22q-139 -79 -224 -53t-115 130.5t-1 256.5zM530 159q-45 -6 -110 -6t-106 9
q-2 -76 23 -111t87 -14q65 22 106 122z" />
    <glyph glyph-name="E_r" unicode="Er" horiz-adv-x="873" 
d="M613 393q-29 -12 -55 -6q1 -32 -8 -75t-29 -94.5t-52 -95.5t-79 -78.5t-109 -43t-142 10.5q-57 16 -92.5 57.5t-42.5 95.5t5 110t51.5 105.5t97.5 77.5q-32 28 -48.5 60.5t-18.5 63t7.5 61t29 55t48 43.5t60.5 29t70 8.5t75 -16.5q27 -11 46 -36t22.5 -52t-19 -49
t-71.5 -27q29 39 37.5 73t-10 56.5t-65.5 22.5q-42 0 -74 -20t-43.5 -54.5t-6 -75t39.5 -86t93 -83.5q-48 -4 -94 -37t-73.5 -81.5t-39 -101t8.5 -102t71 -76.5q27 -17 62 -10.5t72 24.5t71.5 55t61 80.5t40.5 102.5t9 121q-35 28 -42 80.5t23 123.5l88 -50
q-39 -109 -13 -137q15 -17 37 8q21 23 26 63q9 -3 24.5 -8t37 -13t35.5 -18t12 -18q-19 -81 -27.5 -146t-6.5 -116t17 -82.5t42.5 -45t70.5 -5t100 39.5l10 -22q-140 -79 -224.5 -53t-114.5 130.5t-1 256.5z" />
    <glyph glyph-name="G_r" unicode="Gr" horiz-adv-x="989" 
d="M218 68q29 -11 52.5 -9.5t42 22t32 45.5t23 61t15.5 69.5t9.5 69t5 61t1.5 45.5q60 -13 90 -22t29 -18q-12 -213 -46 -384q67 67 116.5 183.5t46.5 214.5q-34 29 -41 80.5t23 122.5l87 -50q-39 -109 -13 -137q15 -17 37 8q21 23 26 63q9 -3 24.5 -8t37 -13t35.5 -18
t12 -18q-19 -81 -27.5 -146t-6 -116t17.5 -82.5t42.5 -45t70.5 -5t100 39.5l9 -22q-139 -79 -224 -53t-115 130.5t-1 256.5q-28 -13 -58 -6q3 -104 -63 -230.5t-144 -188.5q-1 -8 -5 -22q-41 -164 -130 -200q-56 -24 -101 13q-41 34 -31 84q13 67 114 102q17 5 35 10
q17 72 30 164q-79 -132 -178 -124q-101 9 -153 104.5t-45 223t65 235.5q35 65 79 108t88.5 59.5t86.5 17t80 -15.5q90 -37 101 -110q10 -64 -42 -112q-64 -58 -167 -37q-17 4 -34 10q90 4 151 74q49 57 39 106q-8 40 -54 48q-59 10 -120 -45t-89 -120q-31 -73 -45 -169
t4 -186.5t75 -117.5zM337 -78q-52 -17 -81 -45t-26.5 -47t13.5 -28q12 -5 26.5 3.5t33.5 38.5t34 78z" />
    <glyph glyph-name="H_r" unicode="Hr" horiz-adv-x="1005" 
d="M500 180q1 -61 13.5 -95t37.5 -41t50 -1.5t65 22.5l2 -19q-139 -77 -217.5 -27.5t-70.5 213.5q4 48 8 79q-35 4 -123 36q-15 -65 -67 -309q-5 -26 -50.5 -34t-88.5 2q29 90 63.5 216.5t42.5 169.5q-64 35 -103.5 77.5t-51 83.5t-8 76.5t21.5 64.5q35 57 115 62t122 -51
q34 -48 34.5 -130.5t-20.5 -179.5q57 -22 119 -37q10 70 25.5 157t28 149t12.5 64q42 -13 72 -30t40.5 -29.5t8.5 -19.5q-44 -168 -67 -317q127 -32 145 68q-39 26 -48.5 80t21.5 129l88 -50q-39 -109 -13 -137q15 -17 37 8q21 23 26 63q9 -3 24.5 -8t37 -13t35.5 -18
t12 -18q-29 -122 -34 -207.5t17 -137t75 -53t139 42.5l9 -22q-140 -79 -224.5 -53t-114.5 130.5t-1 256.5q-30 -13 -61 -5q-16 -47 -59.5 -76.5t-116.5 -21.5q-8 -59 -8 -110zM175 434q20 110 6 171.5t-40.5 84t-56.5 13.5q-20 -6 -34.5 -23.5t-17.5 -45t7.5 -59.5t45 -69.5
t90.5 -71.5z" />
    <glyph glyph-name="I_r" unicode="Ir" horiz-adv-x="792" 
d="M174 180q-1 -108 39 -137q31 -23 80.5 49t88 168.5t47.5 154.5q-28 31 -32.5 80t23.5 114l88 -50q-39 -109 -13 -137q15 -17 37 8q21 23 26 63l10 -3q11 -4 19.5 -6.5t21.5 -7.5t22.5 -9.5t19 -10t13.5 -11t3 -10.5q-19 -81 -27.5 -145.5t-6.5 -115.5t17 -82.5t42.5 -45
t70.5 -5t100 39.5l9 -22q-139 -79 -223.5 -53t-114.5 130.5t-1 256.5q-35 -15 -68 -2q-12 -38 -37 -95.5t-60 -125t-78 -116.5t-79 -53q-83 -10 -124 49.5t-32 181.5q2 27 9 73t12 79l6 32q-19 -1 -61 -1q-3 0 -11 34.5t-10 35.5q51 -11 92 -12q44 172 89 243q57 67 119 39
q50 -23 67 -88q23 -83 -31 -151q-42 -53 -124 -79q-37 -163 -38 -257zM223 483q85 23 114.5 89t5.5 103q-18 28 -47 -4q-42 -45 -73 -188z" />
    <glyph glyph-name="J_r" unicode="Jr" horiz-adv-x="870" 
d="M146 -75q29 93 41 149q-64 -45 -121 -125t-30 -128q16 -28 50 2q35 30 60 102zM610 393q-51 -23 -95 13q-23 -26 -63.5 -35.5t-82.5 -2.5q-15 -84 -23 -125.5t-24 -119t-30.5 -122t-35 -98t-44.5 -87.5t-52 -53q-47 -29 -88 -18.5t-60 46.5q-19 45 -5.5 98.5t47.5 106.5
t74 94.5t74 63.5q10 32 22.5 95.5t19.5 105t8 52.5q-97 59 -108 161q-9 83 42 141q56 63 138 40q19 -5 38 -15q15 -8 25 -25.5t12.5 -42.5t3 -49.5t-3.5 -57t-7 -53t-8.5 -49.5t-6.5 -36q10 -10 53 -12t68 16q-23 32 -25 77.5t24 106.5l88 -50q-39 -109 -13 -137
q15 -17 37 8q21 23 26 63q9 -3 24.5 -8t37 -13.5t35.5 -18.5t12 -18q-19 -81 -27.5 -145.5t-6 -115.5t17.5 -82.5t42.5 -45t70.5 -5t100 39.5l9 -22q-140 -79 -224.5 -53t-114.5 130.5t-1 256.5zM260 466q7 32 11.5 69t6 80.5t-8.5 71t-33 25.5q-22 -1 -38 -21t-21 -50.5
t0 -63t26.5 -63.5t56.5 -48z" />
    <glyph glyph-name="M_r" unicode="Mr" horiz-adv-x="1303" 
d="M279 211zM1043 393q-21 -10 -46 -8q-2 -30 -14 -80t-36 -109.5t-54 -107.5t-72.5 -72.5t-88.5 -7.5q-99 38 -95 223q3 99 25 237q-2 -2 -70 -90q-126 -160 -163 -124q-6 6 -10 17q-42 114 -81 280q-34 -222 -48 -291q33 -11 42.5 -25.5t5.5 -50.5q-29 16 -59 27
q-21 -89 -42 -132q-50 -95 -125 -82q-55 10 -89 67q-40 65 -12 124q34 72 157 85q37 178 62 428q1 7 22 16t46.5 14.5t47.5 2t24 -17.5q9 -73 36 -196.5t45 -168.5q4 -12 58 55.5t113.5 162.5t76.5 148q10 14 39 2.5t59 -36t28 -34.5q-8 -36 -19 -94.5t-29 -188.5t-15 -200
q6 -136 48 -129q40 6 90 121q58 130 65 237q-43 24 -55 80t21 134l87 -50q-39 -109 -13 -137q15 -17 37 8q22 23 27 63q114 -33 109 -57q-19 -81 -27.5 -146t-6.5 -116t17 -82.5t42.5 -45t70.5 -5t100 39.5l9 -22q-139 -79 -224 -53t-115 130.5t-1 256.5zM158 232
q-107 -4 -132 -69q-17 -43 9 -78q12 -16 28 -19q53 -8 95 166z" />
    <glyph glyph-name="P_r" unicode="Pr" horiz-adv-x="1103" 
d="M843 393q-30 -13 -61 -5q-14 -54 -44.5 -99.5t-72 -72.5t-87.5 -34t-95 17.5t-89 79.5q-17 -1 -51 -1q-19 -87 -28 -116q-29 -99 -78 -139.5t-109 -24.5t-128 82q0 2 4.5 6t8.5 7l4 3q25 -23 40 -34t33.5 -17t32 4t29.5 35.5t33 70.5q18 49 39 148q-47 26 -37.5 60
t56.5 42q10 59 19 123t13 99l4 35q1 7 14.5 14.5t47 13t77.5 3.5q-1 -3 -8.5 -51t-20.5 -123t-26 -141q10 -4 24 -14.5t23 -18.5l10 -8q45 16 77 51t47 77t12 88t-23.5 85.5t-64.5 69t-106 37.5q-56 8 -105.5 -16t-77 -68t-35 -100t19.5 -112q-33 8 -52 27t-21 31
q-13 63 18 121.5t91 95t131.5 53.5t147 0t129.5 -68q54 -50 62 -125.5t-30.5 -149t-113.5 -116.5q-36 -19 -70 -28q48 -55 98.5 -69.5t90.5 6.5t71 66t44 105q-41 25 -51 80t22 131l87 -50q-39 -109 -13 -137q15 -17 37 8q21 23 26 63q9 -3 24.5 -8t37.5 -13t36 -18t12 -18
q-19 -81 -27.5 -146t-6.5 -116t17 -82.5t42.5 -45t70.5 -5t100 39.5l9 -22q-139 -79 -224 -53t-115 130.5t-1 256.5zM228 324q9 43 11 59q-29 -9 -34.5 -27.5t23.5 -31.5zM367 322q-1 1 -2.5 3.5t-2.5 3.5q-6 9 -7 10q-2 -14 -3 -20z" />
    <glyph glyph-name="S_r" unicode="Sr" horiz-adv-x="824" 
d="M298 739q-49 -2 -78 -28.5t-34.5 -64.5t2.5 -78.5t27 -73.5t75 -96.5t76 -113.5l4 -11q43 8 75.5 40t44.5 80q-45 21 -58.5 78.5t19.5 137.5l88 -50q-39 -109 -13 -137q15 -17 37 8q21 23 26 63q9 -3 24.5 -8t37 -13.5t35.5 -18.5t12 -18q-29 -122 -34 -207t17 -136.5
t75 -53t139 42.5l9 -22q-140 -79 -224.5 -53t-114.5 130.5t-1 256.5q-23 -9 -43 -8q-17 -53 -55 -89.5t-91 -40.5q29 -103 -23.5 -176t-161.5 -80q-96 -7 -153 56q-49 53 -34 112q19 70 117 93q50 12 117 9q-12 17 -41 46t-39 42q-118 149 -72 291q20 62 73.5 92.5
t121.5 28.5q81 -3 116 -68q30 -55 7 -109q-27 -61 -104 -59q-37 1 -81 19q109 29 141 94q23 46 -7 76q-20 18 -54 17zM247 251q-133 -2 -179 -77q-32 -51 -7 -102q24 -49 78 -48q17 0 35 6q60 20 83 88t-10 133z" />
    <glyph glyph-name="T_r" unicode="Tr" horiz-adv-x="883" 
d="M355 180q2 -141 38 -132q38 11 91 155q40 109 53 197q-39 25 -49 79.5t22 129.5l88 -50q-39 -109 -13 -137q15 -17 37 8q21 23 26 63q9 -3 24.5 -8t37 -13.5t35.5 -18.5t12 -18q-19 -81 -27.5 -145.5t-6.5 -115.5t17 -82.5t42.5 -45t70.5 -5t100 39.5l10 -22
q-140 -79 -224.5 -53t-114.5 130.5t-1 256.5q-26 -12 -53 -7q-9 -54 -33 -124t-57 -135.5t-75.5 -102.5t-81.5 -20q-46 19 -69.5 78t-19.5 150q4 82 42 231.5t60 200.5q-12 4 -41.5 14t-42.5 14t-37.5 11t-38.5 8t-32.5 1t-33 -5t-27.5 -15q-29 -21 -39 -51.5t0.5 -61
t35.5 -57.5t70 -44.5t101 -18.5q8 0 -7 -19q-32 -41 -82 -39l-14 2q-63 11 -102.5 56.5t-45.5 98.5t25.5 104.5t95.5 72.5q61 20 140.5 11t147.5 -28.5t160 -24t178 24.5q-37 -75 -74 -90q-32 -14 -80.5 -13t-77 7t-83.5 19q-80 -326 -77 -461z" />
    <glyph glyph-name="U_r" unicode="Ur" horiz-adv-x="1082" 
d="M823 393q-21 -8 -37 -8q-7 -61 -38.5 -150.5t-84 -164.5t-102.5 -69q-95 11 -113 132q-34 -47 -75 -79.5t-79.5 -46t-74.5 -7t-61.5 32t-38.5 77t-8 122.5q6 76 30 200q-71 15 -105.5 62.5t-34.5 102.5q0 79 66 128q61 44 126 27q74 -21 92 -116q11 -60 -5 -144
q42 15 50 16l3 -5q5 -29 -18 -53q-18 -17 -49 -21q-35 -156 -36 -249q-1 -149 57 -145q45 2 98 83q53 80 65 160q8 51 44.5 235.5t43.5 214.5q41 -13 70.5 -30t39.5 -29.5t8 -19.5q-10 -35 -25 -90.5t-40.5 -181.5t-26.5 -197q0 -96 31 -129q16 -17 48 18t65.5 123.5
t43.5 198.5q-47 20 -61.5 77.5t19.5 140.5l87 -50q-39 -109 -13 -137q16 -17 38 8q21 23 26 63q114 -33 109 -57q-19 -81 -27.5 -146t-6.5 -116t17 -82.5t42.5 -45t70.5 -5t100 39.5l9 -22q-139 -79 -224 -53t-115 130.5t0 256.5zM143 494l8 -2q30 177 -23 213
q-22 15 -51 -4q-21 -15 -33.5 -42t-12 -58t28.5 -61t83 -46z" />
    <glyph glyph-name="Y_r" unicode="Yr" horiz-adv-x="976" 
d="M215 71q33 -10 62 25t49.5 99.5t37 141.5t26.5 154t15.5 133t5.5 83q29 -6 46 -10.5t36 -10t27.5 -10t8.5 -9.5q-18 -348 -95 -689q50 15 87.5 51t58 76.5t33.5 96.5t17 98.5t6 95.5q-42 23 -53.5 79.5t20.5 133.5l88 -50q-39 -109 -13 -137q15 -17 37 8q21 23 26 63
q9 -3 24.5 -8t37 -13t35.5 -18t12 -18q-19 -81 -27.5 -146t-6 -116t17.5 -82.5t42.5 -45t70.5 -5t100 39.5l9 -22q-140 -79 -224.5 -53t-114.5 130.5t-1 256.5q-21 -10 -46 -8q-5 -65 -18 -126t-39 -127t-74.5 -116.5t-113.5 -72.5l-2 -9q-43 -156 -130 -189
q-56 -22 -100 16q-40 35 -29 85q16 69 125 102q12 4 24 7q27 112 43 246q-6 -43 -27.5 -89.5t-58 -81.5t-75.5 -32q-49 4 -79 38t-39.5 78.5t-9 103t7 102.5t14.5 87t8 47q-58 41 -81 95t-14.5 97.5t37.5 69.5q24 22 61 33t70.5 9.5t58.5 -15t26 -36.5q1 -26 -4 -62.5
t-16.5 -91t-15.5 -79.5q56 -16 75 -21q-4 -9 -9.5 -16.5t-11.5 -11.5t-12 -7t-12 -4t-11.5 -1.5t-10.5 0.5t-8.5 1.5t-6.5 1.5l-3 1q-15 -56 -23.5 -131.5t-2.5 -141t32 -73.5zM108 515q0 -1 6 29.5t12 62.5t6 33q11 50 0 69t-33 14t-43 -29q-20 -21 -23 -53.5t16 -68
t59 -57.5zM304 -78q-29 -9 -51 -22t-34 -26t-17.5 -26.5t-5 -23.5t6.5 -17q5 -6 13 -7t19 5.5t22 19.5t23.5 38.5t23.5 58.5z" />
    <glyph glyph-name="t_t" unicode="tt" horiz-adv-x="553" 
d="M623 81l10 -22q-183 -107 -281 -22q-116 -55 -189.5 -29t-104 112t-15.5 214q12 88 40 191q-28 9 -48.5 18t-26.5 14l-7 5l-1 32q30 -18 92 -39q10 35 39 119q42 -13 66.5 -30t30.5 -28t4 -19q-4 -15 -20 -73q47 -9 107 -15q28 97 52 165q42 -13 66.5 -29.5t30.5 -27.5
t4 -19q-4 -15 -8.5 -31t-9.5 -34t-8 -30q59 4 121 26l5 -32q-27 -12 -61 -18.5t-55 -6.5l-20 -1q-24 -97 -34 -159q-14 -88 -8 -150t31 -94t75 -29.5t123 42.5zM204 495q-30 -107 -42 -184q-25 -166 15.5 -233.5t155.5 -20.5q-72 89 -49 277q7 62 27 144q-52 6 -107 17z" />
    <glyph glyph-name="a_z" unicode="a&#x7a;" horiz-adv-x="834" 
d="M707 -56q-69 -19 -95 -53.5t-14 -62.5q11 -26 37 -20q42 9 64 97q5 18 8 39zM280 133q-30 -65 -76.5 -101.5t-105.5 -30.5q-40 4 -66 47.5t-29.5 106.5t7.5 129.5t45.5 124.5t84.5 83q39 22 79 17.5t65 -37.5l4 -5q2 10 11 41q44 -14 69 -25t33.5 -18.5t6.5 -14.5
q-58 -244 -18 -337q22 -51 62 -26q51 31 83 150q18 65 25 145q-47 27 -59.5 87t22.5 123l88 -51q-41 -107 5 -124q30 -11 69 19q26 20 29 41q17 -4 50 -29t21 -34l-92 -151q140 -133 130 -303q-11 -97 -74.5 -160t-127.5 -51q-43 8 -60 54q-23 58 18 109.5t132 68.5
q-1 37 -15 70.5t-33 55.5t-38 38t-32 24t-13 9q7 25 54.5 104.5t59.5 112.5q-59 -40 -113 -22q-9 -94 -33.5 -185.5t-66.5 -134.5q-40 -40 -80 -34t-72 37.5t-49 76.5zM217 427q-43 -17 -70 -90t-26 -143.5t28 -83.5q50 -25 87 62q33 82 30 176q-4 82 -38 81q-5 0 -11 -2z
" />
    <glyph glyph-name="b_z" unicode="b&#x7a;" horiz-adv-x="757" 
d="M631 -56q-67 -18 -93.5 -51t-17.5 -61q8 -27 33 -25q36 2 60 67q11 29 18 70zM390 367q42 -3 73 30q-36 33 -42 86t26 109l87 -51q-42 -109 6 -124q31 -10 69 19q26 20 29 41q16 -5 49 -29.5t21 -33.5l-92 -151q141 -135 130 -303q-10 -97 -73.5 -160t-127.5 -51
q-44 8 -61 55q-22 58 20 109q41 51 131 68q-1 37 -15 70.5t-33 55.5t-38 38t-32 24t-13 9q7 25 54.5 104.5t58.5 112.5q-67 -47 -128 -16q-43 -45 -96 -40q2 -71 -22 -145.5t-65.5 -127t-85.5 -61.5q-62 -13 -107 6t-67 59t-35 92.5t-10 107.5t7 103q14 91 44 205t58 184
q42 -13 66.5 -29.5t30.5 -27.5t4 -19q-7 -26 -28.5 -104.5t-32.5 -122.5q29 38 60 54q40 18 75.5 6t64.5 -48q32 -42 40 -104zM252 444q-31 33 -73 -40q-45 -79 -57 -185q-13 -115 36 -129q7 -2 14 -2q22 0 47.5 46t41.5 105.5t15.5 119.5t-24.5 85z" />
    <glyph glyph-name="c_z" unicode="c&#x7a;" horiz-adv-x="714" 
d="M588 -56q-35 -10 -59.5 -24.5t-36 -30t-15.5 -30.5t0 -27t13 -19q8 -6 18 -6.5t21.5 7.5t22 23t20.5 42.5t16 64.5zM137 493q42 26 91.5 26.5t88.5 -21.5l-59 -96q-73 16 -121.5 -71t-33.5 -181.5t93 -94.5q48 0 88 21t66 54.5t45.5 78t29.5 87t14 87.5q-47 28 -59 87
t24 122l87 -51q-42 -109 6 -124q31 -10 69 19q26 20 29 41q16 -5 49 -29.5t21 -33.5l-92 -151q70 -67 103 -139.5t27 -163.5q-10 -97 -73.5 -160t-127.5 -51q-44 8 -61 55q-22 58 20 109q41 51 131 68q-1 37 -15 70.5t-33 55.5t-38 38t-32 24t-13 9q7 26 54.5 105.5
t59.5 111.5q-60 -40 -115 -22q-7 -73 -26 -136.5t-54.5 -121.5t-95.5 -89t-138 -25q-56 5 -93 46t-46.5 101.5t-1 125.5t43.5 125.5t88 93.5z" />
    <glyph glyph-name="d_z" unicode="d&#x7a;" horiz-adv-x="873" 
d="M217 427q-43 -17 -70 -90t-26 -143.5t28 -83.5q50 -24 87 61q34 81 32 175q-3 83 -38 84q-6 0 -13 -3zM746 -56q-60 -17 -88.5 -47.5t-25 -55t23.5 -32.5q15 -6 31.5 3.5t33.5 43t25 88.5zM862 -40q-11 -97 -74.5 -160t-127.5 -51q-43 8 -60 54q-23 58 18 109.5t132 68.5
q-1 37 -15 70.5t-33 55.5t-38 38t-32 24t-13 9q7 25 54.5 104.5t59.5 112.5q-55 -37 -106 -24q-2 -33 -4 -55t-8.5 -62t-14 -68t-21.5 -62.5t-32 -55.5t-45 -36t-59 -16q-117 -3 -162 120q-30 -66 -77 -103.5t-106 -31.5q-29 3 -51 27t-32.5 61t-13.5 83t5.5 94t24.5 92
t44 80t64 54q39 22 79.5 17.5t65.5 -37.5l3 -4q35 164 83 289q42 -13 66.5 -30t30.5 -28t4 -19q-5 -19 -26 -95.5t-34 -130t-22 -104.5q-3 -19 -6 -42.5t-5.5 -60t0.5 -69t10 -61t25.5 -44t45.5 -11.5q38 5 66.5 38.5t44.5 85t24 97t12 95.5q-51 25 -66 86.5t22 127.5
l88 -51q-41 -107 5 -124q30 -11 69 19q26 20 29 41q17 -4 50 -29t21 -34l-92 -151q140 -133 130 -303z" />
    <glyph glyph-name="e_z" unicode="e&#x7a;" horiz-adv-x="704" 
d="M578 -56q-34 -10 -58.5 -24.5t-36.5 -29.5t-16 -30t-0.5 -27t11.5 -19t18 -7.5t22 6.5t23 22t21 43t16 66zM140 501q79 37 134 8q53 -28 36 -98q-25 -107 -203 -240q8 -106 72 -124q58 -16 125 49q89 86 116 241q4 24 6 48q-45 28 -56 86.5t24 120.5l87 -51
q-42 -109 6 -124q31 -10 69 19q26 20 29 41q16 -5 49 -29.5t21 -33.5l-92 -151q141 -135 130 -303q-10 -97 -73.5 -160t-127.5 -51q-44 8 -61 55q-22 58 20 109q41 51 131 68q-1 37 -15 70.5t-33 55.5t-38 38t-32 24t-13 9q7 25 54.5 104.5t58.5 112.5q-60 -41 -117 -21
q-6 -59 -20 -113.5t-39 -109t-68 -93.5t-98 -52q-121 -29 -183 74.5t-32.5 238t133.5 182.5zM109 213q40 37 70.5 69.5t46.5 55t25.5 41t8 27.5t-5.5 14q-8 5 -23.5 -1t-34.5 -23.5t-37 -42t-32 -62t-18 -78.5z" />
    <glyph glyph-name="f_z" unicode="f&#x7a;" horiz-adv-x="777" 
d="M651 -46q-39 -11 -66 -29t-35.5 -34.5t-11 -33.5t7.5 -27q16 -24 44 -9q44 25 61 133zM308 233q-17 -147 -35 -236q50 16 92.5 63t70 106.5t44 118t21.5 108.5q-46 28 -57.5 87t23.5 121l88 -50q-42 -108 5 -125q30 -11 68 19q27 20 30 42q18 -6 50 -30t20 -34l-92 -151
q70 -67 103 -139.5t27 -163.5q-10 -97 -73.5 -160t-127.5 -51q-44 8 -61 55q-22 57 19 109t132 69q-1 37 -15 70.5t-33 55t-38 38t-32 24.5t-13 9q7 25 54.5 104.5t59.5 112.5q-62 -42 -116 -22q-15 -164 -88 -283.5t-171 -146.5q-41 -162 -128 -198q-56 -23 -101 15
q-41 36 -32 88q13 68 112 103q18 7 38 12q23 90 39 252q-60 -5 -71 2q-9 6 -21 43q-2 6 -4 11q40 -21 99 -23q1 10 2.5 45.5t4 67.5t7 74.5t14 76t23.5 62.5t36 43t51 9q59 -10 71 -77t-13 -148.5t-69 -148.5q55 12 85 22q2 -21 -5 -23q-51 -18 -93 -28zM312 277
q36 61 53 136.5t14.5 121.5t-13.5 43q-7 -2 -13.5 -17t-11.5 -39.5t-9.5 -52t-7.5 -59.5t-5.5 -56t-4.5 -48t-2 -29zM140 -70q-29 -9 -50.5 -22t-33.5 -26t-18 -26t-5.5 -23t5.5 -17q10 -8 25.5 -7t37.5 33.5t39 87.5z" />
    <glyph glyph-name="g_z" unicode="g&#x7a;" horiz-adv-x="776" 
d="M649 -52q-34 -10 -59 -24.5t-36 -30t-15 -30.5t-0.5 -27t12.5 -19q8 -6 18 -6.5t22 7t22.5 22.5t20 43t15.5 65zM140 496q37 21 76.5 17.5t65.5 -34.5v32q56 -11 88 -21t31 -19q-7 -95 -8 -102q26 -7 51 1.5t41 27.5q-38 32 -45 86.5t25 111.5l88 -51q-41 -107 5 -124
q30 -11 69 19q26 20 29 41q17 -4 50 -29t21 -34l-92 -151q140 -133 130 -303q-11 -97 -74 -160t-127 -51q-44 8 -62 55q-21 58 20 109t131 68q-1 37 -15 70.5t-33 55.5t-38 38t-32 24t-13 9q7 25 54.5 104.5t59.5 112.5q-65 -45 -123 -18q-54 -58 -122 -39
q-20 -237 -55 -390q-41 -162 -127 -198q-57 -24 -102 14q-41 35 -32 87q12 67 110 103q19 7 40 12q8 31 21 108q-63 -83 -147 -73q-41 4 -67 47.5t-29.5 106.5t7.5 129.5t45.5 124.5t84.5 83zM149 114q50 -25 88 62q36 81 33 174q-3 84 -40 84q-6 0 -13 -3q-43 -17 -70 -90
t-26 -143.5t28 -83.5zM214 -72q-35 -11 -59.5 -27.5t-34 -31.5t-13.5 -30t3 -23q13 -21 39 -3q38 26 65 115z" />
    <glyph glyph-name="h_z" unicode="h&#x7a;" horiz-adv-x="799" 
d="M672 -56q-94 -26 -110 -82q-10 -33 13 -50q6 -4 13 -5q24 -4 48 29.5t36 107.5zM274 484q12 0 32 -6t35 -14t14 -13q-82 -341 26 -390q18 -5 32.5 -6t27 10.5t22.5 24.5t18.5 35t15 42.5t12 47t9 47.5t6 45.5t4 40t2.5 31.5q-50 25 -64.5 86.5t22.5 126.5l88 -51
q-41 -107 5 -124q30 -11 69 19q26 20 29 41q17 -4 50 -29t21 -34l-92 -151q70 -68 102.5 -140.5t27.5 -162.5q-11 -97 -74 -160t-127 -51q-43 8 -61 54q-22 57 17 108q41 53 133 70q-1 37 -15 70.5t-33 55.5t-38 38t-32 24t-13 9q7 25 54.5 104.5t59.5 112.5
q-54 -37 -108 -24q-25 -355 -157 -358q-45 -1 -79.5 17.5t-51.5 48t-29.5 65.5t-14 69.5t-3.5 60t1 36.5v4q-8 -13 -15.5 -28t-16 -36.5t-14.5 -37t-16.5 -46t-16 -46.5t-18.5 -56t-19 -57q-9 -13 -43.5 -4t-40.5 30q-36 128 3 350t99 374q41 -13 66.5 -30t31.5 -28.5
t3 -18.5q-31 -76 -75 -272.5t-51 -285.5q24 69 52.5 142t67.5 146t60 74z" />
    <glyph glyph-name="i_z" unicode="i&#x7a;" horiz-adv-x="610" 
d="M165 481q-41 11 -62 38t-21.5 58t4.5 60t13 49l8 19q42 -13 66.5 -29.5t30.5 -27.5t4 -19q-6 -26 -23 -81.5t-20 -66.5zM469 263q70 -67 102.5 -139.5t27.5 -163.5q-11 -97 -74.5 -160t-127.5 -51q-44 8 -61 55q-22 58 20 109q41 51 131 68q-1 37 -15 70.5t-33 55.5
t-38 38t-32 24t-13 9q7 26 54.5 105.5t59.5 111.5q-59 -40 -114 -22q-11 -163 -32 -233q-43 -135 -145 -140q-128 -5 -165.5 140.5t27.5 353.5q44 -14 69 -25t33.5 -18.5t6.5 -14.5q-89 -373 43 -397q31 -1 56 24t39 59.5t24.5 87.5t14.5 89.5t8 82.5q-47 28 -59.5 87.5
t23.5 122.5l88 -51q-41 -107 5 -124q30 -11 69 19q26 20 29 41q17 -4 50 -29t21 -34zM387 -189q8 -3 18 -4t21.5 8t21.5 23.5t19.5 42t15.5 63.5q-36 -10 -61 -25.5t-36 -31t-14.5 -31t1 -27.5t14.5 -18z" />
    <glyph glyph-name="j_z" unicode="j&#x7a;" horiz-adv-x="706" 
d="M579 -52q-72 -20 -97 -56.5t-10 -63.5q14 -26 41 -14q47 19 66 134zM330 505q-42 5 -66.5 29t-29.5 54t-4 60t6 50l6 20q43 -7 69.5 -19.5t34 -23t6.5 -18.5q-2 -26 -11.5 -84t-10.5 -68zM209 486q119 -24 119 -40q0 -5 -1 -15.5t-2.5 -28t-2.5 -32.5q55 -16 94 27
q-39 32 -46.5 86.5t25.5 112.5l88 -51q-41 -107 5 -124q30 -11 69 19q26 20 29 41q16 -5 49 -29.5t21 -33.5l-92 -151q70 -67 103 -139.5t28 -163.5q-11 -97 -74.5 -160t-127.5 -51q-44 8 -61 55q-22 58 20 109q41 51 131 68q-1 37 -15 70.5t-33 55.5t-38 38t-32 24t-13 9
q7 26 54.5 105.5t59.5 111.5q-64 -44 -122 -19q-55 -59 -124 -36q-25 -281 -56 -393q-42 -164 -130 -201q-57 -23 -102 14q-40 34 -30 84q14 67 116 102q16 6 33 10q26 102 41.5 263.5t16.5 262.5zM142 -73q-52 -17 -81 -45t-26.5 -47.5t13.5 -28.5q11 -5 26 3.5t34 38.5
t34 79z" />
    <glyph glyph-name="k_z" unicode="k&#x7a;" horiz-adv-x="770" 
d="M643 -56q-40 -11 -66.5 -28.5t-35 -35t-10.5 -34.5t8 -27q13 -11 31.5 -11.5t40.5 35.5t32 101zM274 484q15 1 29.5 0t17.5 -1q-66 -75 -103 -160q-6 -67 19 -137.5t70 -105.5q43 -24 75 -1t57 87t38 119.5t18 96.5q-47 28 -59 87.5t23 122.5l88 -51q-41 -107 5 -124
q30 -11 69 19q26 20 29 41q17 -4 50 -29t21 -34l-92 -151q140 -133 130 -303q-11 -97 -74.5 -160t-127.5 -51q-43 8 -60 54q-23 58 18 109.5t132 68.5q-1 37 -15 70.5t-33 55.5t-38 38t-32 24t-13 9q7 25 54.5 104.5t59.5 112.5q-59 -40 -114 -22q-4 -45 -12.5 -92
t-27.5 -114t-55.5 -110.5t-84.5 -45.5q-127 -6 -184 142q-27 -74 -50 -146q-6 -7 -23 -7t-37.5 10t-24.5 24q-36 127 3 348t99 375q42 -13 67 -29.5t31 -28t3 -18.5q-31 -76 -75 -272.5t-51 -286.5q41 121 95 241t85 121z" />
    <glyph glyph-name="l_z" unicode="l&#x7a;" horiz-adv-x="624" 
d="M497 -55q-40 -11 -66.5 -29t-36 -36t-9.5 -34t8 -27q14 -10 32.5 -10.5t40 35.5t31.5 101zM8 351q13 91 45 212.5t60 192.5q26 -8 45.5 -17.5t30.5 -18t17.5 -16.5t7.5 -14t0 -10q-5 -21 -27 -100.5t-36 -137.5t-23 -108q-35 -203 17 -264q34 -39 84 3q65 54 98 187
q14 59 18 125q-45 29 -56 87.5t24 119.5l88 -50q-41 -108 5 -125q30 -11 69 19q26 20 29 42q18 -6 50.5 -30t20.5 -34l-92 -151q140 -133 130 -303q-11 -97 -74.5 -160t-127.5 -51q-43 8 -61 55q-22 58 20 110q41 51 131 68q-1 37 -15 70.5t-33 55t-38 38t-32 24.5t-13 9
q7 24 54.5 104t59.5 113q-61 -43 -118 -21q-5 -55 -18 -114t-36 -122.5t-62 -103t-87 -35.5q-96 7 -136.5 103.5t-18.5 247.5z" />
    <glyph glyph-name="m_z" unicode="m&#x7a;" horiz-adv-x="1019" 
d="M892 -56q-33 -9 -57 -23.5t-36 -29t-16.5 -29t-2 -26.5t10.5 -20q7 -8 17.5 -9.5t22.5 5t23.5 21.5t21.5 43.5t16 67.5zM544 104q36 -73 94 -24q45 39 73 131.5t35 169.5q-48 28 -61 87.5t23 123.5l88 -51q-41 -107 5 -124q30 -11 69 19q26 20 29 41q17 -4 50 -29t21 -34
l-92 -151q140 -133 130 -303q-11 -97 -74 -160t-127 -51q-43 8 -61 54q-22 57 17 108q41 53 133 70q-1 37 -15 70.5t-33 55.5t-38 38t-32 24t-13 9q7 25 54.5 104.5t59.5 112.5q-57 -40 -112 -23q-6 -65 -25.5 -147.5t-50.5 -139.5q-39 -70 -102 -77t-113 56
q-11 13 -19.5 30t-14 34.5t-10 35.5t-6.5 36t-3.5 33.5t-1.5 30.5v24.5t1 17.5v9q-22 -36 -35.5 -68t-30 -84t-23.5 -71q-16 -45 -25 -51q-13 -8 -34 15q-12 13 -21.5 30t-15.5 34.5t-11 36.5t-7 37.5t-3.5 35t-2 32t-0.5 25.5t1 19v9q-11 -18 -21.5 -39.5t-23.5 -58
t-20 -56t-25.5 -77t-25.5 -77.5q-6 -13 -42 -3.5t-42 30.5q-21 74 -11 216.5t44 251.5q43 -13 68.5 -24.5t34 -19t6.5 -13.5q-17 -41 -38 -141.5t-27 -181.5q42 123 95 242t84 120q13 0 33 -5.5t35 -14t14 -13.5q-41 -173 -34 -274q112 306 161 307q12 0 32 -5.5t35 -14
t14 -13.5q-61 -254 -16 -347z" />
    <glyph glyph-name="n_z" unicode="n&#x7a;" horiz-adv-x="788" 
d="M661 -56q-33 -9 -57.5 -23.5t-36 -29t-16 -29t-2 -26.5t10.5 -20q7 -8 17.5 -9.5t22.5 5t23.5 21.5t21.5 43.5t16 67.5zM271 484q12 0 32 -6t35 -14t14 -13q-80 -334 22 -387q39 -21 67.5 9.5t43.5 98.5t21 113t10 96q-49 27 -62 87t23 124l88 -51q-41 -107 5 -124
q30 -11 69 19q26 20 29 41q18 -6 50.5 -30t20.5 -34l-92 -150q70 -68 102.5 -140.5t27.5 -163.5q-11 -97 -74.5 -160t-127.5 -51q-43 8 -61 55q-21 58 19.5 109.5t131.5 68.5q-1 37 -15 70.5t-33 55.5t-38 38t-32 24t-13 9q7 25 54.5 104.5t59.5 112.5q-57 -40 -111 -23
q-11 -156 -25 -214q-31 -128 -109 -144q-48 -10 -84 4.5t-54.5 45t-32 68.5t-15 75t-4 65t0.5 38v4q-7 -11 -14 -26t-13 -27.5t-14 -34.5t-13 -35t-14.5 -42t-14 -42t-16 -49.5t-16.5 -50.5q-13 -13 -46 -4.5t-39 30.5q-21 75 -10.5 217t43.5 252q118 -37 109 -58
q-17 -40 -38 -140.5t-27 -181.5q24 69 52.5 142t67.5 146t60 74z" />
    <glyph glyph-name="o_z" unicode="o&#x7a;" horiz-adv-x="723" 
d="M597 -68q-71 -20 -96.5 -55.5t-11.5 -62.5q13 -26 40 -17q46 16 66 122q1 6 2 13zM712 -52q-10 -97 -73.5 -160t-127.5 -51q-44 8 -61 55q-22 57 19 109t132 69q-1 37 -15 70.5t-33 55t-38 37.5t-32 24t-13 9q7 25 54.5 105t58.5 112q-66 -46 -126 -17q-43 -54 -98 -63
q-2 -50 -22 -113q-27 -86 -83 -140t-134 -50q-46 2 -77 44t-38.5 105t2 130t45.5 126.5t91 87.5q42 24 88 21.5t76 -34.5q18 -18 31 -49q-112 44 -178 -54q-49 -74 -48 -179q1 -92 41 -118q14 -9 31 -7q43 6 75.5 49t45 93.5t4.5 86.5q-5 1 -17 3q-54 7 -58 45q-4 31 24 51
q24 17 50 6q42 -17 49 -75q39 9 73 52q-36 33 -42.5 86.5t25.5 109.5l87 -50q-42 -109 6 -125q31 -10 69 19q26 20 29 41q16 -5 49 -29.5t21 -33.5l-92 -151q70 -67 103 -139.5t27 -163.5z" />
    <glyph glyph-name="p_z" unicode="p&#x7a;" horiz-adv-x="783" 
d="M276 441q-32 34 -73 -41q-45 -80 -57 -185q-13 -115 36 -129q6 -1 13 -1q22 0 47.5 46t41.5 105t16 119.5t-24 85.5zM656 -56q-34 -10 -58.5 -24.5t-36 -29.5t-15.5 -30t-0.5 -27t11.5 -19t18 -8t21.5 6.5t22.5 22.5t21 43t16 66zM772 -41q-11 -97 -74.5 -160t-127.5 -51
q-43 8 -61 55q-21 58 19.5 109.5t131.5 68.5q-1 37 -15 70.5t-33 55.5t-38 38t-32 24t-13 9q7 25 54.5 104.5t59.5 112.5q-67 -47 -128 -17q-45 -47 -99 -42q3 -82 -28 -166.5t-83 -133.5t-101 -32q-62 21 -90 88q-18 -115 -25 -227t0 -122q1 -3 -4 -4q-19 -3 -53 15
q-23 14 -27 28q-16 83 13.5 369.5t68.5 397.5q36 -3 77 -16t37 -22q-5 -14 -12 -37q21 23 44 35q40 19 76 7t64 -49q33 -41 41 -103q43 -3 74 33q-35 33 -41 86t25 109l88 -51q-41 -107 5 -124q30 -11 69 19q26 20 29 41q18 -6 50.5 -30t20.5 -34l-92 -150
q70 -68 102.5 -140.5t27.5 -163.5z" />
    <glyph glyph-name="q_z" unicode="q&#x7a;" horiz-adv-x="781" 
d="M216 443q-43 -17 -70 -90t-26 -143.5t28 -83.5q49 -24 87 62q36 81 33 174q-2 84 -39 84q-6 0 -13 -3zM654 -40q-39 -11 -65.5 -28t-35.5 -34t-11.5 -33.5t6.5 -26.5q16 -26 44 -11q45 23 62 133zM770 -25q-11 -96 -74.5 -159.5t-127.5 -51.5q-43 8 -61 55q-21 58 19 110
q42 51 132 68q-1 37 -15 70.5t-33 55.5t-38 38t-32 24t-13 9q7 25 54.5 104.5t59.5 112.5q-52 -37 -103 -25q-22 -28 -56.5 -44t-75.5 -3q-42 -151 -56 -233q-15 -97 -13.5 -174t28.5 -123.5t77 -43.5l5 -21q-62 -17 -109 1.5t-72.5 66t-36.5 111.5t-6 142q-56 -56 -125 -49
q-40 4 -66 47.5t-30 107t7 130t45.5 124.5t84.5 83q39 22 79.5 17.5t65.5 -38.5q15 -20 23 -43q7 23 24 69q42 -13 66.5 -29.5t30.5 -27.5t4 -19q-4 -15 -20 -73q28 -6 53 4t41 30q-47 28 -59 87.5t23 122.5l88 -51q-41 -107 5 -124q30 -11 69 19q26 20 29 41q17 -4 50 -29
t21 -34l-92 -151q70 -68 102.5 -140.5t27.5 -163.5z" />
    <glyph glyph-name="r_z" unicode="r&#x7a;" horiz-adv-x="716" 
d="M589 -56q-34 -9 -58.5 -23.5t-36 -29.5t-16 -30t-1 -27.5t11.5 -19.5t18 -7.5t22 6.5t23 22t21 43t16 66zM138 393q-45 -20 -85 5.5t-50 80t22 130.5l87 -50q-39 -109 -13 -137q16 -17 38 8q21 23 26 63q114 -33 109 -57q-57 -237 -17 -343q23 -58 64 -42q51 20 88 132
q28 84 37 198q-49 27 -62 87.5t23 123.5l88 -51q-41 -107 5 -124q30 -11 69 19q26 20 29 41q17 -4 50 -29t21 -34l-92 -151q70 -67 102.5 -139.5t27.5 -163.5q-11 -97 -74.5 -160t-127.5 -51q-43 8 -60 54q-23 58 18 109.5t132 68.5q-1 37 -15 70.5t-33 55.5t-38 38t-32 24
t-13 9q7 26 54.5 106t59.5 111q-58 -39 -111 -23q-5 -48 -15 -102t-29 -118.5t-51.5 -107t-72.5 -44.5q-107 -5 -150 108t-9 285z" />
    <glyph glyph-name="t_z" unicode="t&#x7a;" horiz-adv-x="684" 
d="M558 -54q-34 -10 -59 -24.5t-36.5 -30t-15.5 -30.5t-0.5 -27t12.5 -19q8 -6 18 -6.5t22 7t22.5 22.5t20.5 43t16 65zM399 391q-41 31 -50 87t25 115l87 -50q-42 -109 6 -125q31 -10 69 20q26 20 29 41q18 -6 50 -30t20 -34l-92 -151q70 -67 103 -139.5t27 -163.5
q-10 -97 -73.5 -160t-127.5 -51q-44 8 -61 55q-22 57 19 109t132 69q-1 37 -15 70.5t-33 55t-38 38t-32 24.5t-13 9q7 25 54.5 104.5t59.5 112.5q-65 -45 -125 -19q-4 -54 -15.5 -107.5t-30.5 -106.5t-49.5 -93t-67.5 -56q-79 -33 -138.5 3t-84.5 122t-12 195q6 54 28 144
l-49 13l-1 28q23 -5 58 -11q26 97 52 166q26 -8 45.5 -17.5t30 -18t17 -16.5t8 -14t0.5 -10q-5 -20 -15 -55.5t-13 -45.5q64 -2 110 9l2 -44q-51 -12 -123 -5q-24 -93 -31 -145q-36 -227 54 -267q38 -17 75.5 14.5t63.5 90t43.5 123t21.5 117.5z" />
    <glyph glyph-name="u_z" unicode="u&#x7a;" horiz-adv-x="827" 
d="M700 -50q-35 -10 -60 -25t-36 -30.5t-15 -31t0.5 -27.5t13.5 -18q8 -4 18 -5.5t21.5 7.5t22 23.5t20 42.5t15.5 64zM548 391q-45 29 -56 87.5t24 119.5l88 -51q-41 -107 5 -124q30 -11 69 19q26 20 29 41q17 -4 50 -29t21 -34l-92 -151q140 -133 130 -303
q-11 -97 -74.5 -160t-127.5 -51q-43 8 -60 54q-23 58 18 109.5t132 68.5q-1 37 -15 70.5t-33 55.5t-38 38t-32 24t-13 9q7 25 54.5 104.5t59.5 112.5q-62 -42 -118 -21q-11 -156 -26 -215q-35 -145 -125 -144q-81 1 -129.5 71.5t-42.5 195.5q-44 -226 -117 -277
q-49 -34 -87 27q-50 82 -40 257q6 106 36 221q44 -14 69.5 -25.5t33.5 -19t6 -13.5q-14 -52 -22.5 -106.5t-10.5 -99t0.5 -79t9.5 -53t18 -15.5q21 6 46 86.5t50 192.5t31 131q44 -14 69 -25t33.5 -18.5t6.5 -14.5q-76 -317 13 -382q18 -13 35 -15.5t30 6.5t24 23t19.5 37
t15.5 45t12 51t8.5 51t6.5 48.5t4 40t2 29.5z" />
    <glyph glyph-name="v_z" unicode="v&#x7a;" horiz-adv-x="673" 
d="M95 122q22 75 80.5 210.5t91.5 176.5q18 4 35 -2.5t15 -23.5q-8 -70 14 -94q18 -20 39 17q-31 34 -34 84t26 102l88 -51q-41 -107 5 -124q30 -11 69 19q26 20 29 41q17 -4 50 -29t21 -34l-92 -151q140 -133 130 -303q-11 -97 -74 -160t-127 -51q-44 8 -62 55
q-21 58 20 109t131 68q-1 37 -15 70.5t-33 55.5t-38 38t-32 24t-13 9q7 25 54.5 104.5t59.5 112.5q-40 -27 -78.5 -27t-67.5 22q-28 -41 -52 -34.5t-39 34t-16 54.5q-49 -72 -98.5 -197t-73.5 -240q-6 -14 -42.5 -4t-43.5 31q-24 74 -21 216.5t31 251.5q121 -37 112 -57
q-14 -41 -30 -141.5t-19 -181.5zM546 -56q-33 -9 -57 -23t-36 -28t-16.5 -29t-2 -27t9.5 -20t17.5 -10t22.5 4.5t23.5 21.5t22 43.5t16.5 67.5z" />
    <glyph glyph-name="w_z" unicode="w&#x7a;" horiz-adv-x="888" 
d="M331 122q18 76 68 211t81 176q18 5 36 -1.5t16 -24.5q-9 -71 15 -94q18 -18 38 18q-31 34 -34 83.5t26 101.5l88 -50q-41 -108 5 -125q30 -11 69 19q26 20 29 42q18 -6 50.5 -30t20.5 -34l-92 -151q140 -133 130 -303q-11 -97 -74.5 -160t-127.5 -51q-43 8 -61 55
q-22 58 20 110q41 51 131 68q-1 37 -15 70.5t-33 55t-38 38t-32 24.5t-13 9q7 24 54.5 104t59.5 113q-80 -56 -146 -6q-28 -40 -51.5 -34.5t-39 32t-16.5 54.5q-44 -73 -85 -196.5t-59 -238.5q-6 -13 -42.5 -3.5t-44.5 30.5q-21 52 -30 145.5t-4 190.5q-78 -174 -107 -363
q-6 -13 -42 -3.5t-45 30.5q-29 73 -34.5 217t15.5 251q45 -13 72 -24.5t36.5 -19t7.5 -13.5q-13 -39 -22.5 -139.5t-7.5 -183.5q17 70 64 199t78 181q45 -13 72 -24.5t36.5 -19t7.5 -13.5q-13 -39 -22.5 -139.5t-7.5 -183.5zM761 -55q-40 -11 -67 -29t-36 -36.5t-9 -34.5
t9 -27q14 -10 32 -10t39.5 36.5t31.5 100.5z" />
    <glyph glyph-name="y_z" unicode="y&#x7a;" horiz-adv-x="741" 
d="M614 -52q-39 -11 -66 -28.5t-35.5 -34.5t-11 -34t7.5 -27q18 -24 45 -7q43 26 60 131zM236 486q0 11 73 -16q46 -18 45 -24q0 -13 -5 -75q28 -9 55 0t44 29q-37 32 -43.5 86t25.5 110l88 -51q-41 -107 5 -124q30 -11 69 19q26 20 29 41q16 -5 49 -29.5t21 -33.5l-92 -151
q70 -67 103 -139.5t28 -163.5q-11 -97 -74.5 -160t-127.5 -51q-44 8 -61 55q-22 58 20 109q41 51 131 68q-1 37 -15 70.5t-33 55.5t-38 38t-32 24t-13 9q7 26 54.5 105.5t59.5 111.5q-67 -46 -126 -17q-56 -63 -128 -37q-7 -72 -10 -102.5t-14 -110.5t-22 -128t-31.5 -104.5
t-45.5 -88.5q-55 -71 -121 -57q-48 11 -67 56q-25 57 22 107q40 43 122 64q17 70 33 191q-46 -154 -107 -167q-46 -10 -77 67q-47 115 -19 314q9 72 29 146q43 -13 68.5 -24.5t34 -19t6.5 -13.5q-24 -86 -33 -176.5t-2 -145t25 -49.5q28 7 60.5 139.5t37.5 242.5zM169 -60
q-52 -17 -81 -45t-26.5 -47.5t12.5 -28.5q12 -5 27 3.5t34 38.5t34 79z" />
    <glyph glyph-name="B_z" unicode="B&#x7a;" horiz-adv-x="1001" 
d="M860 254q70 -67 103 -139.5t27 -163.5q-10 -97 -73.5 -160t-127.5 -51q-44 8 -61 55q-22 58 20 109q41 51 131 68q-1 37 -15 70.5t-33 55.5t-38 38t-32 24t-13 9q7 25 54.5 104.5t58.5 112.5q-54 -36 -103 -25q-32 -54 -81 -97q5 -44 -23 -101q-22 -44 -62 -80.5
t-87.5 -58.5t-97.5 -24.5t-92 15t-71.5 66t-35.5 123.5q-82 40 -133 98t-66 117.5t-3 120.5t48 109t95.5 81.5t132.5 39.5q144 13 218 -35t64.5 -143.5t-101.5 -219.5q41 8 108 -9t94 -64v1q36 34 57 77q-44 29 -55 87t24 119l87 -51q-42 -109 6 -124q31 -10 69 19
q26 20 29 41q16 -5 49 -29.5t21 -33.5zM217 302q13 74 46 175t61 161q41 -11 66 -25t31 -23t4 -16q0 -1 -10 -30.5t-17.5 -52.5t-20 -65t-21 -77.5t-16.5 -78.5t-11 -79q130 -23 254 46q-34 59 -180 38q-18 8 -19.5 30t10.5 36q119 164 110.5 247.5t-145.5 82.5
q-77 0 -141 -25t-102.5 -64t-55 -88t-7.5 -96.5t49 -90.5t107 -69q6 54 8 64zM436 36q60 20 107 71.5t47 97.5q-52 -27 -127.5 -37t-137.5 4q-2 -84 23.5 -120.5t87.5 -15.5zM772 -192q7 -8 17.5 -10t23 4.5t24 21.5t22 43.5t16.5 67.5q-33 -9 -57 -23t-36 -28t-17 -29
t-2.5 -27t9.5 -20z" />
    <glyph glyph-name="C_z" unicode="C&#x7a;" horiz-adv-x="877" 
d="M750 -62q-36 -10 -61 -25.5t-36 -31.5t-14.5 -31.5t1 -27t14.5 -17.5q9 -4 18.5 -5t21 8.5t22 24t19.5 42t15 63.5zM585 388q-37 33 -44 87t25 111l88 -51q-41 -107 5 -124q30 -11 69 19q26 20 29 41q18 -6 50 -30t20 -34l-92 -151q70 -67 103 -139.5t28 -163.5
q-11 -97 -74.5 -160t-127.5 -51q-44 8 -61 55q-22 57 19 109t132 69q-1 37 -15 70.5t-33 55t-38 38t-32 24.5t-13 9q7 26 54.5 105.5t59.5 111.5q-65 -45 -125 -18q-33 -151 -127.5 -256t-231.5 -118q-95 -9 -159 45t-81 144.5t-4.5 191t68.5 194.5t140 146q72 44 146 41
q95 -4 140 -74q38 -61 14 -123q-28 -71 -119 -85q-58 -8 -132 10q142 17 195 95q35 51 12 93q-19 36 -66 35q-98 -2 -174 -125q-72 -117 -82 -264q-11 -154 59 -221q53 -51 144 -33q67 14 117 65.5t75.5 115t38.5 140.5z" />
    <glyph glyph-name="D_z" unicode="D&#x7a;" horiz-adv-x="1059" 
d="M412 575q-77 -242 -94 -382l12 -3t33 -7t48.5 -7t59.5 -4t66 3q26 75 27.5 161.5t-22.5 164t-88 125.5t-158 42q-70 -4 -125 -30t-85 -64t-40 -85.5t2.5 -93t50.5 -88t98 -70.5q7 59 8 65q13 75 45.5 175.5t60.5 160.5q26 -7 45.5 -15t30.5 -15t17.5 -13.5t7.5 -11.5
t0 -8zM933 -66q-35 -10 -59.5 -24.5t-36 -30t-15.5 -30.5t0 -27t13 -19q8 -6 18 -6t21.5 7.5t22.5 22.5t20.5 42.5t15.5 64.5zM1048 -50q-10 -97 -73.5 -160t-127.5 -51q-44 8 -61 55q-22 58 20 109q41 51 131 68q-1 37 -15 70.5t-33 55.5t-38 38t-32 24t-13 9
q7 26 54.5 106t59.5 111q-54 -36 -103 -25q-39 -129 -186 -179q-72 -147 -214 -177q-101 -22 -157.5 36t-63.5 164q-81 40 -129.5 98.5t-60.5 118t2 121t50.5 110t92 81t119.5 37.5q106 8 189 -25t130.5 -93.5t70.5 -137.5t17.5 -158t-36.5 -153h1q109 49 144 169
q-48 27 -60.5 87t23.5 123l87 -51q-42 -109 6 -124q31 -10 69 19q26 20 29 41q16 -5 49 -29.5t21 -33.5l-92 -151q70 -67 103 -139.5t27 -163.5zM530 158q-131 -17 -216 3q-3 -75 22.5 -110.5t87.5 -14.5q65 22 106 122z" />
    <glyph glyph-name="E_z" unicode="E&#x7a;" horiz-adv-x="799" 
d="M672 -64q-40 -11 -67 -29t-36 -36.5t-9 -34.5t9 -26q14 -10 32 -10t39.5 36t31.5 100zM557 362q-3 -37 -14 -78.5t-33 -90t-54.5 -87.5t-78 -69.5t-104.5 -36t-133 11.5q-57 15 -93 57t-43 95.5t5 109.5t51.5 105.5t97.5 77.5q-36 32 -53 69.5t-14.5 72t18 68t44.5 57
t64.5 39.5t78 15t85.5 -17q27 -11 46 -36t22.5 -51.5t-19 -48.5t-71.5 -27q29 39 37.5 73t-10 56.5t-65.5 22.5q-42 0 -74 -20t-43.5 -54.5t-6 -75t40 -86.5t92.5 -84q-60 -4 -113.5 -53.5t-79.5 -113t-11.5 -130t77.5 -100.5q26 -16 59.5 -10.5t69 21.5t69.5 50t60.5 74.5
t43 95.5t16.5 113q-45 28 -56.5 86.5t23.5 120.5l88 -51q-41 -107 5 -124q30 -11 69 19q26 20 29 41q17 -4 50 -29t21 -34l-92 -151q140 -133 130 -303q-11 -97 -74.5 -160t-127.5 -51q-43 8 -60 54q-23 58 18 109.5t132 68.5q-1 37 -15 70.5t-33 55.5t-38 38t-32 24t-13 9
q7 25 54.5 104.5t59.5 112.5q-53 -37 -102 -25z" />
    <glyph glyph-name="G_z" unicode="G&#x7a;" horiz-adv-x="920" 
d="M793 -61q-61 -17 -89 -48t-24 -55.5t24 -32.5q15 -5 31 4.5t33 43.5t25 88zM218 72q29 -11 52.5 -9.5t42 22t32 45.5t23 61t16 69t10 69t5 61t1.5 46q29 -6 46 -10.5t36 -10t27.5 -10t8.5 -9.5q-9 -199 -45 -384q63 63 110.5 170t51.5 202q-41 31 -50 87.5t24 115.5
l88 -51q-41 -107 5 -124q30 -11 69 19q26 20 29 41q17 -4 50 -29t21 -34l-92 -151q70 -67 103 -139.5t27 -163.5q-11 -97 -74 -160t-127 -51q-44 8 -62 55q-21 58 20 109t132 68q-1 37 -15 70.5t-33.5 55.5t-38.5 38t-32 24t-13 9q7 25 54.5 104.5t59.5 112.5
q-54 -38 -109 -24q-6 -103 -70 -220t-137 -175q0 -3 -2 -10t-2 -11q-41 -163 -129 -200q-57 -24 -103 13q-41 34 -31 84q13 67 116 102q16 6 33 10q19 73 30 164q-76 -134 -177 -124q-76 7 -126 65.5t-64.5 141.5t-0.5 179t57 176q35 65 79.5 108t89 60t86.5 17t79 -15
q90 -37 101 -111q10 -64 -42 -111q-64 -58 -167 -37q-17 4 -34 10q90 3 151 74q48 56 39 105q-7 41 -54 49q-58 10 -119.5 -45.5t-88.5 -120.5q-31 -72 -45.5 -168.5t3.5 -186.5t75 -117zM337 -74q-85 -27 -104 -78q-11 -31 8 -42q4 -2 8 -2q19 -2 43.5 27.5t44.5 94.5z" />
    <glyph glyph-name="H_z" unicode="H&#x7a;" horiz-adv-x="933" 
d="M807 -67q-59 -17 -87.5 -46.5t-27 -54t20.5 -33.5q9 -3 18.5 -3t20.5 9t21 24t19 42t15 62zM500 177q1 -61 13 -95t37 -41t50.5 -1.5t64.5 22.5l2 -19q-139 -77 -217 -27.5t-70 213.5q2 41 7 79q-48 8 -123 36q-14 -65 -67 -309q-5 -26 -50.5 -34t-88.5 2
q30 91 64.5 217.5t42.5 168.5q-65 35 -104.5 77.5t-51 83.5t-7.5 77t22 65q22 36 68 52.5t94 5.5t74 -48q34 -48 34.5 -130.5t-19.5 -178.5q51 -22 118 -38q10 70 25.5 156.5t28.5 150.5l13 63q42 -13 71.5 -30t40.5 -29.5t9 -19.5q-45 -168 -68 -317q114 -30 139 46
q-43 30 -53.5 87.5t23.5 118.5l88 -51q-41 -107 5 -124q31 -11 70 19q25 20 28 41q18 -6 50.5 -30t20.5 -34l-92 -151q70 -67 103 -139.5t27 -163.5q-11 -97 -74 -160t-127 -51q-44 8 -61 55q-22 57 19 109t132 69q-1 21 -6 41t-12.5 36.5t-17.5 31.5t-21 26.5t-21.5 21
t-20 17t-17 12.5t-11.5 7.5t-4 3.5q7 25 54.5 104.5t58.5 112.5q-62 -43 -119 -21q-47 -88 -167 -76q-8 -61 -7 -110zM174 431q21 117 5 179t-45 82t-61 4q-18 -9 -30 -27.5t-13 -46t11 -57.5t46 -66t87 -68z" />
    <glyph glyph-name="I_z" unicode="I&#x7a;" horiz-adv-x="719" 
d="M593 -66q-36 -10 -61 -25.5t-36 -31t-14.5 -31.5t1 -27.5t14.5 -17.5q9 -3 18.5 -4t21 8t22 24t19.5 42t15 63zM174 179q-1 -108 39 -137q29 -21 75 41t83 150t53 155q-35 34 -40.5 86.5t25.5 107.5l87 -51q-42 -109 6 -124q31 -10 69 19q26 20 29 41q16 -5 49 -29.5
t21 -33.5l-92 -151q141 -135 130 -303q-10 -97 -73.5 -160t-127.5 -51q-44 8 -61 55q-22 58 20 109q41 51 131 68q-1 37 -15 70.5t-33 55.5t-38 38t-32 24t-13 9q7 25 54.5 104.5t58.5 112.5q-64 -44 -122 -19q-16 -46 -41 -101t-59 -116.5t-73.5 -103.5t-73.5 -46
q-82 -9 -123 50.5t-32 181.5q2 27 9 73t12 78l5 32q-29 -2 -60 0q-3 0 -11 34t-10 35q52 -9 92 -12q43 170 89 244q57 67 119 39q49 -23 67 -87q23 -84 -30 -152q-42 -54 -125 -80q-38 -167 -38 -256zM222 481q41 11 70 33.5t42 48.5t17.5 51.5t-1 44t-17.5 24.5
q-14 8 -31.5 -6.5t-39.5 -64.5t-40 -131z" />
    <glyph glyph-name="J_z" unicode="J&#x7a;" horiz-adv-x="819" 
d="M146 -66q28 88 41 148q-64 -45 -121 -125t-29 -128q15 -27 48 0q36 30 61 105zM692 -56q-34 -9 -58 -23.5t-35.5 -29.5t-16 -30t-1.5 -27t11 -19t18 -8.5t21.5 5.5t23 22t21.5 43.5t16 66.5zM808 -40q-11 -97 -74 -160t-127 -51q-43 8 -61 54q-22 57 17 108q41 53 133 70
q-1 37 -15 70.5t-33 55.5t-38 38t-32 24t-13 9q7 25 54.5 104.5t59.5 112.5q-47 -30 -86 -28t-68 30q-25 -26 -68.5 -31t-87.5 10q-17 -96 -27 -150.5t-30.5 -140.5t-40 -138.5t-48.5 -102.5t-62 -72q-48 -29 -89 -19t-60 46q-19 45 -5.5 99t47.5 106.5t74 94.5t74 63
q10 32 22.5 95.5t19.5 105t8 53.5q-97 59 -108 160q-9 84 42 142q56 62 138 40q19 -5 38 -15q15 -8 25 -25.5t12.5 -42.5t3 -49.5t-3.5 -57t-7 -53t-8.5 -49.5t-6.5 -36q10 -11 57 -19.5t74 5.5q-25 35 -26 81t26 95l88 -51q-41 -107 5 -124q30 -11 69 19q26 20 29 41
q17 -4 50 -29t21 -34l-92 -151q141 -135 130 -303zM260 475q7 30 11.5 68t6.5 81t-8.5 70.5t-33.5 26.5q-22 -2 -38 -22t-21 -50t0 -63t26.5 -63.5t56.5 -47.5z" />
    <glyph glyph-name="M_z" unicode="M&#x7a;" horiz-adv-x="1245" 
d="M1103 252q70 -67 103 -139.5t28 -163.5q-11 -97 -74.5 -160t-127.5 -51q-44 8 -61 55q-22 57 19 109t132 69q-1 37 -15 70.5t-33 55t-38 38t-32 24.5t-13 9q7 26 54.5 105.5t59.5 111.5q-56 -39 -110 -24q-6 -38 -19.5 -86.5t-37.5 -104t-53 -97.5t-69 -62.5t-83 -4.5
q-100 38 -96 223q2 88 25 237q-8 -8 -38 -48q-102 -134 -148 -163q-42 -26 -57 14q-42 114 -81 280q-34 -222 -48 -291q34 -10 43.5 -25t5.5 -51q-29 16 -59 27q-21 -91 -43 -131q-49 -94 -123 -82q-55 8 -90 65q-40 64 -13 124q33 73 157 86q36 167 62 428q1 7 22.5 16
t47 14.5t47.5 2t24 -17.5q9 -72 35.5 -196t44.5 -169q5 -12 58.5 55.5t113 162.5t77.5 148q10 14 38.5 2.5t59 -36t28.5 -34.5q-8 -36 -19.5 -94.5t-29.5 -188.5t-15 -200q6 -136 48 -129q39 6 91 122q51 115 63 219q-44 30 -54.5 87.5t24.5 118.5l88 -51q-41 -107 5 -124
q30 -11 69 19q26 20 29 41q18 -6 50 -30t20 -34zM63 64q53 -8 95 166q-107 -4 -132 -69q-17 -42 9 -77q12 -17 28 -20zM1013 -191q18 -24 46 -7q42 27 59 132q-39 -11 -66 -29t-35.5 -35t-11 -34t7.5 -27z" />
    <glyph glyph-name="P_z" unicode="P&#x7a;" horiz-adv-x="1043" 
d="M917 -60q-74 -20 -98.5 -57.5t-7.5 -64.5q15 -24 43 -11q45 23 63 133zM185 159q19 51 39 149q-47 26 -37.5 60t56.5 42q10 59 19 123t13 99l4 35q1 7 14.5 14.5t47 13t77.5 3.5q-1 -3 -8.5 -51t-20.5 -123t-26 -141q10 -4 24 -14.5t23 -18.5l9 -8q45 16 77.5 51t47 77
t11.5 88t-23 85.5t-64.5 69t-106.5 37.5q-56 8 -105.5 -16t-76.5 -68t-34.5 -100t19.5 -113q-33 8 -52 27.5t-21 31.5q-11 53 9.5 103t62 86t99.5 59.5t118 28t121 -14t106 -60.5q54 -50 62.5 -126t-30 -149t-113.5 -116q-36 -20 -71 -28q47 -53 96 -68.5t88.5 3t70.5 59.5
t46 98q-40 31 -48 87t25 114l87 -50q-42 -109 6 -125q31 -10 69 19q26 20 29 41q16 -5 49 -29.5t21 -33.5l-92 -151q70 -67 103 -139.5t27 -163.5q-10 -97 -73.5 -160t-127.5 -51q-44 8 -61 55q-22 57 19 109t132 69q-1 37 -15 70.5t-33 55t-38 38t-32 24.5t-13 9
q6 24 53.5 104t59.5 113q-68 -48 -127 -17q-21 -65 -64.5 -112.5t-96 -67t-113 1.5t-108.5 87q-34 -2 -51 -1q-15 -70 -29 -116q-29 -99 -78 -139.5t-108.5 -24.5t-127.5 82q0 2 4.5 6t8.5 7l4 3q26 -23 40.5 -34t33 -17t32 4t29.5 35t33 70zM228 329q7 36 11 59
q-29 -10 -34.5 -28t23.5 -31zM367 326q-5 7 -5 8q-1 2 -3.5 5t-3.5 4q-2 -14 -4 -19q3 0 8 1t8 1z" />
    <glyph glyph-name="S_z" unicode="S&#x7a;" horiz-adv-x="761" 
d="M634 -64q-59 -17 -87.5 -46.5t-26.5 -54t20 -33.5q9 -3 18.5 -3t20.5 9.5t21.5 24t19.5 41.5t14 62zM298 740q-49 -2 -78 -28.5t-34.5 -65t2.5 -79t27 -73.5q18 -31 74.5 -95t76.5 -115l4 -10q38 7 68.5 33.5t45.5 67.5q-46 28 -57.5 87t23.5 122l88 -51q-41 -107 5 -124
q30 -11 69 19q26 20 29 41q17 -4 49.5 -29t20.5 -34l-91 -151q69 -67 102 -140t28 -163q-11 -97 -74.5 -160t-127.5 -51q-44 8 -61 55q-22 58 20 109q41 51 131 68q-1 37 -15 70.5t-33 55.5t-38 38t-32 24t-13 9q7 26 54.5 105.5t59.5 111.5q-55 -38 -108 -24
q-20 -45 -55.5 -74.5t-81.5 -33.5q29 -103 -24 -176t-161 -80q-96 -6 -154 56q-49 53 -33 113q18 70 116 93q51 12 117 9q-11 16 -40 45.5t-40 42.5q-35 43 -55.5 88.5t-27.5 98.5t11 103q20 62 73 93t122 29q81 -3 116 -68q31 -55 7 -109q-27 -61 -104 -59q-37 1 -81 19
q110 29 141 94q23 46 -7 75q-20 19 -54 18zM248 251q-134 -1 -180 -77q-32 -51 -7 -102q25 -49 79 -47q17 0 34 6q60 20 83 87.5t-9 132.5z" />
    <glyph glyph-name="T_z" unicode="T&#x7a;" horiz-adv-x="818" 
d="M692 -64q-35 -10 -59.5 -25t-36 -30.5t-15.5 -30.5t0 -27t13 -19q8 -4 18 -6t21.5 7t22 23.5t20.5 42.5t16 65zM355 180q3 -141 39 -132q38 10 91 153q35 95 50 179q-42 31 -51.5 87.5t24.5 116.5l87 -51q-42 -109 6 -124q31 -10 69 19q26 20 29 41q18 -6 50 -30t20 -34
l-92 -151q70 -67 103 -139.5t27 -163.5q-10 -97 -73.5 -160t-127.5 -51q-44 8 -61 55q-22 57 19 109t132 69q-1 37 -15 70.5t-33 55t-38 38t-32 24.5t-13 9q7 25 54.5 104.5t58.5 112.5q-57 -40 -111 -23q-17 -81 -52.5 -168.5t-89 -150t-102.5 -41.5q-46 19 -69 78.5
t-19 149.5q4 83 41.5 232.5t60.5 199.5q-12 4 -41.5 14t-42.5 14t-37.5 11t-38.5 8t-32.5 1t-33 -5t-27.5 -15q-29 -21 -39 -51.5t0.5 -61t35.5 -57.5t70 -44.5t101 -18.5q8 0 -7 -19q-31 -40 -82 -39q-7 1 -15 2q-51 9 -87.5 40.5t-49.5 73t-8.5 84.5t36 80t83.5 54
q61 20 140.5 11t147.5 -28.5t160 -24t178 24.5q-39 -75 -74 -90q-32 -14 -80.5 -13t-77 7t-83.5 19q-80 -326 -78 -461z" />
    <glyph glyph-name="U_z" unicode="U&#x7a;" horiz-adv-x="1031" 
d="M904 -64q-93 -26 -110 -82q-10 -34 13 -50q4 -4 9 -5q15 -4 31 6t32.5 44t24.5 87zM564 180q-1 -95 31 -129q15 -16 46 17.5t64 118t45 191.5q-43 29 -54 87t24 119l88 -51q-41 -107 5 -124q30 -11 69 19q26 20 29 41q18 -6 50.5 -30t20.5 -34l-92 -150
q70 -68 102.5 -140.5t27.5 -163.5q-11 -97 -74.5 -160t-127.5 -51q-43 8 -61 55q-21 58 19.5 109.5t131.5 68.5q-1 37 -15 70.5t-33 55.5t-38 38t-32 24t-13 9q7 25 54.5 104.5t59.5 112.5q-56 -39 -109 -24q-12 -67 -43.5 -150.5t-81.5 -150.5t-96 -61q-95 11 -114 132
q-34 -47 -74.5 -79.5t-79.5 -46t-74.5 -7t-61 32.5t-38.5 77.5t-8 122.5q5 70 29 199q-70 15 -104.5 62t-35.5 103q0 79 67 128q61 44 125 27q75 -21 92 -116q11 -60 -5 -144q42 15 50 17q5 1 3 -20q-6 -46 -54 -58q-5 -1 -12 -2q-36 -153 -37 -249q-1 -148 58 -145
q44 2 98 83q53 80 65 160q5 35 25.5 141.5t40.5 205.5t21 104q41 -13 70.5 -30.5t40 -30t8.5 -19.5q-10 -35 -25 -90.5t-41 -181.5t-26 -197zM142 494l9 -2q17 98 7 148t-30 64t-45 1q-23 -12 -37.5 -39.5t-15.5 -59.5t27 -63.5t85 -48.5z" />
    <glyph glyph-name="Y_z" unicode="Y&#x7a;" horiz-adv-x="914" 
d="M411 715q55 -11 87 -21t31 -19q-18 -346 -95 -689q59 18 100 61.5t61.5 104.5t28.5 114.5t11 118.5q-44 29 -55 87.5t24 119.5l87 -51q-42 -109 6 -124q31 -10 69 19q26 20 29 41q16 -5 49 -29.5t21 -33.5l-92 -151q70 -67 103 -139.5t27 -163.5q-10 -97 -73.5 -160
t-127.5 -51q-44 8 -61 55q-22 58 20 109q41 51 131 68q-1 37 -15 70.5t-33 55.5t-38 38t-32 24t-13 9q7 25 54.5 104.5t58.5 112.5q-54 -37 -106 -24q-6 -64 -20.5 -122.5t-41 -120.5t-73 -108.5t-108.5 -67.5l-2 -9q-43 -157 -130 -190q-57 -22 -100 17q-40 35 -29 85
q17 69 127 103l22 6q26 110 43 245q-6 -42 -27.5 -88.5t-58 -81.5t-75.5 -32q-49 4 -79 38t-39.5 78.5t-9 103t7 102.5t14.5 86.5t8 46.5q-58 41 -81 95t-14.5 98t37.5 70q32 29 83 38.5t91 -4t42 -44.5q1 -26 -4 -62.5t-16.5 -90.5t-15.5 -79q56 -17 75 -21
q-9 -20 -23 -30.5t-28.5 -10.5t-21.5 1.5t-12 3.5q-15 -57 -23.5 -132t-2.5 -140.5t32 -73.5q33 -10 62 25t49.5 99.5t37 141.5t26.5 153.5t15.5 132.5t5.5 83zM108 524q0 -1 2.5 11t6 30.5t7 36.5t6 31.5t2.5 14.5q11 50 0 69.5t-33 14.5t-43 -29q-20 -21 -23 -53.5t16 -68
t59 -57.5zM788 -56q-93 -26 -110 -81q-11 -34 13 -51q4 -3 8 -4q15 -4 31.5 6t33 43.5t24.5 86.5zM304 -69q-35 -11 -60 -27.5t-34.5 -32t-13 -30.5t4.5 -23q10 -8 25 -7.5t37.5 32.5t40.5 88z" />
    <glyph glyph-name=".notdef" horiz-adv-x="300" 
 />
    <glyph glyph-name=".null" horiz-adv-x="0" 
 />
    <glyph glyph-name="nonmarkingreturn" horiz-adv-x="333" 
 />
    <glyph glyph-name="space" unicode=" " horiz-adv-x="230" 
 />
    <glyph glyph-name="exclam" unicode="!" horiz-adv-x="237" 
d="M234 662q-5 -56 -65.5 -276.5t-74.5 -227.5q-6 -2 -15 -0.5t-19 3.5l-11 2q23 86 46.5 277t24.5 255q114 -16 114 -33zM74 87q-20 7 -41 -5t-29 -35t0.5 -43.5t29.5 -27.5t42 4.5t29 34.5t-1 44t-30 28z" />
    <glyph glyph-name="quotedbl" unicode="&#x22;" horiz-adv-x="95" 
d="M40 643l64 -13q-1 -2 -12.5 -33t-29 -73.5t-34.5 -75.5l-28 7q28 107 40 188zM128 643l64 -13q-1 -2 -12.5 -33t-29 -73.5t-34.5 -75.5l-28 7q28 107 40 188z" />
    <glyph glyph-name="numbersign" unicode="#" horiz-adv-x="599" 
d="M486 540q-35 -89 -66 -185q22 -1 66.5 -1.5t67.5 -0.5l-16 -41q-73 6 -130 9q-27 -88 -49 -166q95 -1 195 -3l-16 -41q-105 9 -188 12q-19 -71 -43 -168l-51 -10q6 18 26 81.5t30 97.5q-52 1 -161 -1q-17 -61 -44 -168l-50 -10q10 33 28.5 92.5t26.5 84.5q-14 0 -45 -1.5
t-49 -2.5l-18 43q84 -2 123 -2l51 165q-32 -1 -156 -5l-18 43q62 -2 184 -4q9 30 31 100.5t34 110.5l37 -29q-36 -95 -65 -182q18 0 51 -1t60 -1.5t51 -0.5q9 31 31 102.5t34 111.5zM160 158l162 -3l51 168q-56 2 -163 2q-25 -77 -50 -167z" />
    <glyph glyph-name="dollar" unicode="$" horiz-adv-x="423" 
d="M285 568h-4q-9 -37 -26 -124q81 27 93 71q9 33 -26 47q-16 7 -37 6zM216 433q3 19 10.5 61.5t11.5 65.5q-38 -13 -52 -44.5t-7 -65t28 -61.5l2 -2l7 43q-1 0 -3 0.5t-3 0.5q1 1 3 1t3 1zM251 421q-2 -11 -6.5 -34t-6.5 -34q9 -8 37 -32.5t44 -43.5t28 -42q40 -80 -6 -140
t-151 -67q-3 -20 -7.5 -57.5t-6.5 -52.5l-50 -14q7 34 22 124q-97 7 -133 74q-29 54 -1 103q30 54 106 47q22 -3 47 -11q-77 -12 -104 -72q-23 -52 4 -92q27 -38 84 -30q24 142 36 212q-66 53 -96 116t-5 126q17 41 59.5 63.5t97.5 24.5l15 92l40 -35q-9 -43 -13 -58
q70 -8 96.5 -56t-10.5 -86.5t-120 -24.5zM219 234q-12 -74 -25 -174q50 25 59 77.5t-34 96.5z" />
    <glyph glyph-name="uni0025" unicode="%" horiz-adv-x="490" 
d="M444 451q-83 -95 -207 -217t-194 -208l-23 36q29 37 146.5 150t187.5 209q-51 -17 -98 13q-10 -57 -52 -96.5t-105 -35.5q-43 3 -69 31.5t-28 67t10 77.5t44 68t74 34q29 3 41 -12q10 -12 -11 -17q-3 -1 -23.5 4t-32.5 0q-29 -9 -46 -43.5t-13 -77.5q4 -49 32.5 -81
t63.5 -30q34 3 55.5 39.5t16.5 85.5q-3 29 -13 48q4 17 14 24.5t21.5 2.5t17.5 -21q2 -4 5 -11t15.5 -21.5t26.5 -21.5t37.5 -3.5t49.5 23.5q8 12 24 38q19 31 37 14t8 -48q-4 -11 -12 -21zM375 242q78 -6 97.5 -78t-27 -139t-128.5 -61q-71 6 -92 73q-20 65 16 130
q41 73 116 75q9 1 18 0zM358 -14q35 2 56.5 38.5t16.5 85.5q-5 48 -33.5 80.5t-62.5 29.5q-35 -3 -56 -39.5t-16 -84.5q4 -49 32 -81t63 -29z" />
    <glyph glyph-name="ampersand" unicode="&#x26;" horiz-adv-x="644" 
d="M484 325q56 -18 66 -84q11 -74 -44 -143q-79 -97 -234 -98q-55 0 -118 14q-62 14 -101.5 50t-47.5 82t5 94t56 91t105 67q-33 28 -49 60.5t-13.5 62t17 58.5t41.5 49.5t59.5 34t72 13t79.5 -14.5q25 -9 43 -30.5t21 -44.5t-18 -42.5t-66 -23.5q42 50 36 90.5t-71 40.5
q-68 1 -107.5 -38.5t-12 -98t133.5 -102.5q-67 -5 -134 -51t-92.5 -110t23.5 -132q73 -91 188 -77q83 11 135 66q51 54 23 103q-36 61 -187 72q-2 0 -3 4t-1 10v7q46 3 96.5 18.5t95.5 40.5t76.5 59.5t42 72t-11 80.5t-78.5 82q119 -6 152 -73.5t-20.5 -145t-157.5 -113.5z
" />
    <glyph glyph-name="quotesingle" unicode="'" horiz-adv-x="79" 
d="M40 643l64 -13q-1 -2 -12.5 -33t-29 -73.5t-34.5 -75.5l-28 7q28 107 40 188z" />
    <glyph glyph-name="parenleft" unicode="(" horiz-adv-x="211" 
d="M160 -143q-6 -1 -10 0t-6.5 1.5t-4 2t-2 2.5l-1.5 3l-1 2q-69 94 -102 189t-33 172t22 151t55.5 128.5t74.5 101.5t72.5 73t55.5 41q1 1 6 -2l4 -4q-8 -8 -21.5 -23.5t-48.5 -65.5t-62.5 -103t-52.5 -133.5t-31.5 -160.5t14 -180t72.5 -195z" />
    <glyph glyph-name="parenright" unicode=")" horiz-adv-x="289" 
d="M131 724q8 1 13 -0.5t6.5 -3t3.5 -4.5l1 -2q69 -95 102 -189.5t33 -172t-22 -151t-55.5 -128.5t-74.5 -102t-72.5 -73t-55.5 -41q-1 -1 -5 3t-5 3q8 8 21.5 23.5t48.5 65.5t62.5 103t53 133.5t31.5 160.5t-14 180t-72 195z" />
    <glyph glyph-name="asterisk" unicode="*" horiz-adv-x="313" 
d="M359 657l8 -55q-92 -3 -154 -7q13 -19 40.5 -59t42.5 -62l-52 -26q-31 80 -52 109q-9 14 -22 27q-9 -7 -17.5 -14t-14 -12.5t-13 -14.5t-11.5 -13.5t-12 -16t-10 -15.5t-11.5 -19t-12.5 -19l-46 34q76 76 114 115q-98 41 -136 58l29 48q36 -26 48.5 -34.5t37.5 -21
t51 -20.5q14 42 12 133l59 -8q-19 -81 -31 -131q49 -3 153 24z" />
    <glyph glyph-name="plus" unicode="+" horiz-adv-x="493" 
d="M277 488q-26 -83 -41 -154q1 0 184 21l5 -58q-36 -1 -101.5 -2.5t-94.5 -1.5q-10 -54 -23 -171l-48 -13q12 63 36 183q-60 -1 -194 -5l21 43q90 -5 181 1q6 30 16.5 87.5t15.5 81.5z" />
    <glyph glyph-name="comma" unicode="," horiz-adv-x="121" 
d="M67 99q35 -14 28 -50.5t-28 -72t-33 -43.5q-4 -3 -3 9q0 5 2 18q6 38 -1 40q-19 6 -27 25t-1 39t26 30.5t37 4.5z" />
    <glyph glyph-name="hyphen" unicode="-" horiz-adv-x="306" 
d="M249 350l11 -55q-142 -5 -260 -10l13 42q84 -7 219 20q11 2 17 3z" />
    <glyph glyph-name="period" unicode="." horiz-adv-x="124" 
d="M67 101q19 -6 27 -25t1 -39q-8 -20 -26 -30.5t-37 -4.5t-27 24.5t-1 39.5q7 20 25.5 30t37.5 5z" />
    <glyph glyph-name="slash" unicode="/" horiz-adv-x="289" 
d="M385 696q-99 -179 -169 -326.5t-164 -368.5l-52 -1q173 358 356 741z" />
    <glyph glyph-name="zero" unicode="0" horiz-adv-x="515" 
d="M245 40q59 5 88.5 70t21.5 158q-9 94 -50.5 155.5t-100.5 56.5t-86.5 -68.5t-18.5 -157.5q9 -95 48.5 -157t97.5 -57zM274 521q113 -10 157 -114q40 -95 3 -209q-36 -116 -127 -168q-61 -35 -135 -29q-111 9 -153 113q-38 95 -1 211q37 117 127 168q59 34 129 28z" />
    <glyph glyph-name="one" unicode="1" horiz-adv-x="336" 
d="M133 471l-95 -113l-38 6l138 181q2 2 20 -3t39 -13.5t37.5 -18t14.5 -14.5q-18 -55 -47.5 -248t-35.5 -248q-35 9 -56.5 20.5t-27 18.5t-4.5 13q9 182 55 419z" />
    <glyph glyph-name="two" unicode="2" horiz-adv-x="515" 
d="M136 328q-4 1 -10 3t-21 10t-26 18t-18 27t-4 37q9 50 50 83t93 39t102 -4t82 -46t28 -87q-3 -46 -18.5 -81t-44 -61t-52.5 -42t-67 -40t-65 -38q170 -16 208 -36q34 -19 32 -22l-55 -88l-11 5.5t-30 14.5t-43 19t-49.5 19.5t-50.5 15.5t-46.5 7t-36.5 -5q-65 -28 -80 3
q-9 21 11 44q13 15 32 16q11 2 30 7t72 36t99 79q92 97 60 176q-21 50 -77 66q-58 15 -91 -20q-46 -48 -3 -155z" />
    <glyph glyph-name="three" unicode="3" horiz-adv-x="537" 
d="M75 169q-12 -16 -15 -43t6.5 -57t29.5 -55.5t58.5 -39t89.5 -7.5q45 6 77 33.5t39 62.5t-2.5 68t-48.5 53t-98 15q-12 -1 -14.5 20.5t1.5 43.5l3 22q123 27 147 107q16 56 -22 103q-28 34 -65 35q-51 2 -85 -47t-8 -115q-68 14 -68 64q-1 46 50 87q33 26 73 34q43 9 77 5
t64 -15.5t48 -31.5t29 -42.5t6.5 -49t-19.5 -51.5t-48 -48.5t-80 -41.5q113 -29 145 -111q28 -72 -23 -140q-60 -80 -187 -91q-30 -3 -61 -1q-60 3 -101.5 24t-56.5 50.5t-14.5 61t20.5 58.5t53 40z" />
    <glyph glyph-name="four" unicode="4" horiz-adv-x="470" 
d="M308 520l-249 -284q33 -7 102 -11t85 -7q2 9 31 138.5t31 163.5zM242 171q-157 0 -200 -5q-27 -4 -38 33t4 54l295 317q5 5 57.5 -11t49.5 -28q-47 -187 -69 -327q27 -7 50 -17l-5 -22q-1 0 -51 4q-21 -131 -34 -197q-39 11 -62.5 23.5t-28.5 21t-3 14.5q15 52 35 140z
" />
    <glyph glyph-name="five" unicode="5" horiz-adv-x="560" 
d="M464 543q11 -32 6.5 -56t-15.5 -37l-11 -14q-3 6 -10.5 14t-34.5 21.5t-61 12.5l-135 -10l-46 -146q5 1 14.5 2.5t37 3t53 -0.5t57 -11.5t55.5 -27t43 -50t24 -76.5q6 -53 -18.5 -99t-66.5 -76t-95 -46t-102.5 -14t-91 25t-58.5 66q-17 41 -4 72.5t30.5 48.5t27.5 19
q-9 -75 26 -140t97 -62q93 4 141 71q42 59 17 120q-30 74 -143 91q-53 8 -120 0l77 263q-44 41 -20 70q15 19 40 12q20 -5 22 -28q17 -3 82 7t117.5 7.5t64.5 -32.5z" />
    <glyph glyph-name="six" unicode="6" horiz-adv-x="537" 
d="M417 433q-6 23 -21 47t-40.5 46t-59 26t-75.5 -14q-74 -36 -110.5 -110t-34 -150t28 -144t65.5 -97q46 -29 84.5 -8.5t64 65.5t23.5 84q-1 39 -20 73.5t-47 51t-58.5 15t-60 -38.5t-45.5 -106q-2 75 28.5 125t73.5 65t89 4.5t74 -46.5q27 -35 30.5 -81t-15 -91t-50 -83.5
t-77 -62.5t-94.5 -25q-64 -1 -109.5 41.5t-55.5 112.5q-19 141 43.5 260.5t165.5 174.5q63 33 124 27.5t85 -46.5t-6 -115z" />
    <glyph glyph-name="seven" unicode="7" horiz-adv-x="426" 
d="M289 470q-5 -2 -58.5 3t-121 17t-97.5 25q-11 7 -11 23t14.5 39t37.5 41q249 -118 334 -54q25 23 47 6q17 -13 6 -28q-3 -4 -9 -7q-136 -84 -207 -269q11 -1 37.5 -3t46.5 -3.5t26 -1.5q0 -6 -11.5 -10.5t-33.5 -6.5t-37 -2.5t-38 -1.5q-28 -81 -48.5 -167t-17.5 -121
q-30 5 -52.5 16.5t-30.5 21.5t-7 15q16 80 88 237q-81 6 -124 6q-1 19 137 22q24 51 72 123t58 80z" />
    <glyph glyph-name="eight" unicode="8" horiz-adv-x="436" 
d="M270 335q52 52 50.5 103t-45.5 80t-92 3q-31 -17 -35.5 -39.5t12.5 -47t43.5 -55t57.5 -63t54 -70.5t33.5 -78.5t-3.5 -86.5q-32 -103 -142 -116q-59 -7 -104 4.5t-68.5 36.5t-29 60.5t8.5 72.5t49.5 75.5t88.5 68.5q-9 9 -22 24t-32 56.5t-15 77.5q6 50 45 84.5
t105 40.5q79 6 128.5 -46.5t15.5 -123.5q-12 -26 -38 -41t-45 -17zM167 261q-57 -40 -90 -92t-11 -102q28 -62 96 -68q60 -4 97 34q46 48 4 116q-7 12 -17 24q-23 28 -79 88z" />
    <glyph glyph-name="nine" unicode="9" horiz-adv-x="526" 
d="M26 122q3 -23 15.5 -48.5t36 -50t56 -32t76.5 5.5q63 23 104 73t55 109.5t12.5 121t-20.5 112.5t-48 77q-42 34 -82.5 17.5t-70.5 -58.5t-32 -81q-2 -27 5.5 -54.5t21.5 -48t33 -34.5t41.5 -15t44.5 10t44.5 42.5t39.5 79.5q-6 -75 -41.5 -121.5t-80.5 -56.5t-89.5 5.5
t-67.5 53.5q-21 40 -21.5 84.5t23.5 88.5t58.5 78t83 53.5t97.5 15.5q63 -6 104 -53.5t43 -117.5q5 -142 -70 -254.5t-183 -155.5q-66 -26 -126 -14.5t-79.5 55t17.5 113.5z" />
    <glyph glyph-name="colon" unicode=":" horiz-adv-x="158" 
d="M67 267q19 -6 26.5 -24.5t0.5 -39.5q-8 -20 -26 -30.5t-37 -4.5t-27 25t0 39t26 30.5t37 4.5zM67 442q19 -6 27 -25t0 -39t-26 -30.5t-37 -4.5t-26.5 24.5t-0.5 39.5q8 20 26 30.5t37 4.5z" />
    <glyph glyph-name="semicolon" unicode=";" horiz-adv-x="169" 
d="M69 267q35 -14 28 -50.5t-28.5 -72t-33.5 -43.5q-4 -3 -3 9q0 5 2 18q6 38 -1 40q-19 6 -27 25t0 39t26 30.5t37 4.5zM67 442q19 -6 27 -25t0 -39t-26 -30.5t-37 -4.5t-26.5 24.5t-0.5 39.5q8 20 26 30.5t37 4.5z" />
    <glyph glyph-name="less" unicode="&#x3c;" horiz-adv-x="317" 
d="M0 316q9 4 32 14t30.5 13.5t26.5 12t27 13t24 12.5t25 14t22.5 14t25 17t24.5 19v-54q-62 -37 -150 -92q128 -64 165 -82l7 -53q-40 26 -83 46t-71.5 30t-99.5 33z" />
    <glyph glyph-name="equal" unicode="=" horiz-adv-x="398" 
d="M316 285l14 -55q-252 -7 -330 -10l16 43q49 2 94 5t104 8.5t102 8.5zM336 389l13 -55q-173 -5 -319 -10l15 42q62 3 159.5 11.5t131.5 11.5z" />
    <glyph glyph-name="greater" unicode="&#x3e;" horiz-adv-x="310" 
d="M259 316l-5 -43q-71 -23 -99.5 -33t-71.5 -30t-83 -46l7 53q25 12 165 82q-88 55 -150 92v54q14 -11 28.5 -21.5t25 -17.5t29 -17t25.5 -14t30 -14.5t28.5 -13.5t35 -15.5t35.5 -15.5z" />
    <glyph glyph-name="question" unicode="?" horiz-adv-x="434" 
d="M179 342q84 39 117.5 89.5t25.5 100.5q-15 88 -89 105q-61 14 -116 -24q-53 -37 -43 -87q9 -42 67 -77q-107 -17 -134 39q-21 46 21 104q53 71 153 90q49 9 101 2q58 -8 96.5 -36t48 -68.5t-4.5 -85t-64 -90t-128 -79.5q-43 -19 -67 -44.5t-28 -49t1 -45.5t15.5 -36
t19.5 -17q-64 -12 -98 28.5t-3 93.5q29 51 109 87zM111 87q21 -7 29.5 -28t0.5 -44t-28.5 -34.5t-41.5 -4.5t-30 28t-1 43q8 23 29 35t42 5z" />
    <glyph glyph-name="at" unicode="@" horiz-adv-x="764" 
d="M375 399q-32 -12 -52 -62.5t-19.5 -99.5t20.5 -58q41 -18 68 51q26 66 18 129q-6 45 -29 41q-3 0 -6 -1zM616 153q-37 -29 -74 -36t-69.5 12.5t-50.5 65.5q-50 -100 -135 -92q-30 3 -49.5 33t-22.5 74t5.5 90t34.5 86t63 58q69 33 107 -14l3 -3q1 5 8 28q33 -10 52 -17.5
t25 -12.5t4 -10q-50 -199 1 -252q30 -32 78 6q3 3 7 6q43 38 60.5 91t11.5 106t-32.5 104t-66.5 88.5t-96 56.5t-117 10q-80 -12 -146 -73t-101.5 -147.5t-34.5 -177.5q1 -79 32 -146t79.5 -105t104.5 -50.5t114.5 16t101.5 95.5q-9 -80 -96 -126q-91 -49 -197 -27
q-126 26 -183 140q-47 95 -33 238q13 126 108 238t221 153q67 22 122 18t101.5 -24.5t79 -57.5t54 -80.5t27.5 -94.5t-1.5 -98.5t-33 -92t-66.5 -76.5z" />
    <glyph glyph-name="A" unicode="A" horiz-adv-x="714" 
d="M574 224q0 -43 2.5 -71.5t12.5 -57.5t27.5 -41.5t49.5 -11.5t77 21l1 -2v-5.5v-6.5v-7.5v-6.5v-4q-70 -39 -124.5 -46.5t-86.5 13.5t-52 61t-22.5 97t2.5 121q-41 18 -89 23q-21 -49 -34.5 -78t-34.5 -69.5t-40 -64t-43.5 -46.5t-52.5 -33t-60 -8q-50 3 -83 58
q-40 67 -15 138q38 104 198 137q53 11 118 13q14 32 35.5 81t35.5 81t32.5 72.5t32.5 67t29.5 51.5t29.5 38.5t27 16.5q25 6 60.5 -26.5t31.5 -51.5q-47 -200 -61 -360q11 -4 21.5 -10.5t23.5 -20t11 -36.5t-23 -50q-7 5 -20.5 13.5t-16.5 10.5zM309 307q-50 0 -92 -5.5
t-71.5 -16t-51.5 -24t-34.5 -29t-18 -31.5t-4.5 -31t8 -28q11 -20 31 -31t48.5 -7.5t58.5 22.5t64 65.5t62 115.5zM388 347l80 -7q17 124 54 309q-103 -209 -134 -302z" />
    <glyph glyph-name="B" unicode="B" horiz-adv-x="724" 
d="M426 574q-1 -4 -16 -51t-28 -90t-28 -106t-21 -112q59 -3 88 6q8 2 4 -8q-9 -25 -36 -47q-10 -9 -17 -10q-13 -2 -44 6q-3 -76 22.5 -111.5t87.5 -15.5q36 12 69 37.5t55.5 55.5t28 60.5t-8 53.5t-59 33t-118.5 0q-18 8 -19.5 30t9.5 36q80 109 103 183t-11.5 110.5
t-125.5 36.5q-66 0 -124 -19t-96 -50.5t-63.5 -71t-28.5 -82t10.5 -82.5t53 -74.5t98.5 -54.5q6 51 8 65q13 75 45.5 176t61.5 160q41 -11 66 -25t30.5 -23t3.5 -16zM210 204q-11 5 -19 10q-80 38 -127 94.5t-58.5 115t3.5 119t52.5 108t96 80.5t126.5 39q145 12 218.5 -36
t63.5 -143t-102 -219q19 4 50.5 1.5t69 -14t63 -35t32.5 -63t-23 -98.5q-22 -44 -62 -80.5t-87.5 -58.5t-97.5 -24.5t-92 15t-71.5 66t-35.5 123.5z" />
    <glyph glyph-name="C" unicode="C" horiz-adv-x="511" 
d="M527 119l14 -27q-208 -146 -362 -88q-106 39 -153 160q-50 131 -6 279q50 169 199 263q3 2 5 3q73 44 145 41q95 -4 140 -74q39 -61 14 -124q-29 -71 -121 -85q-57 -8 -130 10q142 18 195 95q35 52 12 94q-19 35 -66 34q-98 -1 -174 -126q-72 -118 -82 -267
q-11 -157 59 -226q96 -96 304 33q3 3 7 5z" />
    <glyph glyph-name="D" unicode="D" horiz-adv-x="711" 
d="M416 572q-80 -245 -94 -360q54 -4 89 5q8 2 4 -8q-9 -24 -35 -46q-10 -9 -17 -10q-14 -2 -46 6q-2 -76 23 -111t87 -14q45 15 79.5 70t50.5 126.5t10 151t-33 144.5t-88 105t-147 35q-68 -4 -125.5 -32t-90.5 -71t-44 -93t12.5 -104.5t81.5 -98.5q31 -20 67 -32
q7 58 8 65q13 74 46 175t61 161q41 -11 66 -25t31 -23t4 -16zM199 202q-13 5 -27 14q-76 39 -119 96t-50 115.5t10.5 118.5t55.5 107t91.5 78.5t112.5 36.5q94 7 170 -18t124 -73t77.5 -112.5t35.5 -134.5t-8 -140t-46 -129t-85 -102t-120 -57q-102 -22 -158.5 36t-63.5 164
z" />
    <glyph glyph-name="E" unicode="E" horiz-adv-x="523" 
d="M408 256q13 1 32 -9.5t33.5 -31.5t17.5 -48t-20 -64t-74 -74q-47 -35 -128 -41t-129 11q-71 19 -107 78.5t-33 128t45 136t114 102.5q-36 32 -53 69.5t-14.5 72t18 68t44.5 57t64.5 39.5t78 15t85.5 -17q27 -11 46 -36t22.5 -51.5t-19 -48.5t-71.5 -27q29 39 37.5 72.5
t-10 56t-65.5 22.5q-42 0 -74 -20t-43.5 -54.5t-6 -75t39.5 -86t93 -83.5q-48 -3 -94 -36t-73.5 -82t-39 -101.5t8.5 -102t71 -76.5q53 -29 110.5 5.5t86 103t7.5 128.5z" />
    <glyph glyph-name="F" unicode="F" horiz-adv-x="540" 
d="M431 642q0 -1 -4 -43.5t-11 -104t-15 -117.5q28 -1 71.5 -3.5t54.5 -2.5q1 -18 -35 -26t-97 -9q-17 -111 -32 -163q-43 -157 -132.5 -173.5t-196.5 108.5q0 1 1.5 4t3.5 6.5l4 7t3 5.5l2 2q27 -26 43 -39.5t38 -23.5t37.5 -3t33.5 32t34 71q21 60 41 169q-92 4 -103 4
q-1 17 28.5 25t81.5 10q29 175 39 291q-112 38 -149 42q-57 8 -92 -18q-28 -21 -37.5 -51.5t2 -61t37 -57.5t71 -44.5t101.5 -18.5q8 0 -7 -19q-32 -41 -82 -38q-7 0 -13 1q-51 9 -88.5 40.5t-51.5 73t-10.5 84t34 79.5t81.5 54q61 19 112 14t116.5 -17.5t123 -26t132 -11.5
t143.5 25q-35 -74 -72 -91q-24 -11 -53 -13.5t-68.5 3.5t-57.5 9.5t-62 14.5z" />
    <glyph glyph-name="G" unicode="G" horiz-adv-x="557" 
d="M218 83q29 -11 52.5 -9.5t42 22t32 45.5t23 61.5t16 69t10 69t5 61t1.5 45.5q29 -6 46 -10.5t36 -10t27.5 -10t8.5 -9.5q-14 -247 -58 -446q-41 -163 -129 -200q-57 -24 -103 13q-41 34 -31 84q13 67 114 102q17 5 35 10q19 73 30 164q-77 -132 -177 -124q-76 7 -126 66
t-64.5 141.5t-0.5 179t57 176.5q35 65 79.5 108t89 59.5t86.5 17t79 -15.5q90 -37 101 -111q10 -64 -42 -111q-65 -58 -168 -35q-16 3 -33 9q91 3 151 74q48 56 39 105q-7 40 -54 48q-58 10 -119.5 -45.5t-88.5 -119.5q-31 -73 -45.5 -169t3.5 -186.5t75 -117.5zM337 -63
q-29 -9 -51 -22t-33.5 -26t-17.5 -26t-5.5 -23t5.5 -17t13 -8t19 5t22.5 19.5t24 38.5t23.5 59z" />
    <glyph glyph-name="H" unicode="H" horiz-adv-x="638" 
d="M500 175q1 -50 10.5 -80t22 -42.5t36.5 -11.5t43.5 8t52.5 22q3 0 3 -31q-139 -77 -217.5 -27.5t-70.5 214.5q4 48 8 78q-45 8 -123 36q-32 -144 -67 -309q-5 -27 -50.5 -34.5t-88.5 3.5q29 89 63.5 215.5t42.5 169.5q-64 35 -103.5 77.5t-51 83.5t-8 77t21.5 65
q35 57 115 61.5t122 -51.5q24 -33 30.5 -84t2 -98.5t-18.5 -126.5q55 -23 119 -38q10 70 25.5 157t28 149.5t12.5 64.5q42 -13 72 -30.5t40.5 -30t8.5 -19.5q-43 -160 -66 -308q15 -1 32 1q6 -27 -2 -40.5t-19.5 -12t-17.5 0.5q-8 -59 -8 -109zM175 428q20 113 3.5 184.5
t-49 80t-62.5 -2.5q-22 -14 -31 -41t-3 -62t42.5 -77.5t99.5 -81.5z" />
    <glyph glyph-name="I" unicode="I" horiz-adv-x="317" 
d="M174 171q0 -36 4 -61.5t10.5 -41t19 -22.5t23.5 -9t30.5 3.5t33.5 10.5t38 16q1 1 3 -13t2 -18q-140 -77 -217.5 -27.5t-65.5 214.5q2 27 9 73t12 78l5 32q-29 -2 -60 0q-3 0 -11 34t-10 35q40 -8 92 -12q43 170 89 244q57 67 119 38q49 -23 67 -86q24 -84 -30 -152
q-42 -54 -125 -80q-38 -169 -38 -256zM222 473q45 12 76.5 39.5t42.5 56.5t11.5 55.5t-10.5 41.5q-19 27 -48 -7q-41 -46 -72 -186z" />
    <glyph glyph-name="J" unicode="J" horiz-adv-x="412" 
d="M146 -71q29 93 41 149q-64 -45 -121 -125.5t-29 -128.5q16 -27 49 2q35 31 60 103zM369 371q-17 -96 -27 -150.5t-30.5 -140.5t-40 -138.5t-48.5 -102.5t-62 -72q-48 -29 -88.5 -19t-60.5 46q-19 45 -5.5 99t47.5 106.5t74 94.5t74 63q10 32 22.5 95.5t19.5 105t8 53.5
q-97 59 -108 161q-9 83 42 141q56 63 138 40q19 -5 38 -15q21 -11 31.5 -37.5t9.5 -69.5t-3.5 -70.5t-11.5 -76.5t-9 -51q30 -12 63 -19q-6 -11 -12 -19.5t-10.5 -14t-10 -8.5t-8 -4.5t-8.5 -1.5t-7.5 0.5t-8.5 2.5t-8 2zM260 470q7 32 11.5 68.5t6 80t-8.5 71t-33 26.5
q-22 -1 -38 -21t-21 -50.5t0 -63t26.5 -63.5t56.5 -48z" />
    <glyph glyph-name="K" unicode="K" horiz-adv-x="635" 
d="M147 173q10 30 22 83q-81 -41 -110 -90t-13 -78q13 -25 41 -9q36 19 60 94zM304 314q-29 -143 -52 -199q-44 -103 -112 -116q-39 -7 -79 11t-53 54q-43 124 171 239q16 79 28.5 183t17.5 169l5 65q1 7 14.5 16t47 15.5t76.5 5.5q-27 -228 -54 -388q87 82 125.5 154
t82.5 220q1 3 17 4.5t40 2.5t35 3q-15 -86 -43 -154.5t-66.5 -117t-75.5 -81.5t-85 -63q37 -14 70.5 -44.5t61.5 -67t55 -73.5t62 -73t72 -56q-4 -1 -11 -3.5t-26 -7t-35.5 -7t-35 -2t-28.5 6.5q-39 21 -74 78t-73.5 124.5t-77.5 101.5z" />
    <glyph glyph-name="L" unicode="L" horiz-adv-x="416" 
d="M649 -19q-24 -55 -44 -74t-61 -23q-46 -3 -99.5 12t-91.5 35t-72 38t-45 19q-47 -110 -125 -122q-55 -8 -90 31q-35 38 -12 79q28 50 132 64q41 143 66.5 359t27.5 336q48 -10 87 -26.5t39 -26.5q-7 -124 -42.5 -334t-69.5 -324q107 -47 204.5 -55.5t195.5 12.5zM129 -5
q-26 -3 -46.5 -10t-31.5 -15t-18 -17.5t-6.5 -17.5t2.5 -14q4 -6 11 -8t17 1t21.5 11.5t25 26.5t25.5 43z" />
    <glyph glyph-name="M" unicode="M" horiz-adv-x="902" 
d="M280 212zM762 168q2 -47 11.5 -74.5t21.5 -38.5t34 -9t39.5 8.5t47.5 20.5q10 5 15 7q1 -1 0.5 -7.5t-1.5 -16.5t-1 -11q-137 -76 -216.5 -27t-75.5 213q2 86 25 237q-8 -8 -37 -47q-103 -137 -150 -165q-42 -25 -56 14q-43 117 -81 280q-35 -227 -48 -291
q34 -11 43.5 -25t5.5 -50q-32 16 -59 26q-22 -92 -43 -131q-49 -93 -123 -82q-55 9 -91 66q-39 65 -12 124q34 72 157 85q36 168 62 428q1 7 22.5 16t47 14.5t47.5 2.5t24 -17q9 -72 35.5 -196.5t44.5 -169.5q5 -12 58.5 55.5t113 162.5t77.5 148q10 14 38.5 2.5t59 -36
t28.5 -34.5q-8 -36 -19.5 -94.5t-29.5 -188t-15 -199.5zM158 233q-108 -4 -132 -69q-16 -42 9 -77q12 -16 28 -19q53 -9 95 165z" />
    <glyph glyph-name="N" unicode="N" horiz-adv-x="664" 
d="M215 685q1 34 36 52t70 12t35 -30q0 -309 141 -593q4 294 37 466q15 77 50 116t80 38t95.5 -30t100.5 -83q-2 -6 -4 -6q-31 29 -59.5 44.5t-58.5 17t-55 -27.5t-41 -88q-16 -63 -28 -200.5t-15.5 -225t-3.5 -106.5q3 -10 -17.5 -24.5t-46 -18t-48.5 12.5
q-28 25 -86.5 198t-76.5 252q-10 -98 -30 -199q34 -11 43.5 -25.5t5.5 -50.5q-34 18 -59 27q-20 -85 -43 -132q-50 -95 -125 -81q-55 9 -89 66q-39 65 -11 124q34 72 157 85q37 175 46 410zM116 107q25 48 44 127q-107 -3 -133 -67q-18 -43 7 -79q23 -32 53 -15q16 10 29 34
z" />
    <glyph glyph-name="O" unicode="O" horiz-adv-x="596" 
d="M98 584q12 80 77.5 133t156.5 44q134 -14 199 -143q60 -121 35 -279q-27 -162 -132 -258q-106 -98 -258 -86q-64 5 -107.5 62.5t-56.5 138t-9 163t30 146.5t65 79zM377 424q-35 -54 -104.5 -70.5t-119.5 27.5q-28 28 -40 64q-24 -100 -19 -189.5t46 -152t104 -62.5
q58 0 108 69t73.5 168t28 198.5t-26.5 170.5t-91 74q-77 4 -128 -74q-47 -71 -39 -148q9 -79 76 -95q52 -13 132 20z" />
    <glyph glyph-name="P" unicode="P" horiz-adv-x="626" 
d="M185 158q22 58 39 148q-47 27 -37.5 61t56.5 42q10 58 19 122t13 99l4 35q1 7 14.5 14.5t47 13t77.5 3.5q-13 -100 -55 -314q10 -4 24.5 -14.5t23.5 -19.5l9 -8q45 16 77 51t47 77t12 88t-23.5 85.5t-64.5 69t-106 38.5q-56 8 -105.5 -16t-76.5 -68t-35 -100t20 -113
q-34 8 -52.5 27t-21.5 32q-13 63 18 121.5t91 94.5t131.5 53t147 0t129.5 -67q54 -51 62 -126.5t-30.5 -148.5t-112.5 -116q-76 -44 -184 -41q-19 -87 -28 -116q-29 -98 -78 -139t-109 -25t-128 82q0 2 4 7t8 8l4 4q26 -24 40.5 -34.5t33.5 -17t32.5 3t29.5 34.5t33 70z
M229 327q1 10 5 29.5t5 29.5q-28 -9 -33.5 -27.5t23.5 -31.5zM367 325q-1 1 -2.5 3.5t-2.5 3.5q-2 4 -6 10q-2 -8 -4 -20z" />
    <glyph glyph-name="Q" unicode="Q" horiz-adv-x="591" 
d="M97 584q12 80 77.5 133t156.5 44q63 -7 112.5 -41t78 -85.5t41 -116t8 -131.5t-27.5 -132.5t-60.5 -119t-95 -90.5t-127.5 -47q3 -2 22 -13.5t24 -14.5t23.5 -13t26 -12.5t25.5 -9t29.5 -6.5t29.5 -1.5t33 2t34 9.5t38 15q-42 -48 -81 -70.5t-73 -21.5t-65.5 14t-64 33.5
t-63.5 39t-68.5 29.5t-74.5 6q24 24 50 37q-71 51 -94.5 180t3 244.5t83.5 138.5zM376 424q-35 -54 -104.5 -70.5t-119.5 27.5q-28 28 -40 64q-24 -100 -19 -189.5t46 -152t104 -62.5q58 0 108 69t73.5 168t28 198.5t-26.5 170.5t-91 74q-77 4 -128 -74q-47 -71 -39 -148
q9 -79 76 -95q52 -13 132 20z" />
    <glyph glyph-name="R" unicode="R" horiz-adv-x="722" 
d="M183 154q17 50 34 150q-48 26 -40 60t55 43q8 59 15 123.5t10 99.5l3 35q0 7 13.5 15t47 14t76.5 4q-24 -192 -44 -317q10 -4 24.5 -14.5t24.5 -18.5l9 -9q44 17 75.5 52t45 77.5t8.5 89t-26.5 86t-67 69t-107.5 37.5q-56 7 -106 -17.5t-77 -68.5t-32 -101t28 -114
q-34 8 -53 27.5t-22 31.5q-13 53 6 103.5t59.5 87t97.5 60.5t117 29.5t121.5 -12.5t107.5 -60q64 -58 69.5 -146.5t-50.5 -168t-155 -110.5q15 -17 44.5 -54t50 -60t52.5 -53t70.5 -54.5t84.5 -43.5q-33 -14 -63 -18.5t-56.5 1t-47.5 13.5t-42.5 28.5t-36.5 36t-34 45
t-29.5 47.5t-29.5 51.5t-28 49.5q-24 -1 -49 0q-14 -80 -24 -118q-26 -99 -73.5 -140.5t-108 -26t-130.5 81.5q0 2 4.5 7.5t8.5 9.5l4 4q28 -24 42 -34.5t33.5 -17.5t32 3t28 35t30.5 70zM220 325q3 19 9 59q-28 -10 -33 -28.5t24 -30.5zM359 323q-5 7 -5 8q-3 3 -7 9
q-1 -3 -2 -9.5t-1 -9.5q5 0 15 2z" />
    <glyph glyph-name="S" unicode="S" 
d="M307 730q-65 -2 -93.5 -46.5t-22.5 -98.5t32 -100q19 -32 75.5 -96t75.5 -114q44 -113 -7.5 -195.5t-167.5 -90.5q-115 -7 -169 76q-42 66 -24 140q16 70 73 88q45 14 102 -11q-78 -15 -110 -91q-28 -66 -3 -125q26 -59 89 -51q12 2 25 6q48 16 74 64t17 106t-54 100
q-79 74 -117 165t-9 183q20 62 74 92.5t121 28.5q81 -3 116 -68q31 -55 7 -109q-27 -61 -104 -59q-37 1 -81 19q110 29 142 94q23 46 -8 76q-19 18 -53 17z" />
    <glyph glyph-name="T" unicode="T" horiz-adv-x="503" 
d="M355 179q1 -50 11 -79.5t23 -41.5t38 -10t44 9t53 22v-8.5t-0.5 -16t-0.5 -10.5q-139 -77 -217.5 -27.5t-70.5 214.5q4 82 41.5 232t59.5 199q-11 4 -41 14.5t-42.5 14l-37.5 10.5t-38.5 8t-32.5 1t-33.5 -5t-27.5 -15q-29 -21 -39 -51.5t0.5 -61t35.5 -57.5t70.5 -44.5
t101.5 -18.5q8 0 -7 -18q-33 -41 -83 -39q-7 0 -14 1q-63 11 -102.5 56.5t-45.5 98.5t25.5 104.5t95.5 72.5q61 20 140.5 11t147.5 -28.5t160 -24t178 24.5q-36 -74 -74 -90q-32 -14 -80 -13t-77.5 7t-82.5 19q-81 -306 -78 -460z" />
    <glyph glyph-name="U" unicode="U" horiz-adv-x="699" 
d="M564 176q0 -49 9.5 -79.5t24 -42t38 -10t43.5 9.5t48 23q2 0 2 -36q-117 -62 -191 -39.5t-90 126.5q-52 -71 -115 -105.5t-115 -27.5t-83.5 67.5t-23.5 165.5q5 73 30 200q-71 14 -105.5 61t-34.5 103q0 80 66 128q61 44 125 27q74 -19 92 -113q12 -61 -4 -147
q42 15 50 17q5 1 2 -20q-6 -47 -56 -57l-10 -2q-36 -164 -36 -249q-1 -150 57 -146q45 2 98 83q53 80 65 160q5 35 26 141.5t40.5 206t20.5 103.5q42 -13 71.5 -30t39.5 -30t8 -20q-10 -35 -25 -90.5t-41 -181t-26 -196.5zM143 490l8 -3q29 176 -22 212q-22 16 -50 -2
q-22 -14 -35.5 -41t-13 -58t29 -61.5t83.5 -46.5z" />
    <glyph glyph-name="V" unicode="V" horiz-adv-x="326" 
d="M180 146q28 101 110 333.5t114 274.5q38 10 64 -11q-50 -49 -144.5 -311t-126.5 -423q-7 -15 -43 -7.5t-43 28.5q-29 90 -67.5 319t-43.5 403q19 0 37 0.5t35 -3t29.5 -9.5t20.5 -19.5t8 -33.5v-53.5t0.5 -67.5t3.5 -82t7.5 -97t14.5 -112.5t24 -128.5z" />
    <glyph glyph-name="W" unicode="W" horiz-adv-x="514" 
d="M361 143q20 79 112.5 319t124.5 287q43 10 69 -12q-53 -55 -158.5 -318t-131.5 -413q-7 -15 -43 -8t-43 29q-12 34 -14.5 129t1 183.5t9.5 169.5q-34 -78 -76 -244t-61 -278q-7 -15 -43 -7.5t-44 29.5q-29 86 -52 363t0 387q10 -3 33 -7.5t33 -7.5t23 -10.5t17.5 -19
t2.5 -29.5q-5 -59 4.5 -303.5t9.5 -272.5q34 139 90 338.5t87 253.5q44 -11 70.5 -21t35.5 -17.5t7 -14.5q-14 -45 -38 -232t-25 -273z" />
    <glyph glyph-name="X" unicode="X" horiz-adv-x="450" 
d="M426 71l-30 -33q-40 -38 -55 -19q-46 61 -105 195q-2 -2 -54 -61.5t-89.5 -96t-68.5 -56.5l-24 30q35 19 89 77t91 107l36 48q-105 257 -139 465q144 43 148 6q16 -161 73 -346q125 207 112 338q5 2 13 4.5t29 6.5t29 -2q11 -40 -32.5 -161.5t-128.5 -250.5
q46 -128 106 -251z" />
    <glyph glyph-name="Y" unicode="Y" horiz-adv-x="531" 
d="M215 85q33 -10 62.5 25.5t50 99.5t37 141t26.5 153.5t15 133t5 82.5q119 -24 119 -40q-21 -380 -106 -732q-43 -155 -129 -189q-57 -23 -101 15q-41 35 -30 85q15 68 121 102l28 8q21 80 44 245q-6 -42 -28 -88.5t-58.5 -81.5t-75.5 -32q-49 4 -79 38t-39.5 78.5
t-9 103.5t7 102t15 87t8.5 46q-58 41 -81 95t-15 98t37 70q32 29 83.5 38.5t91 -4t41.5 -44.5q2 -26 -3.5 -63t-16.5 -89.5t-15 -79.5q56 -17 75 -21q-8 -16 -19.5 -26t-21 -12.5t-20.5 -2t-15.5 2t-8.5 2.5q-15 -56 -23.5 -131.5t-2.5 -141t31 -73.5zM109 529q0 -1 2 11.5
t5.5 30.5l7 36t6 31.5t2.5 14.5q11 50 0.5 69t-32.5 14.5t-44 -28.5q-19 -21 -22.5 -53.5t15.5 -68t60 -57.5zM304 -64q-36 -11 -61 -28t-34 -33t-12 -31t6 -23q5 -6 13 -7t19 5t22.5 19.5t24 38.5t22.5 59z" />
    <glyph glyph-name="Z" unicode="Z" horiz-adv-x="574" 
d="M561 98q-26 -52 -45.5 -74.5t-43.5 -23.5q-49 -3 -102.5 14t-93.5 36t-49 20q-64 -98 -142 -94q-51 3 -75 43q-25 42 9 78q36 39 128 43q125 208 265 512q-42 -42 -103 -57t-114 -2.5t-87 55.5t-25 107q67 -43 127.5 -60t100.5 -11.5t69.5 17.5t47.5 24t22 11
q23 -6 52 -20t47 -28t15 -19q-2 -3 -20.5 -38.5t-39.5 -74.5t-54 -98.5t-64 -114.5t-67.5 -118t-67.5 -113q62 -20 140 -25t170 11zM120 100q-38 -1 -62 -10t-31 -19.5t-3 -20.5q4 -11 18.5 -13t36.5 13.5t41 49.5z" />
    <glyph glyph-name="bracketleft" unicode="[" horiz-adv-x="263" 
d="M355 682q-10 -1 -61.5 3t-85 5.5t-44.5 -5.5q-59 -288 -110 -736q-1 -6 46 -15t95 -15t54 -5l-3 -57q-8 2 -38 6.5t-64 9t-67.5 10.5t-55 12t-20.5 12q52 325 130 833l227 14z" />
    <glyph glyph-name="backslash" unicode="\" horiz-adv-x="264" 
d="M0 739l35 41q140 -437 252 -780l-51 7q-67 240 -115 392.5t-121 339.5z" />
    <glyph glyph-name="bracketright" unicode="]" horiz-adv-x="355" 
d="M3 -71q10 1 62 -3t85.5 -5.5t44.5 5.5q57 279 109 736q1 6 -43.5 15t-90.5 15t-52 5l3 57q9 -2 38 -6.5t61.5 -9.5t64.5 -10.5t52.5 -11.5t19.5 -12q-117 -756 -129 -833l-228 -14z" />
    <glyph glyph-name="asciicircum" unicode="^" horiz-adv-x="263" 
d="M158 689q30 -71 61.5 -121.5t82.5 -112.5l-51 -7q-42 69 -100 160q-17 -28 -46.5 -74.5t-52.5 -84.5l-52 4q39 48 59 75t46 70t46 90z" />
    <glyph glyph-name="underscore" unicode="_" horiz-adv-x="355" 
d="M318 -33l14 -55q-184 -5 -332 -10l16 42q17 -1 34 -1.5t30 -0.5t30.5 1t26.5 1t29 2t26.5 3t29.5 4t29 4t33.5 5t33.5 5z" />
    <glyph glyph-name="a" unicode="a" horiz-adv-x="534" 
d="M217 427q-43 -17 -70 -90t-26 -143.5t28 -83.5q51 -25 87 62q34 82 30 176q-3 82 -38 81q-5 0 -11 -2zM605 96l9 -23q-85 -50 -154 -56.5t-112.5 24.5t-66.5 93q-31 -66 -77.5 -102.5t-104.5 -30.5q-41 4 -67 47.5t-29.5 106.5t7.5 129.5t45.5 124.5t84.5 83
q39 22 79.5 17.5t65.5 -37.5q1 -1 2 -2.5t1 -2.5q2 7 6 20.5t6 20.5q43 -13 68.5 -24.5t34 -19t6.5 -14.5q-19 -81 -27.5 -146t-6.5 -115.5t17 -82.5t42.5 -45t70.5 -4.5t100 39.5z" />
    <glyph glyph-name="b" unicode="b" horiz-adv-x="432" 
d="M252 444q-31 33 -73 -40q-45 -79 -57 -185q-13 -115 36 -129q7 -2 14 -2q22 1 47.5 47t41.5 105t15.5 119t-24.5 85zM150 459q29 38 60 54q39 19 75 7t65 -49q38 -50 41.5 -128t-20 -148.5t-65 -125.5t-86.5 -64q-62 -13 -107 6t-67 59t-35 93t-10 107.5t7 102.5
q14 91 44 205t58 184q42 -13 66.5 -29.5t30.5 -27.5t4 -19q-6 -21 -28 -101.5t-33 -125.5z" />
    <glyph glyph-name="c" unicode="c" horiz-adv-x="348" 
d="M397 148l11 -21q-2 -1 -34 -25t-34 -25q-168 -120 -265 -56q-68 46 -74 160q-6 118 57 218q35 56 86 88q42 26 91 27t88 -22l-59 -95q-67 15 -115 -65q-45 -74 -41 -163q5 -92 63 -114q59 -21 156 43q1 1 35 25t35 25z" />
    <glyph glyph-name="d" unicode="d" horiz-adv-x="536" 
d="M217 427q-43 -17 -70 -90t-26 -143.5t28 -83.5q51 -25 88 63q35 81 31 175q-4 83 -39 82q-6 -1 -12 -3zM607 97l9 -22q-86 -51 -155 -57.5t-112.5 24.5t-66.5 94q-31 -67 -77.5 -104t-105.5 -31q-41 4 -67 47.5t-29.5 106.5t7.5 129.5t45.5 124.5t84.5 83
q39 22 79.5 17.5t65.5 -37.5q1 0 2 -2l1 -2q36 168 83 289q41 -13 66 -30t31 -28t4 -19q-6 -23 -26.5 -96.5t-34 -128t-22.5 -105.5q-17 -94 -12.5 -160.5t28.5 -101.5t75 -33.5t127 42.5z" />
    <glyph glyph-name="e" unicode="e" horiz-adv-x="344" 
d="M393 144l11 -21q-2 -1 -34 -25t-34 -25q-162 -116 -259 -50q-68 46 -76 162q-8 119 52 216q41 67 103 96q79 37 134 7q53 -28 36 -98q-25 -107 -203 -239q0 -110 51.5 -125.5t148.5 52.5q1 1 35 25t35 25zM126 209q68 64 107 113.5t41 68.5t-8 26q-13 3 -34 -10.5
t-43 -38.5t-40 -67.5t-23 -91.5z" />
    <glyph glyph-name="f" unicode="f" horiz-adv-x="410" 
d="M264 -40q-42 -164 -130 -201q-57 -23 -101 14q-41 34 -31 84q13 67 116 102q16 6 33 10q25 101 42 263q-18 -2 -24.5 -2.5t-18.5 -0.5t-14 -0.5t-9.5 3t-8 4t-5.5 8t-5 10t-5 15t-7 18.5q40 -21 100 -23q1 11 2.5 46t3.5 67t7 74.5t14 76t23 62.5t36 43t51 9
q58 -10 71 -74.5t-10 -143.5t-66 -146q35 7 81 21q2 -21 -6 -24q-52 -17 -93 -27q-20 -175 -46 -288zM312 293q36 61 53 133.5t15 116.5t-13 41q-7 -2 -13.5 -16.5t-12 -38.5t-9.5 -50t-7.5 -57.5l-6 -54t-4.5 -46.5t-2 -28zM142 -64q-46 -14 -74.5 -38t-31 -43t2.5 -33
q10 -8 25.5 -7t37.5 33t40 88z" />
    <glyph glyph-name="g" unicode="g" horiz-adv-x="432" 
d="M217 427q-43 -17 -70 -90t-26 -143.5t28 -83.5q50 -25 88 62q36 81 33 174q-2 84 -40 84q-6 0 -13 -3zM337 -52q-41 -163 -129 -200q-57 -24 -103 13q-41 34 -31 84q13 67 116 102q16 6 33 10q13 55 23 117q-63 -83 -147 -73q-41 4 -67 47.5t-29.5 106.5t7.5 129.5
t45.5 124.5t84.5 83q89 46 142 -16q0 22 1 31q55 -11 87 -21t31 -19q-17 -313 -64 -519zM214 -76q-45 -14 -73 -37.5t-31.5 -42t0.5 -32.5q13 -21 39 -3q38 26 65 115z" />
    <glyph glyph-name="h" unicode="h" horiz-adv-x="481" 
d="M552 97l9 -22q-61 -36 -111.5 -50.5t-84.5 -12t-61 22t-42.5 42t-25.5 58.5t-14 59.5t-4.5 58t-0.5 41.5t1 21q-11 -18 -21.5 -39.5t-23.5 -58t-20 -56t-25.5 -77t-25.5 -77.5q-5 -13 -42 -3.5t-43 30.5q-36 127 3 348t99 375q42 -13 67 -29.5t31 -28t3 -18.5
q-31 -76 -74.5 -272t-51.5 -287q41 121 95 241t85 121q19 1 51 -12t30 -21q-29 -122 -34 -207.5t17 -136.5t75 -52.5t139 42.5z" />
    <glyph glyph-name="i" unicode="i" horiz-adv-x="275" 
d="M346 81l9 -22q-90 -53 -161 -58.5t-114 31.5t-64 103.5t-14.5 159.5t38.5 198q43 -13 69 -24.5t34 -18.5t6 -14q-19 -81 -27.5 -146t-6 -116t17.5 -82.5t42.5 -45t70.5 -5t100 39.5zM165 481q-41 11 -62 38t-21.5 58t4.5 60t13 49l8 19q41 -13 66 -30t31 -28t4 -19
q-6 -24 -22 -77.5t-21 -69.5z" />
    <glyph glyph-name="j" unicode="j" horiz-adv-x="357" 
d="M329 496q-42 5 -66.5 29t-30 54.5t-4.5 60t6 50.5l6 20q43 -7 70 -20t34.5 -23.5t6.5 -18.5q-2 -26 -11.5 -84t-10.5 -68zM264 -40q-42 -164 -130 -201q-57 -23 -101 14q-41 34 -31 84q13 67 116 102q16 6 33 10q26 102 41 255.5t16 253.5q29 -6 46 -10.5t36 -10
t27.5 -10t8.5 -9.5q-14 -271 -62 -478zM142 -64q-64 -20 -89.5 -53t-15.5 -56q9 -22 34 -9q41 21 71 118z" />
    <glyph glyph-name="k" unicode="k" horiz-adv-x="402" 
d="M321 483q-66 -74 -103 -160q-6 -63 9 -123.5t51 -105t94.5 -48t141.5 47.5l8 -19q-67 -39 -123.5 -54t-95 -8.5t-70 28.5t-49.5 49.5t-32 63.5q-29 -82 -50 -147q-6 -7 -23 -7t-37.5 10t-24.5 24q-36 127 3 348t99 375q42 -13 67 -29.5t31 -28t3 -18.5
q-31 -75 -74.5 -271.5t-51.5 -287.5q41 121 95 241t85 121q15 1 29.5 0t17.5 -1z" />
    <glyph glyph-name="l" unicode="l" horiz-adv-x="275" 
d="M346 81l9 -22q-133 -76 -216.5 -54.5t-117 114.5t-13.5 233q13 90 45.5 210.5t61.5 193.5q26 -8 45.5 -17.5t30 -18t17 -16.5t8 -14t0.5 -10q-7 -28 -28 -102t-36 -134t-24 -110q-17 -94 -12.5 -160.5t28.5 -101.5t75 -33.5t127 42.5z" />
    <glyph glyph-name="m" unicode="m" horiz-adv-x="685" 
d="M479 484q19 1 51 -11.5t30 -20.5q-19 -81 -27.5 -146t-6.5 -116t17 -82.5t42.5 -45t70.5 -5t100 39.5l9 -22q-181 -106 -269 -32q-14 14 -20 22q-11 13 -19.5 30t-14 34t-10 35t-6.5 36t-3.5 33.5t-1.5 30.5v25t1 18v8q-17 -27 -30.5 -57t-20.5 -50.5t-18.5 -56.5
t-19.5 -58q-16 -45 -25 -51q-13 -8 -34 15q-12 13 -21.5 29.5t-15.5 34.5t-11 36.5t-7 37t-3.5 35t-2 32t-0.5 25.5t1 19v9q-9 -15 -19 -36t-17.5 -38.5t-19 -51t-17.5 -51.5l-21.5 -64.5t-21.5 -66.5q-14 -13 -46 -4t-38 31q-21 74 -11 217t43 252q44 -14 69.5 -25.5
t34 -19t6.5 -13.5q-17 -40 -38 -140.5t-27 -182.5q42 123 95 242t84 120q19 1 51.5 -11.5t30.5 -20.5q-41 -175 -34 -275q112 306 161 307z" />
    <glyph glyph-name="n" unicode="n" horiz-adv-x="477" 
d="M548 97l9 -22q-86 -51 -151.5 -60.5t-99 15.5t-57.5 64t-27.5 85.5t-8 81t0.5 49.5v5q-11 -18 -21.5 -39.5t-23.5 -58t-20 -56t-25.5 -77t-25.5 -77.5q-6 -7 -23 -7t-37 10t-24 24q-21 74 -11 217t44 252q43 -14 68.5 -25.5t34 -19t6.5 -13.5q-17 -40 -38 -140.5
t-27 -182.5q42 123 95 242t84 120q13 0 33 -5.5t35 -14t14 -13.5q-19 -81 -27.5 -146t-6.5 -115.5t17 -82.5t42.5 -45t70.5 -4.5t100 39.5z" />
    <glyph glyph-name="o" unicode="o" horiz-adv-x="395" 
d="M339 431q-112 44 -178 -54q-49 -74 -48 -179q1 -92 41 -118q14 -9 31 -7q43 6 76 49.5t45 95t4 86.5q-68 2 -76 44q-5 30 22 52q25 20 53 8q85 -36 29 -218q-27 -85 -83 -139.5t-134 -50.5q-46 2 -77 44t-38.5 105t1.5 130t45.5 126.5t91.5 87.5q42 24 88 22t76 -34
q21 -24 31 -50z" />
    <glyph glyph-name="p" unicode="p" horiz-adv-x="452" 
d="M276 440q-32 34 -74 -41q-44 -80 -56 -185q-13 -115 36 -129q6 -1 13 -1q22 0 47.5 46t41.5 105t16 119.5t-24 85.5zM89 -257q1 -3 -4 -4q-20 -4 -53 14q-23 14 -27 29q-16 83 13.5 369t68.5 397q37 -3 77.5 -16.5t36.5 -22.5q-5 -11 -12 -36q21 23 44 35q76 39 140 -42
q35 -44 42 -111t-11 -132t-48 -120.5t-72 -84t-80 -15.5q-62 21 -90 88q-18 -115 -25 -226.5t0 -121.5z" />
    <glyph glyph-name="q" unicode="q" horiz-adv-x="438" 
d="M217 442q-43 -17 -70 -90t-26 -143.5t28 -83.5q49 -24 87 62q36 82 33 176q-2 84 -40 82q-6 0 -12 -3zM443 -236l5 -21q-62 -17 -109 1.5t-72.5 66t-36.5 111.5t-6 142q-55 -55 -125 -48q-41 4 -67 47.5t-29.5 106.5t7.5 129.5t45.5 124.5t84.5 83q39 22 79.5 17.5
t65.5 -37.5q14 -19 23 -44q7 23 24 69q42 -13 66.5 -29.5t30.5 -27.5t4 -19q-7 -25 -27 -97.5t-33.5 -127.5t-22.5 -106q-15 -97 -13 -174t29 -123.5t77 -43.5z" />
    <glyph glyph-name="r" unicode="r" horiz-adv-x="406" 
d="M477 81l9 -22q-139 -79 -223.5 -53t-114.5 130.5t-1 256.5q-22 -10 -46 -8q-4 -45 -27.5 -124.5t-59.5 -143.5q-4 11 -14 33q62 132 68 245q-43 24 -55 80t21 134l88 -50q-39 -109 -13 -137q15 -17 37 8q21 23 26 63q9 -3 24.5 -8t37 -13t35.5 -18t12 -18
q-19 -81 -27.5 -146t-6.5 -116t17 -82.5t42.5 -45t70.5 -5t100 39.5z" />
    <glyph glyph-name="s" unicode="s" horiz-adv-x="363" 
d="M119 244q-5 43 -4.5 84.5t8 88t34 72.5t69.5 20q38 -5 68.5 -24.5t38.5 -52.5q7 -38 2.5 -76.5t-17 -78.5t-25.5 -70.5t-23 -51.5t-10 -22q14 -96 4 -162t-38.5 -98.5t-86 -21.5t-139.5 70l21 19q120 -83 133 9q7 46 -20 199q-11 64 -15 96zM252 176q31 74 43.5 132
t9.5 84.5t-15 29.5q-13 4 -25.5 -22.5t-18.5 -82t6 -141.5z" />
    <glyph glyph-name="t" unicode="t" horiz-adv-x="291" 
d="M362 81l9 -22q-130 -75 -212.5 -56t-117.5 107.5t-19 223.5q7 67 28 143l-49 14l-1 27q23 -5 57 -10q27 96 52 166q42 -13 67 -30t30.5 -28t3.5 -19q-9 -34 -27 -100q63 -2 110 8l2 -44q-53 -11 -123 -4q-21 -76 -32 -146q-14 -88 -8 -149.5t31 -93.5t75.5 -29.5
t123.5 42.5z" />
    <glyph glyph-name="u" unicode="u" horiz-adv-x="503" 
d="M142 105q21 5 46 86t50 192.5t31 130.5q43 -13 68.5 -24.5t34 -19t6.5 -14.5q-19 -81 -27.5 -146t-6.5 -115.5t17 -82.5t42.5 -45t70.5 -4.5t100 39.5l9 -22q-68 -40 -130.5 -47.5t-110 16.5t-74 85.5t-22.5 152.5q-44 -227 -117 -277q-49 -33 -87 30q-50 83 -39 258
q6 105 36 219q44 -13 69.5 -24.5t33.5 -19t6 -14.5q-23 -86 -31 -172.5t-0.5 -136.5t25.5 -45z" />
    <glyph glyph-name="v" unicode="v" horiz-adv-x="258" 
d="M95 122q22 75 80.5 210.5t91.5 176.5q28 7 54 -16q-53 -45 -117.5 -193.5t-95.5 -292.5q-6 -14 -42.5 -4t-43.5 31q-24 74 -21 217t31 251q44 -14 70.5 -25t35.5 -18.5t6 -13.5q-14 -40 -30 -140.5t-19 -182.5z" />
    <glyph glyph-name="w" unicode="w" horiz-adv-x="470" 
d="M331 122q17 75 67 210.5t81 176.5q28 7 54 -16q-50 -46 -105.5 -194.5t-76.5 -291.5q-7 -13 -43 -3.5t-45 30.5q-21 52 -30 145.5t-4 190.5q-78 -176 -106 -363q-6 -13 -42.5 -3.5t-45.5 30.5q-28 73 -33.5 216.5t15.5 251.5q45 -14 72 -25t36 -18.5t7 -13.5
q-12 -42 -22 -142t-7 -181q16 70 63 199t79 181q45 -14 72 -25t36 -18.5t7 -13.5q-12 -42 -22 -142t-7 -181z" />
    <glyph glyph-name="x" unicode="x" horiz-adv-x="352" 
d="M3 47q63 83 110 163q-64 96 -92.5 184t-16.5 114q10 2 25 -1t25 -7l10 -4q-20 -89 73 -243q64 125 88 232q5 25 127 -18q-45 -141 -154 -308q87 -99 151 -136l-23 -18q-82 52 -148 123q-61 -88 -105 -125q-9 -8 -26.5 3t-30.5 26z" />
    <glyph glyph-name="y" unicode="y" horiz-adv-x="385" 
d="M354 433q-29 -565 -161 -674q-58 -47 -115 -20q-46 21 -53 67q-10 62 60 107q36 22 89 35q22 82 39 211q-46 -154 -107 -167q-46 -10 -77 67q-47 115 -19 314q9 72 29 146q43 -13 68.5 -24.5t34 -19t6.5 -13.5q-24 -86 -33 -176.5t-2 -145t25 -49.5q28 7 60.5 139.5
t37.5 242.5q0 11 73 -16q46 -18 45 -24zM165 -85q-35 -11 -59.5 -27.5t-34 -32t-13 -30.5t3.5 -23q10 -8 25 -8t38 32.5t40 88.5z" />
    <glyph glyph-name="z" unicode="z" horiz-adv-x="343" 
d="M214 -52zM332 -37q-11 -96 -75.5 -158.5t-129.5 -50.5q-44 8 -62 54q-22 57 19 108.5t134 68.5q-1 27 -8.5 52t-19.5 44t-26 35.5t-28 27.5t-25.5 19.5t-18.5 12.5t-7 5q7 25 55.5 104t60.5 111q-33 -22 -66 -26t-58.5 7t-44.5 34t-27 51.5t-3 63t25 66.5l89 -50
q-42 -107 6 -124q30 -11 70 19q26 20 29 41q17 -5 50.5 -29.5t21.5 -33.5l-93 -150q143 -135 132 -302z" />
    <glyph glyph-name="braceleft" unicode="{" horiz-adv-x="342" 
d="M105 282q-11 9 -23.5 13t-19.5 4.5t-26 -1.5t-27 -2t-8 14t6 15q10 1 35 -0.5t43.5 0.5t31.5 9q32 18 44 54t10.5 74t6 92t29.5 97q15 29 60 43.5t83.5 12t63.5 -2.5l1 -11q-11 0 -28.5 -1t-52.5 -16.5t-49 -43.5q-22 -47 -28 -109t-5.5 -100.5t-25 -72t-86.5 -45.5
q65 -25 74 -65q9 -44 7 -86t-12.5 -78.5t-13.5 -68.5t3.5 -58t38.5 -46.5t91 -32.5l-3 -3l-6.5 -6.5t-5.5 -3.5q-11 2 -36 8t-27 6q-70 17 -103 44t-34 59.5t6 73.5t16.5 87t-2.5 100q-6 28 -28 47z" />
    <glyph glyph-name="braceright" unicode="}" 
d="M303 237q-26 -14 -37 -40q-18 -43 -22 -97t-3 -90.5t-8 -71t-46.5 -54t-109.5 -24.5q-7 0 -64 -3q-3 0 -8 8l-5 8q72 2 108 21t44.5 54.5t6.5 74t2.5 93.5t25.5 99q19 39 86 51q-47 18 -67.5 45.5t-19 58.5t7 70t11 81t-7.5 92q-7 30 -36 51t-54 26l-25 6l3 11
q172 -17 193 -89q12 -51 9 -101.5t-12.5 -90t-5 -76t32.5 -59.5q11 -10 29 -15t42 -8t35 -6q3 -1 3.5 -8.5t-2.5 -13.5t-9 -5q-9 2 -26 6.5t-25 5.5t-21 -1t-25 -9z" />
    <glyph glyph-name="percent" horiz-adv-x="491" 
d="M443 451q-83 -95 -207 -217t-194 -208l-23 36q29 37 146.5 150t187.5 209q-51 -17 -98 13q-10 -57 -52 -96.5t-105 -35.5q-43 3 -69 31.5t-28 67t10 77.5t44 68t74 34q29 3 41 -12q10 -12 -11 -17q-3 -1 -23.5 4t-32.5 0q-29 -9 -46 -43.5t-13 -77.5q4 -49 32.5 -81
t63.5 -30q34 3 55.5 39.5t16.5 85.5q-3 29 -13 48q4 17 14 24.5t21.5 2.5t17.5 -21q2 -4 5 -11t15.5 -21.5t26.5 -21.5t37.5 -3.5t49.5 23.5q8 12 24 38q19 31 37 14t8 -48q-4 -11 -12 -21zM374 242q78 -6 97.5 -78t-27 -139t-128.5 -61q-71 6 -92 73q-20 65 16 130
q41 73 116 75q9 1 18 0zM357 -14q35 2 56.5 38.5t16.5 85.5q-5 48 -33.5 80.5t-62.5 29.5q-35 -3 -56 -39.5t-16 -84.5q4 -49 32 -81t63 -29z" />
    <glyph glyph-name="a_alt1" horiz-adv-x="928" 
d="M217 430q-43 -17 -70 -90.5t-26 -144t28 -83.5q51 -25 87 62q34 81 30 176q-3 83 -38 82q-5 0 -11 -2zM515 0q-84 2 -138.5 32t-95.5 104q-31 -66 -77.5 -102.5t-104.5 -30.5q-41 4 -67 47.5t-29.5 106.5t7.5 129.5t45.5 124.5t84.5 83q39 22 79.5 17.5t65.5 -37.5
q1 -1 2 -2.5t1 -2.5q2 7 6 20.5t6 20.5q43 -13 68.5 -24.5t34 -19t6.5 -14.5q-45 -189 -34 -282q15 -143 141 -146q49 1 102 33.5t94 84t69.5 116.5t28 131.5t-30.5 129.5q97 -31 110 -133q13 -101 -57 -209q-77 -117 -200 -159q-57 -19 -117 -18z" />
    <glyph glyph-name="a_alt2" horiz-adv-x="1158" 
d="M217 429q-43 -17 -70 -90t-26 -143.5t28 -83.5q51 -25 87 62q34 82 30 176q-3 82 -38 81q-5 0 -11 -2zM1109 84q30 -35 -17 -149q-46 79 -99 124.5t-94 61.5t-103.5 7t-93 -20t-96.5 -39q-15 -6 -22 -9q-75 -35 -133 -41h-4q-1 -1 -4 -1h-5q-112 -5 -157 117
q-31 -65 -77.5 -101.5t-104.5 -30.5q-41 4 -67 47.5t-29.5 106.5t7.5 129.5t45.5 124.5t84.5 83q39 22 79.5 17.5t65.5 -37.5q1 -1 2 -2.5t1 -2.5q2 7 6 20.5t6 20.5q44 -14 69 -25t33.5 -18.5t6.5 -14.5q-71 -297 2 -372q2 -2 2 -3q40 -37 116 -13h1q27 10 80 35.5t93.5 44
t98.5 33.5t105.5 13t101.5 -27.5t100 -78.5z" />
    <glyph glyph-name="b_alt1" horiz-adv-x="428" 
d="M250 437q-31 33 -73 -40q-45 -79 -57 -185q-13 -115 36 -129q7 -2 14 -2q18 1 38.5 31t35.5 75.5t24.5 94t5 92t-23.5 63.5zM118 741zM148 452q29 38 59 54q40 19 76 7t64 -49q39 -50 42.5 -128t-20 -148.5t-65 -125.5t-86.5 -64q-62 -13 -107 6.5t-68 58.5t-34 93.5
t-11 106.5t8 103q10 63 37 173q-75 0 -180 15.5t-191.5 29t-182.5 17.5t-191.5 -22t-181.5 -85q22 86 106.5 140.5t176.5 53.5q92 0 226.5 -34.5t249.5 -64t176 -21.5q13 51 29 97q17 41 38 76q61 95 140 90q58 -4 87 -54q35 -57 -2 -117q-43 -71 -171 -105v-1
q-15 -51 -24 -102zM181 583q14 41 29 72t29 48.5t27.5 28.5t23.5 10.5t19 -3.5q10 -6 13.5 -20.5t-3 -33.5t-21 -37.5t-45.5 -36.5t-72 -28z" />
    <glyph glyph-name="b_alt2" horiz-adv-x="428" 
d="M250 437q-32 34 -74 -41q-45 -80 -57 -185q-12 -115 37 -128q6 -2 13 -2q22 1 47.5 47t41.5 105t16 119t-24 85zM177 563q-15 -48 -30 -111q29 38 60 54q39 19 75 7t65 -49q38 -50 41.5 -128t-20 -148.5t-65 -125.5t-85.5 -64q-52 -11 -92.5 0.5t-64.5 40.5t-39 67.5
t-20 85t-4 89.5t7 85q16 103 48 209q-64 43 -89 108t-11 131t49 126t93 101.5t120 49.5q95 12 172.5 -27.5t116.5 -117t25 -172.5q-134 228 -290 243q-105 10 -185 -77q-70 -77 -75 -175q-7 -108 75 -163q4 -2 7 -4q17 52 28 78q57 133 144 156q62 16 107 -29
q43 -44 28 -103q-19 -79 -133 -120q-27 -10 -58 -17zM186 591q40 8 70 23t46.5 31.5t24.5 34.5t7 32.5t-8 23.5q-7 8 -17 10t-24 -5t-28.5 -22t-32 -44.5t-32.5 -69.5z" />
    <glyph glyph-name="c_alt" horiz-adv-x="966" 
d="M150 63q27 -21 74.5 -22.5t103.5 11.5t120 31.5t129.5 34.5t125.5 24t115.5 -2.5t93.5 -43.5q14 -13 21.5 -30.5t8.5 -30t1.5 -39.5t1.5 -39q-69 68 -153.5 95.5t-170 20.5t-163 -24t-164.5 -35.5t-143 -17.5q-58 0 -96.5 38.5t-48 99t0 126.5t46.5 127.5t91 95.5
q42 26 91 27t88 -22l-59 -96q-38 9 -72 -15t-53 -67t-27.5 -90.5t1.5 -91.5t37 -65z" />
    <glyph glyph-name="d_alt1" horiz-adv-x="533" 
d="M217 416q-43 -17 -70 -90t-26 -143.5t28 -83.5q50 -24 87 61q34 81 32 175q-3 83 -38 84q-6 0 -13 -3zM438 551q-28 -86 -49 -212q-17 -95 -12.5 -161t28.5 -101.5t74.5 -33.5t126.5 43l9 -22q-86 -51 -155 -57.5t-112.5 24.5t-65.5 94q-30 -67 -77.5 -104t-106.5 -31
q-40 4 -66 47.5t-29.5 106.5t7.5 129.5t45.5 124.5t84.5 83q39 22 79 17.5t66 -37.5q0 -1 2 -3q1 6 21 82q-75 3 -179.5 23t-190 36.5t-181 24.5t-192 -14t-184.5 -78q16 57 64 100.5t107.5 64.5t118.5 18q92 -4 224.5 -44t246 -74t175.5 -29q18 58 34 96q17 41 40 74v1
q66 93 145 84q57 -7 84 -57q32 -59 -7 -118q-47 -69 -175 -97zM448 578q40 8 70.5 23.5t46.5 33t24 35.5t6.5 32.5t-9.5 22.5q-7 8 -17.5 8.5t-25 -7.5t-29.5 -25t-32.5 -49t-33.5 -74z" />
    <glyph glyph-name="d_alt2" horiz-adv-x="534" 
d="M217 416q-43 -17 -70 -90t-26 -143.5t28 -83.5q51 -25 88 63q35 81 31 175q-4 83 -39 82q-6 -1 -12 -3zM324 589q14 41 27 75q22 48 41 74v1q65 93 145 84q56 -7 84 -57q32 -59 -8 -118q-46 -69 -175 -97q-28 -86 -49 -212q-16 -95 -11.5 -161t28.5 -101.5t74.5 -33.5
t126.5 43l9 -22q-86 -51 -155 -57.5t-112.5 24.5t-66.5 94q-31 -67 -77.5 -104t-105.5 -31q-41 4 -67 47.5t-29.5 106.5t7.5 129.5t45.5 124.5t84.5 83q39 22 79.5 17.5t65.5 -37.5q2 -2 2 -3q12 50 22 82l8 27q-59 44 -81.5 108.5t-7.5 129t50.5 123t93 98.5t118.5 48
q145 19 240 -76.5t74 -240.5q-134 227 -288 244q-107 11 -187 -77q-70 -76 -76 -175q-6 -105 71 -160zM448 578q39 8 69 23t45.5 31t25.5 34t8 32t-7 24q-6 9 -16.5 11t-25 -5.5t-30 -24t-34 -49t-35.5 -76.5z" />
    <glyph glyph-name="e_alt" horiz-adv-x="971" 
d="M177 29q40 -11 132.5 14t186 57.5t199.5 48t173 -14.5q42 -18 61.5 -68t20.5 -107q-62 60 -140.5 89t-153 28.5t-156.5 -13t-147.5 -30.5t-127.5 -28.5t-97 -3.5q-52 10 -85 55.5t-39 108t6 128t51 121.5t95 82q79 37 134 7q53 -28 36 -98q-25 -107 -203 -239
q-1 -57 13.5 -93.5t40.5 -43.5zM125 208q40 37 70.5 70t46.5 55.5t25.5 41t8 27t-6.5 13.5q-8 4 -23.5 -2t-34.5 -23.5t-36.5 -42t-31.5 -61.5t-18 -78z" />
    <glyph glyph-name="f_alt1" horiz-adv-x="400" 
d="M269 -20q97 6 200.5 -6.5t225.5 -36.5t192 -32q138 -19 270.5 -1.5t260.5 77.5q-26 -51 -60 -88t-73.5 -57.5t-77 -32t-83 -12.5t-78 1t-74.5 8q-84 12 -226 53t-269 71t-215 26q-42 -156 -128 -191q-57 -23 -101 15q-41 34 -30 85q14 67 119 102q14 4 29 8
q27 103 42 263q-59 -6 -70 0q-9 6 -22 42q-2 8 -4 13q39 -21 99 -23q1 11 2.5 46t4 67t7 74.5t14 76t23.5 62.5t36 43t51 9q58 -10 71 -75t-11 -145t-67 -147q25 5 72 19q0 -21 -6 -23q-37 -14 -83 -26q-14 -141 -41 -265zM314 291q36 61 53 134.5t14.5 117.5t-14.5 41
q-7 -2 -13.5 -16.5t-11.5 -38.5t-9 -50.5t-7.5 -58t-5.5 -54.5t-4 -46.5t-2 -28.5zM142 -64q-34 -11 -59 -27.5t-34.5 -31.5t-13 -30t3.5 -23q12 -21 38 -3q38 26 65 115z" />
    <glyph glyph-name="f_alt2" horiz-adv-x="402" 
d="M265 -39q-1 -1 -1 -3t-1 -3q94 -29 90 -123q-4 -85 -81 -171q-84 -94 -186 -109q-59 -9 -111 14t-91 74.5t-44 118.5q116 -129 265 -106q103 16 172 91q61 66 47 124q-10 45 -67 64q-44 -142 -126 -173q-57 -20 -100 18q-40 35 -28 85q16 69 126 103l22 6q26 101 42 262
q-60 -5 -71 2q-9 6 -21 43q-2 6 -4 11q40 -21 99 -23q1 10 2.5 45.5t4 67.5t7 74.5t14 76t23.5 62.5t36 43t51 9q58 -10 71 -75t-10.5 -144t-66.5 -147q49 11 71 19q2 -21 -6 -24q-43 -14 -83 -25q-17 -167 -45 -287zM314 294q36 61 53 134t14.5 117t-14.5 41
q-7 -2 -13.5 -16.5t-11.5 -38.5t-9 -50t-7.5 -57.5t-5.5 -54.5t-4 -46.5t-2 -28.5zM142 -62q-30 -9 -52 -22.5t-33.5 -27.5t-17 -27t-4 -23.5t7.5 -16.5q6 -4 14 -5.5t18.5 6.5t21.5 21t23 37.5t22 57.5z" />
    <glyph glyph-name="g_alt1" 
d="M217 427q-43 -17 -70 -90t-26 -143.5t28 -83.5q50 -25 88 62q36 81 33 174q-2 84 -40 84q-6 0 -13 -3zM337 -52q-41 -163 -129 -200q-57 -24 -103 13q-41 34 -31 84q13 67 116 102q16 6 33 10q13 55 23 117q-63 -83 -147 -73q-41 4 -67 47.5t-29.5 106.5t7.5 129.5
t45.5 124.5t84.5 83q89 46 142 -16q0 22 1 31q55 -11 87 -21t31 -19q-4 -73 -19 -226t-39 -264q92 9 196 -0.5t189 -28t185.5 -33.5t190.5 -20t199 15t215 70q-24 -48 -57.5 -83.5t-65 -56t-74.5 -32.5t-74.5 -16t-76.5 -1.5t-69.5 6t-64.5 9.5q-99 15 -240.5 57t-256 68.5
t-202.5 16.5zM214 -76q-29 -9 -51 -22t-34 -26.5t-17.5 -27t-5 -23.5t6.5 -17q5 -6 13.5 -6.5t19 6t22 19.5t24 38.5t22.5 58.5z" />
    <glyph glyph-name="g_alt2" 
d="M217 427q-43 -17 -70 -90t-26 -143.5t28 -83.5q50 -25 88 62q36 81 33 174q-3 84 -40 84q-6 0 -13 -3zM332 -67q-43 -155 -130 -187q-56 -21 -99 16q-41 36 -29 86q16 68 124 102q12 4 24 7q10 39 23 117q-63 -83 -147 -73q-40 4 -66 47.5t-29.5 106.5t7.5 129.5
t45.5 124.5t84.5 83q37 21 76.5 17.5t64.5 -33.5q1 11 1 31q55 -11 87 -21t31 -19q-15 -301 -62 -511q101 -23 105 -111q4 -83 -68 -172q-78 -95 -178 -120q-70 -17 -132 10q-52 23 -90.5 74.5t-44.5 117.5q116 -129 266 -106q102 17 171 92q61 65 47 124q-12 50 -82 68z
M213 -76q-29 -9 -51 -22t-34 -26.5t-17.5 -27t-5 -23.5t6.5 -17q6 -6 14 -6.5t19 6t22 20t23.5 38.5t22.5 58z" />
    <glyph glyph-name="h_alt1" horiz-adv-x="486" 
d="M556 97l9 -22q-86 -51 -151.5 -60.5t-99 15.5t-57.5 64t-27.5 85.5t-8 81t0.5 49.5v5q-11 -18 -21.5 -39.5t-23.5 -58t-20 -56t-25.5 -77t-25.5 -77.5q-11 -14 -45 -4.5t-40 31.5q-22 72 -18.5 171.5t20 189.5t44.5 180q-64 43 -89.5 108t-12 131t49 126t93.5 101t120 49
q95 12 172.5 -27t116.5 -117t25 -173q-134 228 -289 243q-107 11 -187 -77q-69 -77 -74 -175q-6 -109 77 -163q2 -1 5 -3q12 36 28 78q58 133 144 156q63 16 107 -29q43 -44 28 -103q-19 -80 -134 -121q-27 -9 -58 -16q-31 -94 -57.5 -226t-32.5 -215q39 117 93.5 239
t85.5 123q20 1 51.5 -12t29.5 -21q-19 -81 -27.5 -146t-6 -115.5t17.5 -82.5t42.5 -45t70.5 -4.5t100 39.5zM199 591q40 8 70 23t46.5 31.5t24.5 34.5t7 32.5t-8 23.5q-7 8 -17.5 10t-24 -5t-28.5 -22t-32 -44.5t-32 -69.5q-4 -10 -6 -14z" />
    <glyph glyph-name="h_alt2" horiz-adv-x="487" 
d="M558 97l9 -22q-61 -36 -111.5 -50.5t-84.5 -12t-61 22t-42.5 42t-25.5 58.5t-14 59.5t-4.5 58t-0.5 41.5t1 21q-11 -18 -21.5 -39.5t-23.5 -58t-20 -56t-25.5 -77t-25.5 -77.5q-10 -13 -44.5 -3.5t-40.5 30.5q-21 69 -18.5 163t17 180.5t39.5 174.5q-75 3 -179.5 23
t-190 36.5t-181 24.5t-192 -14t-184.5 -78q16 57 64 100.5t107.5 64.5t118.5 18q92 -4 224.5 -44t246 -74t175.5 -29q18 58 34 96q58 133 144 156q63 16 107 -29q43 -44 28 -103q-19 -80 -134 -121q-27 -9 -58 -16q-31 -93 -57.5 -224.5t-33.5 -216.5q41 121 95 241t85 121
q19 1 51 -12t30 -21q-29 -122 -34 -207.5t17 -136.5t75 -52.5t139 42.5zM201 591q39 8 69 22.5t46 31t24.5 34.5t8 32.5t-7.5 23.5q-7 8 -17 10t-24.5 -5.5t-30 -24.5t-33.5 -49t-35 -75z" />
    <glyph glyph-name="i_alt1" horiz-adv-x="631" 
d="M107 709q26 -8 45.5 -17.5t30 -18t17 -16.5t8 -14t0.5 -10q-6 -26 -23 -81.5t-20 -66.5q-41 11 -62 38t-21.5 58t4.5 60t13 49zM305 5q140 18 235 131t92 231.5t-113 153.5q30 -63 30 -129.5t-28.5 -131.5t-69.5 -116.5t-94 -83.5t-102 -33q-105 1 -134 105
q-21 102 29 308q2 7 -6.5 14.5t-33.5 18.5t-69 25q-40 -130 -40 -239t39 -175q64 -106 265 -79z" />
    <glyph glyph-name="i_alt2" horiz-adv-x="858" 
d="M180 41q27 -10 67 0.5t83.5 31.5t93.5 45t103 39.5t106 17.5t108.5 -24.5t104.5 -82.5q30 -34 -18 -149q-40 70 -83.5 114.5t-83.5 62t-82.5 20.5t-82 -9.5t-81 -27.5t-79.5 -34.5t-77.5 -30.5t-75 -14.5t-72.5 12.5q-87 37 -105.5 169.5t35.5 308.5q44 -14 69 -25
t33.5 -18.5t6.5 -14.5q-83 -348 30 -391zM165 477q-41 11 -62 38t-21.5 58t4.5 60t13 49l8 19q26 -8 45.5 -17.5t30 -18t17 -16.5t8 -14t0.5 -10q-6 -26 -23 -81.5t-20 -66.5z" />
    <glyph glyph-name="j_alt1" horiz-adv-x="355" 
d="M330 497q-42 5 -66.5 29t-30 54.5t-4.5 60t7 49.5l5 21q43 -7 70 -20t34.5 -23.5t6.5 -18.5q-2 -24 -11 -78.5t-11 -73.5zM262 -50q-42 -156 -128 -190q-57 -23 -102 15q-41 35 -30 85q15 68 121 102l28 8q26 103 41.5 258t15.5 251q119 -26 119 -40q-14 -257 -58 -459
q99 8 204 -4.5t231.5 -37t195.5 -32.5q48 -7 90 -8q233 -14 441 84q-31 -61 -76 -102t-87.5 -59.5t-98 -24.5t-94.5 -4t-90 9q-13 2 -37 6q-13 2 -47 8q-85 16 -217.5 56t-235.5 63t-186 16zM142 -63q-30 -10 -52.5 -23.5t-34 -27.5t-16.5 -27.5t-3.5 -23.5t8.5 -16
q6 -3 14 -4t18.5 7t21.5 21t22.5 37.5t21.5 56.5z" />
    <glyph glyph-name="j_alt2" horiz-adv-x="356" 
d="M329 496q-42 5 -66.5 29t-29.5 54.5t-4 60t7 50.5l5 20q43 -7 69.5 -20t34 -23.5t6.5 -18.5q-2 -26 -11.5 -84t-10.5 -68zM257 -68q-43 -143 -126 -174q-56 -21 -100 16q-40 36 -28 86q16 69 126 103l22 6q26 102 41 255.5t16 253.5q59 -13 89 -22t29 -18
q-14 -295 -63 -483q98 -26 97 -118q-1 -84 -76 -172q-81 -94 -183 -113q-63 -11 -119 13q-52 22 -91 73.5t-44 118.5q116 -129 266 -106q102 16 171 90q60 66 47 124q-11 48 -74 67zM142 -64q-29 -9 -51 -22t-34 -26t-17.5 -26.5t-5 -23.5t6.5 -17q5 -6 13 -7t19 5
t22.5 19.5t24 38.5t22.5 59z" />
    <glyph glyph-name="k_alt1" horiz-adv-x="401" 
d="M187 563q-77 -233 -94 -441q41 121 95 241t85 121q15 1 30 0t17 -1q-66 -74 -103 -160q-6 -64 7.5 -120.5t49 -99t95.5 -48t147 32.5l5 -13q-67 -39 -123.5 -54t-95 -8.5t-70 28.5t-49.5 49.5t-32 63.5q-29 -82 -50 -147q3 -6 -7 -7q-28 -4 -59 14q-16 9 -19 20
q-19 65 -15 163.5t19 188.5t37 166q-66 3 -151 17.5t-154.5 30.5t-154 27t-157 10.5t-155 -23.5t-156.5 -70q16 57 64 101t107.5 64.5t118.5 17.5q74 -3 173.5 -28.5t178.5 -53t162.5 -48t132.5 -16.5q20 61 33 96q57 131 143 155q63 17 108 -29q44 -44 29 -103
q-19 -79 -133 -120q-27 -10 -59 -17zM197 591q47 10 80.5 29.5t47 40t18.5 41t-5 31.5q-12 11 -31.5 11t-51 -40.5t-58.5 -112.5z" />
    <glyph glyph-name="k_alt2" horiz-adv-x="399" 
d="M186 563q-34 -102 -60 -223t-33 -218q42 123 95 242t84 120q15 1 30.5 0t17.5 -1q-67 -75 -104 -160q-5 -63 10.5 -123t51.5 -104t95 -48.5t141 42.5l6 -15q-82 -48 -148 -60.5t-109 8.5t-69.5 53t-43.5 77q-32 -91 -50 -146q-16 -13 -47 -4t-37 31q-21 69 -17 167.5
t22 196.5t47 191q-53 45 -71.5 109t-2 127t52.5 119.5t91.5 95t115.5 46.5q95 12 172.5 -27t116.5 -117t25 -173q-134 228 -289 243q-105 11 -185 -76q-70 -77 -76 -175q-5 -94 58 -149q8 27 23 64q58 133 144 156q63 16 107 -29q43 -44 28 -103q-19 -80 -134 -121
q-27 -9 -58 -16zM196 591q39 8 69 22.5t46 31t24.5 34.5t8 32.5t-7.5 23.5q-7 8 -17 10t-24.5 -5.5t-30 -24.5t-33.5 -49t-35 -75z" />
    <glyph glyph-name="m_alt1" horiz-adv-x="1077" 
d="M933 517q97 -31 110 -134q13 -100 -57 -208q-76 -117 -199 -159q-57 -19 -118 -18q-72 1 -112.5 11.5t-73.5 46.5q-28 29 -42.5 80.5t-16.5 87.5t-2 91q-22 -35 -35.5 -67t-30 -84.5t-23.5 -71.5q-16 -44 -24 -50q-14 -9 -35 15q-12 13 -21 29.5t-15.5 34.5t-11 36.5
t-7 37t-4 35t-2 32t-0.5 25.5t1 19v9q-8 -13 -15.5 -28.5t-16 -36.5t-15 -37t-16.5 -45.5t-16 -47t-18.5 -55.5t-18.5 -58q-14 -13 -46 -4t-38 31q-21 74 -10.5 216t43.5 252q118 -37 109 -57q-17 -41 -38 -141.5t-27 -181.5q41 121 95 241t85 121q12 0 32 -5.5t35 -14
t14 -13.5q-42 -175 -33 -274q41 115 87 210.5t73 96.5q12 0 32 -5.5t35 -14t14 -13.5q-7 -31 -12 -54.5t-12.5 -64t-8.5 -71.5t-0.5 -69t10 -66t25 -52.5t43 -37.5t65.5 -14q49 1 102 33t94 83.5t69.5 117t28 132t-30.5 129.5z" />
    <glyph glyph-name="m_alt2" horiz-adv-x="1298" 
d="M678 63q27 10 79.5 35t93.5 44t98.5 33.5t105 13t102 -27t100.5 -78.5q30 -36 -18 -149q-39 68 -82.5 112t-85 61.5t-85.5 21.5t-84.5 -8t-83 -26.5t-81 -33.5t-77 -29.5t-72 -15.5t-66.5 10q-28 14 -48 40.5t-30 54t-15.5 66.5t-6 65.5t-0.5 62.5q-17 -27 -30.5 -57
t-20.5 -50.5t-18.5 -56.5t-19.5 -58q-16 -44 -24 -50q-13 -10 -35 14q-12 13 -21.5 29.5t-15.5 34.5t-11 36.5t-7 37t-3.5 35t-2 32t-0.5 25.5t1 19v9q-11 -18 -21.5 -39.5t-23.5 -58t-20 -56t-25.5 -77t-25.5 -77.5q-14 -13 -46 -4t-38 31q-21 74 -11 217t43 251
q44 -13 69.5 -24.5t34 -19t6.5 -13.5q-17 -40 -38 -140.5t-27 -182.5q42 123 95 242t84 120q13 0 33 -5.5t35 -14t14 -13.5q-41 -173 -34 -274q112 306 161 307q12 0 32 -5.5t35 -14t14 -13.5q-5 -19 -8.5 -37.5t-9.5 -49.5t-9 -56.5t-5.5 -60t-0.5 -59t6.5 -53t16.5 -43.5
t28.5 -29.5t42 -11t57.5 11.5z" />
    <glyph glyph-name="n_alt1" horiz-adv-x="870" 
d="M352 452q-57 -242 -18 -343q32 -85 127 -86q62 1 127.5 49.5t108 122t56.5 160t-28 162.5q111 -35 113.5 -155.5t-95 -233.5t-239.5 -128q-89 -10 -147.5 6.5t-89.5 60t-42 102t-10 146.5q-11 -18 -21.5 -39.5t-23.5 -58t-20 -56t-25.5 -77t-25.5 -77.5q-5 -14 -42 -4
t-43 31q-21 74 -10.5 216.5t43.5 252.5q44 -14 69.5 -25.5t34 -19t5.5 -13.5q-16 -39 -37 -139.5t-28 -183.5q41 121 95 241t85 121q19 1 51 -11.5t30 -20.5z" />
    <glyph glyph-name="n_alt2" horiz-adv-x="1096" 
d="M1031 -66q-39 68 -82.5 112t-84.5 61.5t-85 21.5t-85 -8t-83.5 -26.5t-80.5 -33.5t-77 -29.5t-72.5 -15.5t-66.5 10q-33 16 -55 51.5t-30.5 71t-12 77t-3 59.5t1.5 30q-11 -18 -21.5 -39.5t-23.5 -58t-20 -56t-25.5 -77t-25.5 -77.5q-5 -14 -42 -4t-43 31
q-21 74 -10.5 216.5t43.5 252.5q44 -14 69.5 -25t34 -19t5.5 -14q-17 -40 -38 -140.5t-27 -182.5q41 121 95 241t85 121q19 1 51 -12t30 -20q-15 -63 -23 -119t-10.5 -140.5t35.5 -121.5t116 -8q27 10 80 35t94 44t98.5 33.5t105 13t101.5 -27t100 -78.5q31 -35 -18 -149z
" />
    <glyph glyph-name="o_alt1" horiz-adv-x="687" 
d="M338 431q-112 44 -178 -54q-49 -74 -48 -179q1 -92 41 -118q14 -9 31 -7q43 6 76 49.5t45 95t4 86.5q-68 2 -75 44q-6 31 22 53q25 18 52 7q45 -18 50 -84q253 34 273 261q15 -26 25.5 -59t9.5 -71t-21 -59q-44 -49 -131.5 -72.5t-155.5 -23.5q-1 -44 -21 -110
q-27 -85 -83 -139.5t-134 -50.5q-46 2 -77 44t-38.5 105t1.5 130t45.5 126.5t91.5 87.5q42 24 88 22t76 -34q21 -24 31 -50z" />
    <glyph glyph-name="o_alt2" horiz-adv-x="971" 
d="M338 431q-112 44 -178 -54q-49 -74 -48 -179q1 -92 41 -118q14 -9 31 -7q43 6 76 49.5t45 95t4 86.5q-68 2 -76 44q-5 30 22 52q25 20 53 8q42 -18 49 -74q36 9 100.5 27.5t106.5 30t98.5 21.5t95.5 8.5t78 -16.5t64 -46q12 -15 19 -36t12.5 -48.5t10.5 -41.5
q-37 36 -79 60.5t-79 38t-86.5 17.5t-83.5 4t-88.5 -8.5t-83 -14.5t-84.5 -19q1 -52 -21 -121q-27 -85 -83 -139.5t-134 -50.5q-46 2 -77 44t-38.5 105t1.5 130t45.5 126.5t91.5 87.5q42 24 88 22t76 -34q21 -24 31 -50z" />
    <glyph glyph-name="p_alt1" horiz-adv-x="454" 
d="M278 438q-32 34 -74 -41q-45 -80 -56 -185q-13 -115 36 -128q6 -2 13 -2q22 0 47.5 46t41.5 105.5t16 119.5t-24 85zM7 -51q-5 142 24.5 330.5t57.5 267.5q37 -3 77.5 -16.5t36.5 -22.5q-3 -6 -12 -36q21 23 44 35q76 39 140 -42q35 -44 42 -111.5t-11 -132.5t-48 -120.5
t-72 -84t-80 -15.5q-63 21 -90 89q-2 -9 -9.5 -72.5t-6.5 -63.5q96 -44 97 -117q1 -50 -41 -81q-43 -31 -85 -7q-55 31 -63 175q-75 -9 -174.5 -35t-183.5 -51t-179.5 -49.5t-176.5 -29t-158 10t-142 67.5t-111 143q76 -61 181 -88t229.5 -23t234.5 18t252 35t227 27z
M92 -75q-15 -118 21 -137q11 -6 24 4q16 12 21.5 35t-10 51.5t-56.5 46.5z" />
    <glyph glyph-name="q_alt1" horiz-adv-x="438" 
d="M217 443q-43 -17 -70 -90t-26 -143.5t28 -83.5q49 -24 86 62q36 82 34 176q-3 84 -40 82q-6 0 -12 -3zM-914 4q77 -62 184.5 -90t233.5 -23.5t239.5 18.5t255.5 34t229 25q-7 49 -4 97q-55 -55 -126 -48q-40 4 -66 47.5t-29.5 106.5t7.5 129.5t45.5 124.5t84.5 83
q39 22 79 17.5t66 -37.5q12 -16 22 -44q19 54 25 69q26 -8 45.5 -17.5t30 -18t17 -16.5t8 -14t0.5 -10q-7 -26 -27 -97.5t-33.5 -127t-22.5 -106.5q-12 -67 -14 -140q96 -26 107 -82q8 -42 -30 -70q-43 -33 -95 -9q-14 7 -27 18q-42 36 -59 121q-68 -6 -154.5 -25.5
t-162 -43t-162 -45.5t-160.5 -36.5t-150.5 -13.5t-139 21t-119.5 71t-98 132zM336 -61q3 -85 40 -93q19 -4 31 14q14 21 -1.5 45.5t-69.5 33.5z" />
    <glyph glyph-name="s_alt" horiz-adv-x="358" 
d="M114 244q-7 35 -5 83t9 91t33.5 70t69.5 21q38 -5 68.5 -24.5t38.5 -52.5q7 -37 2.5 -76t-17 -79t-25.5 -71t-22.5 -51.5t-9.5 -21.5q19 -160 -17 -234.5t-133 -39.5q-147 53 -303.5 62.5t-315.5 -31t-288 -131.5q19 131 92 153q195 55 397 48.5t397 -65.5q24 -7 39.5 0
t21 28t6 46.5t-4.5 63t-10.5 69.5t-12.5 73.5t-10 68.5zM247 176q33 78 45.5 137.5t7.5 85t-18 24.5t-24.5 -29t-17 -83t6.5 -135z" />
    <glyph glyph-name="t_alt1" horiz-adv-x="289" 
d="M362 81l9 -22q-130 -75 -212.5 -56t-117.5 107.5t-19 223.5q7 67 28 143l-49 14l-1 27q23 -5 57 -10q27 96 52 166q42 -13 67 -30t30.5 -28t3.5 -19q-9 -34 -27 -100q73 -7 140 15t114.5 62.5t79 94.5t39 108t-12.5 105t-69 84q-4 3 4 4q34 6 89 -14q105 -41 102 -139
q-2 -56 -43 -120.5t-105.5 -119t-158 -88t-189.5 -27.5q-22 -78 -33 -151q-14 -88 -8 -149.5t31 -93.5t75.5 -29.5t123.5 42.5z" />
    <glyph glyph-name="u_alt" horiz-adv-x="1025" 
d="M370 29q-72 33 -104 93q-29 63 -25 159q-44 -227 -116 -273q-48 -30 -85 34q-49 88 -38 267q7 105 37 218q44 -14 69 -25t33.5 -18.5t6.5 -14.5q-43 -157 -37 -292q4 -83 27 -79q20 5 45 86.5t50 192.5t31 130q43 -13 69 -24.5t34 -18.5t6 -14q-35 -150 -36 -217
q-3 -162 121 -207q144 -51 307 11q109 42 160 108q45 59 1 91l-6 4q67 13 93 -26q24 -38 -13 -87q-29 -38 -88 -65q-124 -56 -275 -67.5t-267 34.5z" />
    <glyph glyph-name="y_alt1" horiz-adv-x="385" 
d="M297 -25q97 6 200 -6.5t226.5 -36.5t192.5 -32q50 -7 90 -8q234 -12 441 84q-31 -61 -75.5 -101.5t-87.5 -59.5t-98 -25t-94.5 -3.5t-90.5 9.5q-6 1 -18.5 2.5t-18.5 2.5q-8 1 -23.5 4t-23.5 4q-84 16 -213 55t-231 62t-183 19q-42 -156 -129 -191q-57 -23 -101 15
q-41 34 -30 85q15 67 120 102q14 4 29 8q19 75 34 194q-46 -153 -107 -166q-46 -10 -77 66q-46 114 -20 312q10 73 30 149q43 -13 68.5 -24.5t34 -19t6.5 -14.5q-43 -157 -37 -292q4 -83 27 -79q28 7 60.5 140t37.5 243q0 11 73 -16q46 -18 45 -24q-12 -252 -57 -458z
M170 -69q-32 -10 -55 -24.5t-34 -29t-15.5 -28.5t-2 -24t10.5 -14q11 -6 26 1.5t35 38t35 80.5z" />
    <glyph glyph-name="y_alt2" horiz-adv-x="385" 
d="M293 -44q97 -27 95 -119q-1 -84 -77 -171q-81 -95 -183 -113q-63 -11 -118 13q-52 22 -91 73.5t-44 118.5q116 -130 266 -106q102 16 171 90q61 66 47 125q-11 47 -72 66q-44 -149 -128 -180q-58 -21 -101 18q-40 35 -27 85q17 70 130 103q9 3 18 5q19 75 34 194
q-46 -153 -107 -166q-46 -10 -77 66q-46 114 -20 312q10 73 30 149q43 -13 68.5 -24.5t34 -19t6.5 -13.5q-43 -158 -37 -293q4 -83 27 -79q28 8 60.5 140.5t37.5 242.5q0 11 73 -16q46 -18 45 -24q-14 -267 -61 -477zM170 -69q-31 -10 -54 -24t-34.5 -28t-16 -28t-2 -24
t9.5 -15q6 -3 14 -3t18.5 8t21 21t22 37.5t21.5 55.5z" />
    <glyph glyph-name="l_alt1" horiz-adv-x="274" 
d="M346 81l9 -22q-123 -72 -204 -57t-118.5 92.5t-29.5 201.5q7 117 55 272q-58 44 -79.5 108.5t-6.5 129t50.5 122.5t92.5 98t118 48q95 12 173 -27.5t116.5 -117t24.5 -172.5q-134 227 -289 243q-105 11 -185 -76q-70 -77 -76 -174q-6 -104 69 -159q14 43 25 69
q58 132 144 155q63 16 107 -29q44 -43 29 -102q-19 -79 -133 -120q-27 -10 -59 -17v-1q-38 -138 -50 -212q-17 -94 -13 -160.5t28.5 -101.5t75 -33.5t126.5 42.5zM188 574q39 8 69.5 23t46.5 32t24.5 35t7.5 32.5t-9 23.5q-7 8 -17 9t-24.5 -7t-29.5 -24.5t-33 -48.5
t-35 -75z" />
    <glyph glyph-name="l_alt2" horiz-adv-x="270" 
d="M348 81l9 -22q-123 -72 -204 -57t-118.5 92.5t-29.5 201.5q6 103 46 239q-75 3 -179.5 23t-190 37t-181.5 25t-192.5 -14t-184.5 -78q16 57 64 100.5t107.5 64.5t118.5 18q74 -4 173.5 -29.5t178.5 -53t162 -48t133 -16.5q10 36 33 96q58 132 144 155q63 16 107 -29
q44 -43 29 -102q-19 -79 -133 -120q-27 -10 -59 -17v-1q-38 -138 -50 -212q-17 -94 -13 -160.5t28.5 -101.5t75 -33.5t126.5 42.5zM190 574q40 8 70 23t46.5 32.5t24.5 35t7 32t-9 23.5q-7 8 -17.5 9t-24.5 -7t-29.5 -25t-33.5 -48.5t-34 -74.5z" />
    <glyph glyph-name="b_alt3" horiz-adv-x="807" 
d="M878 86l9 -22q-139 -79 -224 -53t-115 130.5t-1 256.5q-28 -12 -54 -6q-43 -58 -107 -53q5 -108 -50 -214t-122 -120q-62 -12 -106 4.5t-67 53t-34 90t-10 110.5t9 118t18.5 109t22.5 88q-64 43 -89 108t-11 131t49 126t93 101t120 49q95 13 172.5 -26.5t116.5 -117
t25 -172.5q-134 228 -290 243q-106 10 -186 -77q-69 -77 -75 -175q-6 -109 76 -163q4 -2 7 -4q17 52 28 78q58 134 145 156q63 16 107 -30q42 -45 27 -104q-21 -80 -139 -120q-24 -8 -51 -14q-20 -72 -28 -108q26 37 59 54q40 19 76 7t64 -49q33 -42 41 -104q47 -1 78 37
q-39 26 -48.5 80t21.5 130l87 -50q-39 -109 -13 -137q15 -17 37 8q21 23 26 63q9 -3 24.5 -8t37 -13t35.5 -18t12 -18q-19 -81 -27.5 -146t-6 -116t17.5 -82.5t42.5 -45t70.5 -5t100 39.5zM315 744q-8 4 -18 5t-24 -9.5t-28.5 -27t-31.5 -47.5t-33 -71q41 8 72.5 24.5
t47 34.5t23 36.5t5 33t-12.5 21.5zM165 89q22 0 47.5 46t41.5 105t16 119.5t-24 85.5q-32 34 -74 -41q-44 -80 -56 -185q-13 -115 36 -129q6 -1 13 -1z" />
    <glyph glyph-name="b_alt4" horiz-adv-x="810" 
d="M249 445q-31 33 -73 -40q-45 -79 -57 -185q-13 -115 36 -129q7 -2 14 -2q22 0 47.5 46t41.5 105t15.5 119.5t-24.5 85.5zM48 571q32 118 69 176q61 93 140 87q57 -5 86 -55q34 -58 -5 -119q-44 -69 -169 -102q-4 -17 -11.5 -50.5t-10.5 -48.5q29 38 60 54q39 19 75 7
t65 -49q32 -42 40 -104q49 -1 78 37q-39 26 -48.5 80t21.5 130l88 -50q-39 -109 -13 -137q15 -17 37 8q21 23 26 63l25 -7.5t37 -13t35.5 -18.5t11.5 -18q-19 -81 -27.5 -146t-6.5 -116t17 -82.5t42.5 -45t70.5 -5t100 39.5l9 -22q-139 -79 -223.5 -53t-114.5 130.5
t-1 256.5q-29 -12 -54 -6q-45 -58 -107 -53q4 -108 -50.5 -214t-122.5 -120q-69 -14 -116 7.5t-67.5 69.5t-29 106.5t-2 128t15.5 123t22 102.5q-75 0 -180 16t-191.5 29t-182.5 17t-191.5 -22t-181.5 -85q22 86 106.5 140.5t176.5 53.5q92 0 226.5 -34.5t249.5 -64
t176 -21.5zM178 586q41 10 72 28t46 37t21 37.5t2 33t-14 20.5q-14 8 -33.5 -2t-45.5 -49.5t-48 -104.5z" />
    <glyph glyph-name="b_alt5" horiz-adv-x="751" 
d="M624 -56q-59 -16 -87.5 -45.5t-26.5 -54t20 -34.5q9 -3 18.5 -3t20.5 9t21 24t19 42t15 62zM180 594q42 8 73.5 24.5t47 35t22.5 37.5t3.5 33.5t-13.5 20.5q-14 9 -33.5 -0.5t-47 -48t-52.5 -102.5zM170 566q-8 -28 -27 -107q29 38 60 54q39 19 75 7t65 -49
q32 -40 40 -104q44 -2 73 31q-36 33 -42 85.5t26 108.5l88 -50q-42 -110 7 -126q31 -9 68 21q25 19 28 40q16 -5 49 -29.5t21 -33.5l-92 -151q70 -67 103 -139.5t28 -163.5q-11 -97 -74.5 -160t-127.5 -51q-44 8 -61 55q-22 58 20 109q41 51 131 68q-1 37 -15 70.5t-33 55.5
t-38 38t-32 24t-13 9q7 26 54.5 106t59.5 111q-69 -46 -129 -16q-40 -44 -96 -40q4 -108 -50.5 -214t-121.5 -120q-62 -13 -106 4t-67.5 53.5t-34.5 90t-10 110t9 118t18.5 109.5t22.5 88q-64 43 -89 108t-11 130.5t49.5 125.5t93.5 101.5t120 49.5q94 13 172 -26.5
t117 -117.5t25 -173q-134 227 -289 243q-106 11 -186 -76q-70 -76 -76 -175q-6 -109 77 -163q2 -1 5 -3q60 183 158 226q65 28 114 -13q45 -38 38 -96q-10 -78 -108 -125q-38 -17 -86 -28zM246 445q-32 34 -74 -41q-44 -80 -56 -185q-13 -115 36 -129q6 -1 13 -1
q22 0 47.5 46t41.5 105t16 119.5t-24 85.5z" />
    <glyph glyph-name="b_alt6" horiz-adv-x="755" 
d="M629 -55q-34 -10 -58.5 -24t-36 -29t-16 -30t-1.5 -27t11 -19q7 -7 17.5 -8.5t22.5 5.5t23 21.5t21.5 43.5t16.5 67zM48 570q30 117 73 181q61 90 139 82q57 -5 85 -56q33 -58 -6 -119q-45 -68 -168 -100l-1 -1q-6 -19 -12.5 -53t-9.5 -45q29 38 60 54q39 19 75 7t65 -49
q32 -42 40 -104q41 -1 73 31q-36 33 -42 85.5t26 108.5l87 -50q-42 -109 6 -125q31 -10 69 20q26 20 29 41q18 -6 50 -30t20 -34l-92 -151q70 -67 103 -139.5t27 -163.5q-10 -97 -73.5 -160t-127.5 -51q-44 8 -61 55q-22 57 19 109t132 69q-1 37 -15 70.5t-33 55t-38 38
t-32 24.5t-13 9q6 24 53.5 104t59.5 113q-68 -48 -128 -17q-44 -44 -96 -40q4 -108 -50.5 -214t-122.5 -120q-60 -12 -103 3t-66 48.5t-35 83.5t-12.5 102t5.5 111t14.5 103t18.5 86q-75 0 -180 16t-191 29t-182 17t-191.5 -22t-181.5 -85q22 86 106.5 140.5t176.5 53.5
q92 0 225.5 -34.5t248.5 -64.5t177 -22zM179 586q40 10 70 26.5t45 35t22 36.5t5 32.5t-11 22.5q-8 5 -18 6.5t-24 -9t-28 -27t-30.5 -49t-30.5 -74.5zM250 445q-31 33 -73 -40q-45 -79 -57 -185q-13 -115 36 -129q7 -2 14 -2q22 0 47.5 46t41.5 105t15.5 119.5t-24.5 85.5z
" />
    <glyph glyph-name="d_alt3" horiz-adv-x="946" 
d="M221 428q-43 -17 -70 -90t-26 -143.5t28 -83.5q50 -24 87 61q34 81 32 175q-3 83 -38 84q-6 0 -13 -3zM451 592q42 8 73 24.5t47 34.5t23 36.5t4.5 33t-12.5 21.5q-14 9 -34 0.5t-48 -47t-53 -103.5zM441 564q-25 -75 -48 -213q-3 -19 -6 -42.5t-5.5 -60t0.5 -68.5
t10.5 -61t26 -44.5t45.5 -11.5q39 6 68.5 42t45 91t23 102t10.5 96q-45 21 -58 78t21 137l87 -50q-39 -109 -13 -137q15 -17 37 8q22 23 27 63q114 -33 109 -57q-19 -81 -27.5 -146t-6.5 -116t17 -82.5t42.5 -45t70.5 -5t100 39.5l9 -22q-139 -79 -224 -53t-115 130.5
t-1 256.5q-27 -12 -54 -6q-12 -167 -42 -247q-46 -121 -143 -123q-118 -3 -161 120q-30 -67 -77.5 -104t-106.5 -31q-40 4 -66 47.5t-29.5 106.5t7.5 129.5t45.5 124.5t84.5 83q39 22 79 17.5t66 -37.5q0 -2 2 -4q8 38 21 84q-75 3 -179.5 23t-190 36.5t-181.5 24.5
t-192.5 -14t-184.5 -78q24 85 111 136t179 47t224.5 -44t246.5 -74t175 -29q61 197 163 243q65 30 115 -12q45 -37 37 -97q-10 -77 -108 -123q-38 -17 -86 -28z" />
    <glyph glyph-name="d_alt4" horiz-adv-x="942" 
d="M217 428q-43 -17 -70 -90t-26 -143.5t28 -83.5q51 -25 88 63q35 81 31 175q-4 83 -39 82q-6 -1 -12 -3zM683 393q-29 -12 -54 -6q-12 -154 -36 -227q-45 -140 -149 -143q-119 -3 -162 120q-31 -67 -77.5 -104t-105.5 -31q-41 4 -67 47.5t-29.5 106.5t7.5 129.5
t45.5 124.5t84.5 83q39 22 79.5 17.5t65.5 -37.5l2 -2t1 -2q10 49 28 111q-73 55 -88 140t18 161.5t99.5 136.5t143.5 70q145 19 240 -77t74 -241q-134 228 -289 244q-106 11 -186 -77q-70 -77 -76 -175q-5 -105 72 -159q60 184 160 223q64 26 112 -16q45 -38 36 -97
q-11 -78 -112 -123q-36 -16 -82 -26q-14 -43 -30.5 -119.5t-28 -169.5t7.5 -156t73 -56q39 6 68.5 42t45 91t23 101.5t11.5 96.5q-45 21 -58 78t20 137l88 -50q-39 -109 -13 -137q15 -17 37 8q21 23 26 63q9 -3 24.5 -8t37 -13t35.5 -18t12 -18q-19 -81 -27.5 -146
t-6.5 -116t17 -82.5t42.5 -45t70.5 -5t100 39.5l9 -22q-139 -79 -223.5 -53t-114.5 130.5t-1 256.5zM448 592q40 8 70.5 23.5t46.5 33t24 35.5t6.5 32.5t-10.5 22.5q-7 7 -17.5 7.5t-25 -8t-29.5 -25.5t-32 -48t-33 -73z" />
    <glyph glyph-name="d_alt5" horiz-adv-x="873" 
d="M217 427q-43 -17 -70 -90t-26 -144t28 -84q50 -24 87 63q35 81 31 175q-2 84 -38 83q-6 -1 -12 -3zM746 -56q-93 -26 -110 -82q-10 -34 14 -50q4 -3 8 -4q11 -4 23 1.5t24.5 20t23.5 44t17 70.5zM862 -41q-11 -97 -74.5 -160t-127.5 -51q-43 8 -61 55q-21 58 19.5 109.5
t131.5 68.5q-1 37 -15 70.5t-33 55.5t-38 38t-32 24t-13 9q7 25 54.5 104.5t59.5 112.5q-56 -38 -106 -25q-3 -39 -6 -65.5t-10.5 -73.5t-20 -79t-31.5 -65.5t-48.5 -51.5t-67.5 -19q-117 -4 -162 120q-30 -66 -77 -104t-106 -32q-40 4 -66 47.5t-29.5 107t7.5 130
t45.5 124.5t84.5 83q93 47 144 -21l3 -3q12 58 29 111q-59 44 -81.5 108.5t-7.5 129t50.5 123t93 98.5t118.5 48q94 12 172 -27t116.5 -117t24.5 -173q-134 228 -289 244q-106 11 -186 -77q-70 -77 -76 -175q-5 -105 72 -159q15 43 27 74q57 131 142 154q63 16 107 -30
q43 -45 27 -104q-21 -79 -138 -119q-24 -8 -51 -14q-34 -103 -48 -214q-3 -18 -4 -29.5t-4 -40.5t-3 -50t0.5 -50t6 -48.5t14 -37.5t24 -26t36.5 -5q38 5 66.5 38.5t44.5 85t24 97t12 95.5q-51 25 -66 86.5t22 127.5l88 -51q-41 -107 5 -124q30 -11 69 19q26 20 29 41
q18 -6 50.5 -30t20.5 -34l-92 -150q70 -68 102.5 -140.5t27.5 -163.5zM447 591q42 8 73.5 24.5t47 34.5t22.5 36.5t4 33t-13 21.5q-14 9 -34 0t-47.5 -47t-52.5 -103z" />
    <glyph glyph-name="d_alt6" horiz-adv-x="871" 
d="M215 427q-43 -17 -70 -90.5t-26 -144t28 -83.5q51 -25 88 62q34 82 31 176q-4 84 -39 83q-6 -1 -12 -3zM446 590q40 8 71 24t47 33.5t23.5 35.5t5.5 32.5t-11 22.5q-8 5 -18 6.5t-24 -8t-29 -25.5t-32 -47.5t-33 -73.5zM436 563q-27 -82 -49 -214q-3 -19 -6 -42.5
t-5.5 -60t0.5 -68.5t10.5 -61t26 -44t45.5 -11q37 5 65.5 38.5t44.5 85t24 97t12 95.5q-51 25 -65.5 86.5t22.5 126.5l87 -50q-42 -109 6 -125q31 -10 69 20q26 20 29 41q18 -6 50 -30t20 -34l-92 -151q70 -67 103 -139.5t27 -163.5q-10 -97 -73.5 -160t-127.5 -51
q-44 8 -61 55q-22 57 19 109t132 69q-1 37 -15 70.5t-33 55t-38 38t-32 24.5t-13 9q7 25 54.5 104.5t59.5 112.5q-55 -38 -106 -25q-2 -33 -4 -55t-8.5 -62t-14 -68t-21.5 -62.5t-32 -55.5t-45 -36t-59 -16q-118 -3 -162 120q-30 -66 -77.5 -103.5t-105.5 -31.5
q-29 3 -51 27t-33 61.5t-14 83t5.5 94t24.5 92.5t44.5 80t64.5 54q39 21 79 16.5t66 -37.5l2 -3q11 47 21 84q-75 3 -179.5 23t-190 36.5t-181.5 24.5t-192.5 -14t-184.5 -78q16 57 64 100.5t107.5 64.5t118.5 18q74 -4 173.5 -29.5t178.5 -53t162 -48t133 -16.5
q17 52 33 96q57 131 144 153q63 16 108 -29q43 -44 28 -102q-20 -79 -138 -120q-25 -9 -54 -15zM745 -56q-34 -10 -59 -24.5t-36.5 -30t-15.5 -30.5t-0.5 -27t12.5 -19q8 -6 18 -6.5t22 7t22.5 22.5t20.5 43t16 65z" />
    <glyph glyph-name="g_alt3" horiz-adv-x="820" 
d="M217 428q-43 -17 -70 -90.5t-26 -144t28 -83.5q50 -24 88 62q36 81 33 174q-2 85 -40 85q-6 0 -13 -3zM561 393q-28 -12 -54 -6q-18 -25 -49 -41t-67 -10q-19 -223 -48 -358q107 10 231.5 -6t230 -37.5t219.5 -35t241 4.5t253 77q-19 -38 -43.5 -68t-48.5 -50.5
t-55.5 -34.5t-56.5 -22.5t-60 -11.5t-57.5 -3.5t-58.5 2.5t-53 5.5t-49 7.5q-99 15 -240.5 57t-256 68.5t-202.5 16.5q-41 -163 -129 -200q-57 -24 -103 13q-41 34 -31 84q13 67 114 102q17 5 35 10q13 55 23 118q-62 -82 -147 -74q-29 3 -51 27t-33 61.5t-14 83t5.5 94
t24.5 92.5t44.5 80t64.5 54q38 21 77 17t65 -34q0 22 1 32q29 -6 46 -10.5t36 -10t27.5 -10t8.5 -9.5q-6 -85 -8 -105q50 -6 83 37q-39 25 -48.5 79.5t21.5 129.5l87 -50q-39 -109 -13 -137q15 -17 37 8q21 23 26 63l25 -7.5t37 -13t35.5 -18.5t11.5 -18q-19 -81 -27.5 -146
t-6 -116t17.5 -82.5t42.5 -45t70.5 -5t100 39.5l9 -22q-139 -79 -224 -52.5t-115 130.5t-1 256zM214 -76q-29 -9 -51 -22t-33.5 -26t-17.5 -26t-5.5 -23t5.5 -17t13.5 -8t19.5 5t22 19.5t23.5 38.5t23.5 59z" />
    <glyph glyph-name="g_alt4" horiz-adv-x="845" 
d="M218 427q-43 -17 -70 -90t-26 -143.5t28 -83.5q50 -25 88 62q36 81 33 174q-3 84 -40 84q-6 0 -13 -3zM585 393q-27 -12 -54 -7q-23 -29 -59 -45t-79 0q-17 -221 -54 -385q101 -23 105 -111q4 -83 -68 -172q-78 -95 -178 -120q-70 -17 -132 10q-51 22 -90 74t-45 118
q116 -129 266 -106q102 17 171 92q61 65 47 124q-12 50 -82 68q-43 -155 -130 -187q-56 -21 -99 16q-41 36 -29 86q16 68 124 102q12 4 24 7q10 36 23 117q-63 -83 -147 -73q-40 4 -66 47.5t-29.5 106.5t7.5 129.5t45.5 124.5t84.5 83q37 21 76.5 17.5t64.5 -34.5q1 12 1 32
q55 -11 87 -21t31 -19q-2 -50 -6 -100q30 -11 59 -0.5t46 32.5q-40 26 -50 80.5t22 129.5l88 -51q-40 -110 -13 -137q16 -16 38 9q20 23 25 63l10 -3q11 -4 19.5 -6.5t21.5 -7.5t22.5 -9.5t19 -10t13.5 -11t3 -10.5q-19 -81 -27.5 -146t-6 -115.5t17.5 -82.5t42.5 -45.5
t70.5 -5t100 39.5l9 -22q-140 -79 -224.5 -52.5t-114.5 131t-1 256.5zM214 -76q-29 -9 -51 -22t-34 -26.5t-17.5 -26.5t-5 -23.5t6.5 -16.5q5 -6 13.5 -7t19 5.5t22 19.5t24 38.5t22.5 58.5z" />
    <glyph glyph-name="h_alt3" horiz-adv-x="865" 
d="M606 393q-28 -12 -54 -6q-3 -42 -6 -72.5t-10 -79t-18.5 -82.5t-27.5 -68.5t-40.5 -52.5t-55.5 -19q-45 -1 -79.5 17.5t-52 48.5t-30 66t-13.5 69.5t-3.5 59.5t0.5 36v5q-7 -12 -14 -26.5t-13 -27.5t-14 -34.5t-13 -35t-14.5 -42t-14 -42.5t-16 -49.5t-16.5 -50.5
q-9 -13 -44 -3.5t-41 30.5q-20 71 -16 171.5t21 197t41 173.5q-53 36 -79 88t-24.5 106t23 109t57.5 99.5t85 75t101 37.5q95 12 173 -27.5t116.5 -117t24.5 -172.5q-133 227 -288 243q-106 11 -186 -76q-70 -76 -76 -174q-7 -109 76 -164q2 -1 5 -3q33 96 69 150
q65 93 144 85q56 -5 85 -55q32 -58 -6 -116q-45 -71 -176 -100q-31 -93 -58.5 -222.5t-34.5 -219.5q41 121 95 241t85 121q12 0 32 -5.5t35 -14t14 -13.5q-81 -340 26 -389q29 -13 53 0t39 44t26.5 71.5t17.5 82.5t10 76.5t5 53.5v4q-45 21 -58 78t20 137l88 -50
q-39 -109 -13 -137q15 -17 37 8q21 23 26 63q9 -3 24.5 -8t37 -13t35.5 -18t12 -18q-19 -81 -27.5 -146t-6.5 -116t17 -82.5t42.5 -45t70.5 -5t100 39.5l9 -22q-139 -79 -223.5 -53t-114.5 130.5t-1 256.5zM196 591q40 8 70.5 23t46.5 32t24 35t7 32.5t-9 23.5q-7 8 -17 9.5
t-24 -5.5t-28.5 -22.5t-31.5 -44.5t-32 -69z" />
    <glyph glyph-name="h_alt4" horiz-adv-x="868" 
d="M55 537q-75 3 -179.5 23t-190 36.5t-181.5 24.5t-192.5 -14t-184.5 -78q16 57 64 100.5t107.5 64.5t118.5 18q93 -4 225.5 -44t246 -74t175.5 -29q19 60 33 96q58 133 144 156q63 16 108 -29q43 -44 28 -103q-19 -79 -133 -120q-27 -10 -59 -17q-72 -216 -90 -426
q41 121 95 241t85 121q19 1 51 -12t30 -21q-80 -341 26 -389q29 -13 53 0t39 44t26.5 71.5t17.5 82.5t10 76.5t5 53.5v4q-45 21 -58 78t20 137l88 -50q-39 -109 -13 -137q15 -17 37 8q21 23 26 63q9 -3 24.5 -8t37 -13t35.5 -18t12 -18q-29 -122 -34 -207.5t17 -137t75 -53
t139 42.5l9 -22q-140 -79 -224.5 -53t-114.5 130.5t-1 256.5q-28 -12 -54 -6q-3 -42 -6 -72.5t-10 -79t-18.5 -82.5t-27.5 -68.5t-40.5 -52.5t-55.5 -19q-41 -1 -73 15t-50.5 39.5t-31 58.5t-17 62t-6 60.5t-1 44t1.5 22.5q-11 -18 -21.5 -39.5t-23.5 -58t-20 -56t-25.5 -77
t-25.5 -77.5q-9 -12 -44 -3t-41 30q-21 67 -17.5 161t17.5 178.5t37 163.5zM195 576q42 8 73.5 24.5t47 35t22 37t3.5 33t-13 20.5q-14 9 -34 0t-47.5 -47.5t-51.5 -102.5z" />
    <glyph glyph-name="h_alt5" horiz-adv-x="800" 
d="M674 -56q-34 -9 -58.5 -23.5t-36 -29t-16 -29.5t-2 -27t10.5 -20q8 -7 18 -8.5t22 5.5t23.5 22t22 43.5t16.5 66.5zM188 563q-32 -97 -58.5 -221t-34.5 -220q24 69 52.5 142t67.5 146t60 74q19 0 51 -13t30 -20q-82 -341 26 -390q40 -18 70.5 12.5t46 96.5t22.5 112
t11 97q-50 25 -65 86.5t22 126.5l88 -51q-42 -109 6 -124q31 -10 69 19q26 20 29 41q16 -5 49 -29.5t21 -33.5l-92 -151q141 -136 130 -303q-11 -97 -74 -160t-127 -51q-43 8 -61 54q-22 57 18 108q41 53 133 70q-1 37 -15 70.5t-33 55.5t-38 38t-32 24t-13 9
q7 25 54.5 104.5t58.5 112.5q-53 -38 -107 -24q-5 -64 -12 -112.5t-23.5 -111t-47.5 -98t-74 -36.5q-45 -1 -79.5 17.5t-52 48.5t-30 66t-14 69.5t-3.5 59.5t1 36v4q-7 -11 -14 -26t-13 -27.5t-14 -34.5t-13 -35t-14.5 -42t-14 -42t-16 -49.5t-16.5 -50.5q-9 -13 -44 -4
t-41 30q-22 71 -17 172.5t22 193t43 176.5q-64 43 -89.5 108t-12 130.5t49 126t93.5 101.5t120 49q95 12 172.5 -27t116.5 -117t25 -173q-134 228 -289 243q-107 11 -187 -77q-69 -77 -74 -175q-6 -109 77 -163q2 -1 5 -3q17 52 28 78q58 133 144 156q63 16 107 -29
q43 -44 28 -103q-19 -80 -134 -121q-27 -9 -58 -16zM198 591q71 14 111 49t36.5 62.5t-17.5 40.5q-14 7 -33 -2t-44 -44t-47 -92z" />
    <glyph glyph-name="h_alt6" horiz-adv-x="799" 
d="M672 -56q-39 -11 -65.5 -28.5t-35 -34.5t-11 -33.5t6.5 -26.5q16 -25 44 -9q44 24 61 132zM183 547q-72 -216 -89 -426q41 121 95 241t85 121q19 1 51 -11.5t30 -20.5q-82 -341 26 -390q18 -5 32.5 -6t27 10.5t22.5 24.5t18.5 35t15 42.5t12 47t9 47.5t6 45.5t4 40
t2.5 31.5q-50 25 -64.5 86.5t22.5 126.5l88 -51q-41 -107 5 -124q30 -11 69 19q26 20 29 41q17 -4 50 -29t21 -34l-92 -151q70 -68 102.5 -140.5t27.5 -163.5q-11 -96 -74 -159.5t-127 -51.5q-44 8 -61 55q-22 58 18 110q41 51 132 68q-1 37 -15 70.5t-33 55.5t-38 38
t-32 24t-13 9q7 25 54.5 104.5t59.5 112.5q-56 -39 -107 -24q-4 -50 -8.5 -88t-16 -92t-27 -89.5t-43.5 -62t-63 -27.5q-31 -1 -56.5 8t-43 22.5t-31.5 36.5t-22 41.5t-13.5 48t-8 45t-3 42.5t-0.5 32t1 22v4q-8 -13 -15.5 -28t-16.5 -37t-14.5 -36t-16.5 -46.5t-15.5 -46.5
t-18.5 -56.5t-19 -57.5q-9 -13 -43.5 -3.5t-40.5 30.5q-19 65 -17 157.5t16.5 180.5t36.5 165q-75 3 -179.5 23t-190 37t-181.5 25t-192.5 -14t-184.5 -78q16 57 64 100.5t107.5 64t118.5 17.5q92 -4 225 -44t246.5 -73.5t175.5 -28.5q12 40 33 96q57 131 143 155
q63 17 108 -29q44 -44 29 -103q-19 -79 -133 -120q-27 -10 -59 -17zM192 575q106 21 139 85q19 38 0 60q-4 6 -11 8q-11 4 -24.5 -2t-30.5 -22.5t-36 -49.5t-37 -79z" />
    <glyph glyph-name="j_alt3" horiz-adv-x="771" 
d="M334 500q-42 5 -66.5 29t-30 54.5t-4.5 60.5t7 50l5 20q43 -7 70 -20t34.5 -23.5t6.5 -18.5q-2 -22 -11 -76t-11 -76zM512 393q-30 -152 0 -256.5t115 -130.5t224 53l-9 22q-57 -31 -100 -39.5t-70.5 4.5t-42.5 45t-17 82.5t6.5 115.5t27.5 146q1 5 -3.5 10.5t-13.5 10.5
t-19 10t-22.5 9.5t-21.5 8t-18 6t-11 3.5q-7 -53 -36 -72q-24 -16 -34 11q-13 37 19 127l-87 50q-31 -76 -21.5 -130t48.5 -80q-16 -21 -43.5 -31.5t-56.5 -1.5q1 13 2.5 38t2.5 38q0 16 -119 40q0 -96 -15.5 -250.5t-41.5 -258.5q-123 -30 -146 -102q-16 -50 22 -88
q40 -40 96 -24q84 24 129 162q3 7 5 15q81 -24 76 -92q-5 -64 -75 -123q-88 -73 -198 -69q-119 5 -213 109q6 -66 45 -118t90 -74q106 -46 223 31q90 58 133 151q47 101 1 163q-25 32 -75 46v2q1 1 1 2q39 168 55 376q41 -14 76 2t57 44q27 -5 55 7zM146 -60
q-17 -56 -40 -88t-38 -32.5t-25 7.5q-7 8 -3.5 23t13 30.5t34 32t59.5 27.5z" />
    <glyph glyph-name="j_alt4" horiz-adv-x="776" 
d="M330 501q-42 5 -66.5 29t-30 54t-4.5 60t7 50l5 20q43 -7 70 -20t34.5 -23t6.5 -18q-2 -26 -11.5 -84t-10.5 -68zM509 393q-29 -152 1 -256t114.5 -130.5t224.5 52.5l-9 22q-86 -44 -139 -42.5t-75 53t-17 137t34 207.5q1 5 -3 10.5t-13.5 11t-19 10t-22.5 9.5t-21.5 7.5
t-19.5 5.5l-10 4q-7 -54 -37 -73q-23 -15 -32 12q-13 37 19 126l-88 51q-31 -76 -21.5 -130.5t48.5 -79.5q-16 -22 -44 -32.5t-57 -0.5q4 49 5 75q1 9 -30.5 18.5t-88.5 22.5q0 -97 -15.5 -251.5t-41.5 -257.5q-124 -31 -147 -103q-15 -50 23 -88q41 -40 97 -23
q84 25 129 165q5 14 9 29q83 6 186 -16.5t235.5 -62.5t217.5 -56q34 -6 47 -8q24 -4 37 -6q51 -7 90 -9t94.5 4t98 24.5t87.5 59.5t76 102q-207 -97 -441 -85q-36 2 -90 8q-68 8 -195 33t-232 37.5t-204 4.5q34 154 51 357q42 -14 77.5 1.5t57.5 44.5q29 -5 54 6zM142 -59
q-10 -33 -22.5 -58.5t-24 -38.5t-22 -19.5t-19 -6t-13.5 6.5q-6 6 -6.5 16.5t5 23.5t17.5 26.5t34 27t51 22.5z" />
    <glyph glyph-name="k_alt3" horiz-adv-x="832" 
d="M188 563q-75 -230 -93 -441q41 121 95 241t85 121q15 1 29.5 0t17.5 -1q-66 -74 -103 -160q-6 -67 19 -137t70 -105q41 -31 77.5 0.5t59.5 97t36.5 124t15.5 91.5q-45 22 -57.5 79t20.5 137l87 -51q-39 -110 -12 -137q16 -16 38 9q20 23 25 63q2 -1 11 -3.5t18 -6
t21.5 -8t22.5 -9.5t19 -10t13.5 -10.5t3.5 -10.5q-19 -81 -27.5 -146t-6.5 -116t17 -82.5t42.5 -45t70.5 -5t100 39.5l9 -22q-139 -79 -224 -52.5t-115 131t0 255.5q-26 -11 -55 -6q-2 -22 -5 -46.5t-10.5 -72t-21 -88t-32 -80.5t-48 -64t-64.5 -25q-128 -6 -184 143
q-29 -82 -50 -147q-6 -7 -23 -7t-37.5 10t-24.5 24q-20 65 -15.5 164t18.5 186.5t36 167.5q-75 3 -179.5 23t-190 36.5t-181 24.5t-191.5 -14t-184 -78q24 85 111 136t179 47t223.5 -43.5t245 -74t175.5 -29.5q58 195 159 243q66 32 118 -10q45 -36 40 -95q-6 -77 -102 -124
q-40 -19 -92 -31zM198 591q40 8 70.5 23.5t46.5 33t24 35.5t6.5 32.5t-10.5 22.5q-7 7 -17.5 7.5t-24.5 -8t-29 -25t-32.5 -48t-33.5 -73.5z" />
    <glyph glyph-name="k_alt4" horiz-adv-x="834" 
d="M324 483q-67 -74 -104 -160q-5 -68 20 -138t70 -104q40 -31 77 0.5t59.5 97t36.5 124t16 91.5q-45 22 -58 79t20 137l88 -51q-40 -110 -13 -137q16 -16 38 9q20 23 25 63l11 -4q10 -3 18.5 -5.5t21.5 -7.5t22.5 -9.5t19 -10t13.5 -11t3 -10.5q-29 -122 -34 -207.5
t17 -137t75 -53t139 42.5l9 -22q-140 -79 -224.5 -52.5t-114.5 130.5t-1 256q-25 -11 -54 -6q-2 -22 -5 -46.5t-10.5 -72t-21 -88t-32.5 -80.5t-48 -64t-65 -25q-128 -6 -184 143q-29 -82 -50 -147q-6 -7 -23 -7t-37 10t-24 24q-23 73 -17.5 178t23 198t45.5 179
q-66 56 -77 140t22.5 158.5t99.5 131.5t141 67q95 13 172.5 -26.5t116.5 -117.5t25 -173q-134 227 -289 243q-106 11 -186 -76q-70 -76 -76 -175q-5 -94 58 -149q8 27 23 64q58 133 144 156q63 16 107 -29q43 -44 28 -103q-19 -80 -134 -121q-27 -9 -58 -16
q-31 -95 -57.5 -220.5t-33.5 -220.5q42 123 95 242t84 120q15 1 30.5 0t17.5 -1zM198 591q86 17 122.5 61.5t21.5 76.5q-12 26 -43 12q-53 -25 -101 -150z" />
    <glyph glyph-name="k_alt5" horiz-adv-x="769" 
d="M643 -56q-33 -9 -57.5 -23.5t-36.5 -29t-16.5 -29t-2 -26.5t10.5 -20q7 -8 17.5 -9.5t22.5 5t23.5 21.5t22 43.5t16.5 67.5zM186 563q-32 -98 -58.5 -221.5t-33.5 -219.5q42 123 95 242t84 120q15 1 30 0t18 -1q-67 -75 -104 -160q-5 -68 20 -138t70 -105q42 -24 74 -1
t57 87t38 119.5t18 96.5q-47 28 -59 87.5t24 122.5l87 -51q-42 -109 6 -124q31 -10 69 19q26 20 29 41q16 -5 49 -29.5t21 -33.5l-92 -151q141 -135 130 -303q-10 -97 -73.5 -160t-127.5 -51q-44 8 -61 55q-22 58 20 109q41 51 131 68q-1 37 -15 70.5t-33 55.5t-38 38
t-32 24t-13 9q7 25 54.5 104.5t58.5 112.5q-59 -40 -113 -22q-4 -45 -12.5 -92t-27.5 -114t-55.5 -110.5t-85.5 -45.5q-127 -6 -184 142q-27 -74 -50 -146q-6 -7 -23 -7t-37.5 10t-24.5 24q-19 66 -16 161.5t18 186t38 170.5q-75 3 -179.5 23t-190 36.5t-181 24.5t-192 -14
t-184.5 -78q16 57 64 100.5t107.5 64.5t118.5 18q92 -4 224.5 -44t246 -74t175.5 -29q20 62 34 96q58 133 144 156q63 16 107 -29q43 -44 28 -103q-19 -80 -134 -121q-27 -9 -58 -16zM196 591q70 14 110 49.5t37 63t-17 39.5q-11 4 -25 -1t-31 -21t-36.5 -49.5t-37.5 -80.5z
" />
    <glyph glyph-name="k_alt6" horiz-adv-x="769" 
d="M643 -56q-34 -9 -58.5 -23.5t-36 -29.5t-16 -30t-1.5 -27t11 -19t18 -8.5t22 5.5t23 22t21.5 43.5t16.5 66.5zM67 589q-53 45 -71.5 109t-2 127t52.5 119.5t91.5 95t115.5 46.5q95 12 172.5 -27t116.5 -117t25 -173q-134 228 -289 243q-105 11 -185 -76q-70 -77 -76 -175
q-5 -94 58 -149q10 32 23 64q58 133 144 156q63 16 107 -29q43 -44 28 -103q-19 -80 -134 -121q-27 -9 -58 -16q-31 -94 -57.5 -220t-33.5 -221q39 117 93.5 239t85.5 123q15 1 30 0t18 -1q-67 -75 -104 -160q-5 -68 19.5 -138t69.5 -105q43 -24 75 -1t57 87t38 119.5
t18 96.5q-47 28 -59 87.5t24 122.5l87 -51q-42 -109 6 -124q31 -10 69 19q26 20 29 41q16 -5 49 -29.5t21 -33.5l-92 -151q141 -135 130 -303q-10 -97 -73.5 -160t-127.5 -51q-44 8 -61 55q-22 58 20 109q41 51 131 68q-1 37 -15 70.5t-33 55.5t-38 38t-32 24t-13 9
q7 25 54.5 104.5t58.5 112.5q-59 -40 -113 -22q-4 -36 -8.5 -69t-18.5 -90t-32 -97.5t-50 -72t-72 -33.5q-127 -6 -184 142q-27 -74 -50 -146q-6 -7 -23 -7t-37.5 10t-24.5 24q-21 71 -15.5 175.5t23 201t43.5 178.5zM195 590q70 14 110 49.5t37 63t-17 40.5q-10 5 -24 -0.5
t-31 -21.5t-37 -50t-38 -81z" />
    <glyph glyph-name="l_alt3" horiz-adv-x="682" 
d="M368 387q-3 -41 -11 -87.5t-24 -103t-38 -100t-56.5 -71.5t-74.5 -25q-93 7 -134 99t-24 236v0h1q10 91 42 199q-66 3 -151 17.5t-154.5 30.5t-154 27t-157 10.5t-155 -23.5t-156.5 -70q16 57 64 101t107.5 64.5t118.5 17.5q74 -3 173.5 -28.5t178.5 -53.5t162 -48.5
t132 -16.5q15 47 34 96q59 135 147 156q62 15 106 -30q42 -45 27 -104q-11 -42 -53 -75l79 -46q-40 -110 -13 -137q16 -16 38 9q20 23 25 63l11 -4q10 -3 18.5 -5.5t21.5 -7.5t22.5 -9.5t19 -10t13.5 -11t3 -10.5q-19 -81 -27.5 -146t-6 -115.5t17.5 -82.5t42.5 -45
t70.5 -4.5t100 39.5l9 -23q-140 -79 -224.5 -52.5t-114.5 131t-1 256.5q-27 -12 -54 -7zM302 594q-48 -32 -123 -49v-1q-31 -110 -43 -174q-2 -7 -7 -36q-35 -204 17 -265q34 -38 85 5q65 55 97 189q15 62 19 131q-42 20 -56.5 72.5t11.5 127.5zM188 573q39 8 69.5 22.5
t46.5 31.5t24.5 35t7.5 32.5t-8 23.5q-7 8 -17.5 9.5t-24.5 -6.5t-29.5 -24.5t-33.5 -48.5t-35 -75z" />
    <glyph glyph-name="l_alt4" horiz-adv-x="682" 
d="M369 387q-4 -53 -16.5 -113.5t-35.5 -127.5t-63 -108.5t-90 -37.5q-87 7 -129 91t-31 216q9 115 55 261q-58 44 -79.5 108.5t-6.5 129t50.5 122.5t92.5 98t118 48q95 12 172.5 -27.5t116.5 -117t25 -172.5q-134 227 -288 243q-107 11 -187 -76q-70 -76 -76 -174
q-6 -104 69 -159q1 3 25 69q59 134 146 156q63 16 107 -31q43 -45 27 -104q-12 -42 -54 -75l81 -47q-40 -110 -13 -137q16 -16 38 9q20 23 25 63q2 -1 11 -3.5t18 -6t21.5 -8t22.5 -9.5t19 -10t13.5 -10.5t3.5 -10.5q-19 -81 -27.5 -146t-6.5 -115.5t17 -82.5t42.5 -45
t70.5 -4.5t100 39.5l9 -23q-139 -79 -223.5 -52.5t-114.5 131t-1 256.5q-28 -12 -54 -7zM304 596q-50 -32 -124 -49l-1 -1q-44 -158 -56 -253q-24 -180 28 -229q36 -33 87 15q67 64 95 206q11 52 14 109q-42 21 -56 73.5t13 128.5zM189 574q41 9 72.5 25t47 34.5t22.5 37
t4.5 32.5t-12.5 21q-8 4 -18.5 5t-24.5 -9.5t-28 -27t-31 -47.5t-32 -71z" />
    <glyph glyph-name="l_alt5" horiz-adv-x="623" 
d="M344 384q-45 29 -56 87.5t24 119.5l88 -51q-41 -107 5 -124q30 -11 69 19q26 20 29 41q17 -4 50 -29t21 -34l-92 -151q70 -67 102.5 -139.5t27.5 -163.5q-11 -97 -74.5 -160t-127.5 -51q-44 8 -61 55q-22 58 20 109q41 51 131 68q-1 37 -15 70.5t-33 55.5t-38 38t-32 24
t-13 9q7 26 54.5 105.5t59.5 111.5q-61 -41 -118 -21q-5 -55 -18 -113.5t-36 -122.5t-62 -103t-88 -35q-55 4 -91 34.5t-50 79t-18 103.5t4 117t18 110.5t23 91.5q-75 3 -179 23.5t-189.5 37t-181 24t-191.5 -14.5t-183 -78q24 85 111 136t179 47t223 -43.5t244.5 -73.5
t175.5 -30q12 40 37 97q57 131 142 154q64 17 109 -29q43 -44 28 -103q-20 -79 -136 -120q-26 -9 -56 -16q-35 -105 -53 -214q-35 -203 17 -264q33 -39 84 4q65 55 98 189q14 58 18 123zM496 -57q-40 -11 -66.5 -28.5t-36 -35.5t-9.5 -34t8 -27q13 -10 31.5 -11t40.5 35.5
t32 100.5zM190 574q41 8 72.5 24t47 34.5t23 36.5t5 32.5t-12.5 21.5q-8 4 -18.5 5t-24.5 -9t-28.5 -26.5t-31 -47.5t-32.5 -71z" />
    <glyph glyph-name="l_alt6" horiz-adv-x="622" 
d="M495 -56q-35 -10 -59.5 -24.5t-36 -29.5t-15.5 -30.5t-0.5 -27.5t12.5 -19q8 -6 18 -6.5t22 7t22.5 22.5t20.5 43t16 65zM179 563q-64 -219 -68 -359q-3 -127 49 -149q42 -17 91 44q72 89 89 254q2 16 3 32q-45 29 -56 87.5t24 119.5l88 -51q-41 -107 5 -124
q30 -11 69 19q26 20 29 41q17 -4 50 -29t21 -34l-92 -151q70 -67 102.5 -139.5t27.5 -163.5q-11 -97 -74.5 -160t-127.5 -51q-44 8 -61 55q-22 58 20 109q41 51 131 68q-1 37 -15 70.5t-33 55.5t-38 38t-32 24t-13 9q7 26 54.5 105.5t59.5 111.5q-61 -41 -118 -21
q-5 -55 -18 -113.5t-36 -122.5t-62 -103t-88 -35q-95 7 -135.5 103.5t-19.5 247.5q17 113 52 224q-64 43 -89.5 107.5t-12 130.5t49 126t93.5 101.5t120 49.5q95 12 172.5 -27t116.5 -117t25 -173q-134 228 -289 243q-107 11 -187 -77q-69 -77 -74 -175q-6 -109 77 -163
q2 -1 5 -3q8 23 28 78q58 133 144 156q63 16 107 -29q43 -44 28 -103q-19 -80 -134 -121q-27 -9 -58 -16zM189 590q41 9 72.5 24.5t47 33.5t23 36t5 32.5t-11.5 22.5q-7 6 -17.5 6.5t-24 -7t-27.5 -23t-30 -44t-31 -66.5z" />
    <glyph glyph-name="p_alt2" horiz-adv-x="842" 
d="M272 440q-31 33 -73 -40q-45 -79 -57 -185q-13 -115 36 -129q7 -2 14 -2q22 0 47 46t41 105.5t16 119.5t-24 85zM582 394q-27 -12 -54 -7q-49 -62 -116 -51q3 -81 -28 -166t-83 -134.5t-101 -32.5q-62 21 -90 88q0 -2 -4.5 -37.5t-7.5 -66.5l-4 -31q96 -44 97 -117
q1 -51 -42 -81q-42 -31 -83 -7q-54 30 -64 175q-75 -9 -174.5 -35t-183.5 -51t-179.5 -49.5t-176.5 -29t-158 10t-142 67.5t-111 143q76 -61 181 -88t229.5 -23t234.5 17.5t252.5 35t226.5 27.5q-5 142 24.5 330.5t57.5 266.5q13 -1 30 -4t32 -7.5t27.5 -9t19.5 -9.5t6 -8
q-4 -7 -13 -36q21 23 44 35q40 19 76 6.5t64 -49.5q33 -40 41 -102q51 -7 87 36q-40 26 -50 80.5t22 129.5l88 -51q-40 -110 -13 -137q16 -16 38 9q20 23 25 63l11 -4q10 -3 18.5 -5.5t21.5 -7.5t22.5 -9.5t19 -10t13.5 -11t3 -10.5q-29 -122 -34 -207.5t17 -136.5t75 -52.5
t139 42.5l9 -22q-140 -79 -224.5 -53t-114.5 130.5t-1 256.5zM86 -73q-8 -61 -1.5 -93t18 -41.5t25.5 -1.5q17 10 24 34t-8.5 54t-57.5 48z" />
    <glyph glyph-name="p_alt3" horiz-adv-x="784" 
d="M277 440q-32 34 -74 -41q-45 -80 -56 -185q-13 -115 36 -128q6 -2 13 -2q22 0 47.5 46t41.5 105.5t16 119.5t-24 85zM115 91q-2 -8 -10.5 -68.5t-6.5 -60.5q97 -44 98 -117q1 -50 -41 -81q-43 -31 -85 -7q-54 30 -64 175q-75 -9 -174.5 -35t-183.5 -51t-179 -49.5
t-176.5 -29t-158 10t-141.5 67.5t-111 143q76 -61 181 -88t229 -23t234 18t252 35t227 27q-4 114 23 306t60 285q13 -1 30 -4t32 -7.5t27.5 -9t19.5 -9.5t5 -8q-4 -8 -12 -37q22 24 44 36q40 18 75.5 6t64.5 -49q32 -41 40 -103q44 -1 75 33q-36 33 -42 86t26 109l88 -51
q-41 -107 5 -124q30 -11 69 19q26 20 29 41q17 -4 49.5 -29t20.5 -34l-91 -151q69 -67 102 -140t28 -163q-11 -97 -74.5 -160t-127.5 -51q-44 8 -61 55q-22 58 20 109q41 51 131 68q-1 37 -15 70.5t-33 55.5t-38 38t-32 24t-13 9q7 26 54.5 105.5t59.5 111.5
q-68 -47 -128 -16q-44 -48 -99 -43q3 -81 -28.5 -165.5t-83 -134t-100.5 -32.5q-62 21 -90 88zM657 -57q-33 -9 -57.5 -23t-36 -28.5t-16.5 -29.5t-2.5 -27t10.5 -20q7 -8 17.5 -9.5t22.5 5t23.5 21.5t22 43.5t16.5 67.5zM91 -67q-15 -120 21 -137q11 -5 23 3q16 11 22 34.5
t-9.5 52.5t-56.5 47z" />
    <glyph glyph-name="q_alt2" horiz-adv-x="853" 
d="M216 443q-43 -17 -70 -90t-26 -143.5t28 -83.5q49 -24 86 62q36 81 34 174q-2 84 -39 84q-6 0 -13 -3zM593 392q-27 -11 -54 -6q-22 -29 -57.5 -45t-76.5 -2q-42 -151 -56 -233q-13 -79 -14 -140q96 -26 107 -82q8 -42 -30 -71q-44 -32 -95 -7q-14 6 -26 17
q-40 34 -60 121q-68 -6 -154 -25.5t-162 -43t-162 -45.5t-160 -36.5t-151 -13.5t-139.5 21t-119.5 71t-98 132q77 -62 184.5 -90t233.5 -24t239 18t256 34.5t229 25.5q-7 49 -4 97q-56 -56 -126 -48q-40 4 -66 47.5t-29.5 106.5t7.5 129.5t45.5 124.5t84.5 83q39 22 79 17.5
t66 -37.5q13 -19 22 -44q19 54 25 69q26 -8 45.5 -17.5t30 -18t17 -16.5t8 -14t0.5 -10q-6 -23 -20 -73q56 -14 96 35q-40 26 -50 80.5t22 129.5l88 -51q-40 -110 -13 -137q16 -16 38 9q20 23 25 63l10 -3q11 -4 19.5 -6.5t21.5 -7.5t22.5 -9.5t19 -10t13.5 -11t3 -10.5
q-19 -81 -27.5 -146t-6 -115.5t17.5 -82.5t42.5 -45.5t70.5 -5t100 39.5l9 -22q-140 -79 -224.5 -52.5t-114.5 130.5t-1 256zM335 -61q1 -28 6 -48t12.5 -30t16.5 -13.5t17 -1.5t15 9q8 12 10.5 27.5t-18 32.5t-59.5 24z" />
    <glyph glyph-name="t_alt2" horiz-adv-x="559" 
d="M617 81l9 -22q-182 -106 -280 -22q-116 -55 -189.5 -29t-104 112t-15.5 214q10 79 36 179l-72 16l-1 32q26 -8 82 -19q16 56 43 132q41 -13 66 -30t30.5 -28t3.5 -19q-6 -25 -20 -75q39 -6 108 -13q21 79 52 165q26 -8 45.5 -17.5t30 -18t17 -16.5t8 -14t0.5 -10
q-5 -20 -15 -55.5t-13 -45.5q73 -7 140 15t114.5 63t79 95t39 108t-12.5 105t-69 83q-4 3 4 4q34 6 89 -14q104 -39 102 -135v-3q-2 -56 -42.5 -120.5t-105.5 -119.5t-158.5 -88.5t-189.5 -27.5q-22 -86 -32 -150q-15 -88 -8.5 -150t31 -94t75 -29.5t123.5 42.5zM197 493
q-30 -106 -41 -182q-26 -166 14.5 -233.5t156.5 -20.5q-72 89 -50 277q7 62 27 144q-57 7 -107 15z" />
    <glyph glyph-name="y_alt3" horiz-adv-x="790" 
d="M297 -16q97 7 200 -5.5t226.5 -37t192.5 -32.5q60 -6 90 -8q234 -12 441 84q-31 -61 -75.5 -101.5t-87.5 -59t-98 -25t-95 -4t-90 9.5q-13 2 -37 6q-13 2 -47 8q-84 16 -213 54.5t-231 62t-183 19.5q-42 -157 -129 -192q-57 -23 -101 15q-41 35 -30 86q16 68 123 103
q13 4 26 7q18 72 34 194q-46 -154 -107 -167q-46 -10 -77 67q-47 115 -19 314q9 72 29 146q43 -13 68.5 -24.5t34 -19t6.5 -13.5q-24 -86 -33 -176.5t-2 -145t25 -49.5q28 7 60.5 139.5t37.5 242.5q0 11 73 -16q46 -18 45 -24q-1 -25 -5 -77q28 -8 55 3t43 32
q-39 25 -49 79.5t22 129.5l87 -50q-39 -109 -13 -137q16 -17 38 8q21 23 26 63q114 -33 109 -57q-19 -81 -27.5 -146t-6.5 -116t17 -82.5t42.5 -45t70.5 -5t100 39.5l9 -22q-139 -79 -224 -52.5t-115 130.5t0 256q-28 -12 -55 -6q-21 -28 -55.5 -44t-75.5 -4
q-14 -186 -50 -355zM170 -60q-35 -11 -60 -27.5t-34.5 -32t-12.5 -30.5t5 -23q10 -8 25 -7.5t37.5 33t39.5 87.5z" />
    <glyph glyph-name="y_alt4" horiz-adv-x="800" 
d="M294 -35q97 -27 96 -119q-1 -84 -77 -172q-82 -94 -183 -113q-63 -11 -119 13q-52 23 -90.5 74.5t-44.5 117.5q116 -129 266 -105q102 16 171 91q61 66 47 124q-11 46 -72 65q-43 -148 -128 -179q-56 -21 -100 17q-40 35 -28 85q16 69 124 102q12 4 24 7q21 84 34 194
q-46 -153 -107 -166q-46 -10 -77 66q-46 114 -20 312q10 73 30 149q44 -14 69 -25t33.5 -18.5t6.5 -14.5q-43 -158 -36 -293q4 -82 26 -78q28 7 60.5 139.5t37.5 243.5q0 6 30 -2.5t59.5 -21t29.5 -16.5q-1 -12 -2.5 -37t-2.5 -38q33 -10 60 0t44 32q-39 25 -48.5 79.5
t21.5 130.5l88 -51q-40 -110 -13 -137q16 -16 38 9q20 23 25 63l10 -3q11 -4 19.5 -6.5t21.5 -7.5t22.5 -9.5t19 -10t13.5 -11t3 -10.5q-19 -81 -27.5 -146t-6.5 -116t17 -82.5t42.5 -45t70.5 -5t100 39.5l9 -22q-139 -79 -223.5 -52.5t-114.5 130.5t-1 256q-26 -11 -54 -6
q-23 -30 -59 -45.5t-79 0.5q-16 -208 -55 -376zM171 -60q-29 -9 -51 -22t-34 -26t-17.5 -26.5t-5 -23.5t6.5 -17q5 -6 13 -7t19 5t22.5 19.5t24 38.5t22.5 59z" />
    <glyph glyph-name="F_swsh" horiz-adv-x="543" 
d="M431 638q0 -1 -4 -43.5t-11 -104t-15 -117.5q28 -1 71.5 -3.5t54.5 -2.5q1 -18 -35 -26t-97 -9q-17 -111 -32 -163q-43 -157 -132.5 -173.5t-196.5 108.5q0 2 1 5l1 3q30 -30 54.5 -44.5t50.5 -15t49.5 28t43.5 85.5q21 60 41 169q-92 4 -103 4q-1 17 28.5 25t81.5 10
q29 175 39 291q-112 38 -149 42q-57 8 -92 -18q-28 -21 -37.5 -51.5t2 -61t37 -57.5t71 -44.5t101.5 -18.5q8 0 -7 -19q-32 -41 -82 -38q-7 0 -13 1q-51 9 -88.5 40.5t-51.5 73t-10.5 84t34 79.5t81.5 54q34 12 74.5 13.5t83 -5t80.5 -14.5t85 -19t78 -16q134 -21 275 -25
t279.5 9.5t263 53.5t209.5 103q9 -67 -29 -126t-73 -75q-2 -1 -28.5 -13.5t-43 -18.5t-62 -17.5t-91 -14.5t-125 -4t-169 6.5t-217.5 25t-276 44.5z" />
    <glyph glyph-name="G_swsh" horiz-adv-x="558" 
d="M217 74q29 -11 52.5 -9.5t42 22.5t32 46t23 61t16 68.5t10 69t5 61.5t1.5 45q55 -11 87 -21t31 -19q-12 -236 -55 -430q132 12 295 -2.5t308.5 -36.5t298.5 -39t316 -7t310 56q-59 -81 -126 -129t-135.5 -63t-145.5 -12t-157 24.5t-168.5 47t-180.5 55.5t-194 50
t-207 30.5t-221 -3.5q-43 -156 -130 -189q-56 -21 -100 17q-40 36 -28 86q16 69 126 103l22 6q19 70 30 163q-77 -132 -177 -124q-76 7 -126 66t-64.5 141.5t-0.5 179t57 176.5q35 65 79.5 108t89 59.5t86.5 17t79 -15.5q90 -37 101 -111q10 -64 -42 -111q-65 -58 -168 -35
q-16 3 -33 9q106 4 157 82q37 55 22 105q-10 34 -42 39q-58 10 -120 -45t-89 -119q-31 -73 -45.5 -169t3.5 -186.5t75 -117.5zM336 -71q-52 -17 -81 -45t-26.5 -47.5t13.5 -28.5q11 -5 26 3.5t34 38.5t34 79z" />
    <glyph glyph-name="L_swsh" horiz-adv-x="418" 
d="M1499 -32q-26 -61 -55.5 -97.5t-82.5 -54.5q-157 -51 -385.5 -24.5t-431 83t-309.5 113.5q-47 -111 -126 -122q-54 -8 -89 32q-34 39 -10 79q29 49 131 63q41 143 66.5 359t27.5 336q47 -10 86.5 -26.5t38.5 -26.5q-6 -122 -41.5 -332.5t-70.5 -325.5
q196 -86 453.5 -120.5t473 -15t324.5 79.5zM128 -6q-27 -3 -47.5 -10t-31.5 -15.5t-18 -18t-5.5 -17t4.5 -13.5q4 -5 11 -7t17 1.5t21 12t24 26t25 41.5z" />
    <glyph glyph-name="Q_swsh" horiz-adv-x="591" 
d="M97 584q12 79 77.5 132.5t156.5 44.5q63 -7 112.5 -41t78 -85.5t41 -116t8 -131.5t-27.5 -132.5t-60.5 -119t-95 -90.5t-127.5 -47q393 -91 724 -127.5t590.5 -9.5t394.5 124q-28 -99 -99.5 -158.5t-168 -79.5t-226.5 -15.5t-263.5 28.5t-291 57.5t-298 67.5t-295.5 62
t-272 37q24 24 50 37q-71 51 -94.5 180t3 244.5t83.5 138.5zM376 424q-35 -55 -104.5 -71t-119.5 28q-27 27 -41 63q-24 -99 -18.5 -188.5t46.5 -152t104 -62.5q58 0 108 69t73.5 168t28 198.5t-26.5 170.5t-91 74q-77 4 -128 -74q-47 -71 -39 -148q9 -79 76 -95
q52 -13 132 20z" />
    <glyph glyph-name="T_swsh" horiz-adv-x="500" 
d="M355 181q1 -50 10.5 -80t22.5 -42.5t37 -11.5t43 8t52 22q3 0 3 -31q-139 -77 -217.5 -27.5t-70.5 214.5q4 82 41.5 232t59.5 199q-11 4 -41 14.5t-42.5 14l-37.5 10.5t-38.5 8t-32.5 1t-33.5 -5t-27.5 -15q-29 -21 -39 -51.5t0.5 -61t35.5 -57.5t70.5 -44.5t101.5 -18.5
q8 0 -7 -18q-33 -41 -83 -39q-7 0 -14 1q-63 11 -102.5 56.5t-45.5 98.5t25.5 104.5t95.5 72.5q34 11 74 13t82 -4.5t79 -15t83.5 -19t77.5 -15.5q134 -21 275 -25.5t279.5 9t263 53.5t209.5 103q9 -68 -29 -127t-73 -73l-28 -14q-28 -13 -43 -18.5t-62 -17.5t-91.5 -14.5
t-124 -4t-168.5 6.5t-217 25t-275 44q-12 -44 -28 -111.5t-33.5 -176t-16.5 -172.5z" />
    <glyph glyph-name="Y_swsh" horiz-adv-x="539" 
d="M215 69q33 -10 62.5 25.5t50 99.5t37 141t26.5 153.5t15 133t5 82.5q56 -11 88 -21t31 -19q-8 -149 -36.5 -350.5t-62.5 -352.5q131 10 292.5 -5t306 -37t296 -38.5t313 -6t307.5 56.5q-75 -102 -162 -152.5t-181 -53t-193.5 18.5t-217 58.5t-232.5 71.5t-258.5 52.5
t-277.5 5.5q-42 -155 -128 -189q-57 -23 -102 15q-40 35 -29 85q15 68 120 102l28 8q20 77 44 245q-11 -70 -58 -138.5t-104 -63.5q-49 4 -79 38t-39.5 78.5t-9 103.5t7 102t15 87t8.5 46q-58 41 -81 95t-15 98t37 70q32 29 83.5 38.5t91 -4t41.5 -44.5q2 -26 -3.5 -63
t-16.5 -89.5t-15 -79.5q56 -17 75 -21q-16 -24 -37 -32.5t-31 -7.5t-17 4q-15 -56 -23.5 -131.5t-2.5 -141t31 -73.5zM109 513q0 -1 2.5 11t5.5 30.5t6.5 36.5t6 31.5t2.5 14.5q11 50 0.5 69t-32.5 14.5t-44 -28.5q-19 -22 -22.5 -54.5t15.5 -67.5t60 -57zM304 -80
q-51 -17 -80 -44.5t-26.5 -47t12.5 -29.5q12 -5 26.5 3.5t33.5 38.5t34 79z" />
    </font>
</defs>
</svg>
